<ttFont>
    <TTGlyph name=".notdef" xMin="33" yMin="0" xMax="298" yMax="666">
      <contour>
        <pt x="33" y="0" on="1"/>
        <pt x="33" y="666" on="1"/>
        <pt x="298" y="666" on="1"/>
        <pt x="298" y="0" on="1"/>
      </contour>
      <contour>
        <pt x="66" y="33" on="1"/>
        <pt x="265" y="33" on="1"/>
        <pt x="265" y="633" on="1"/>
        <pt x="66" y="633" on="1"/>
      </contour>
    </TTGlyph>
    <TTGlyph name="A" xMin="61" yMin="0" xMax="598" yMax="700">
      <contour>
        <pt x="518" y="182" on="1"/>
        <pt x="197" y="182" on="1"/>
        <pt x="104" y="13" on="1"/>
        <pt x="98" y="0" on="0"/>
        <pt x="77" y="0" on="0"/>
        <pt x="71" y="3" on="1"/>
        <pt x="50" y="15" on="0"/>
        <pt x="61" y="36" on="1"/>
        <pt x="421" y="687" on="1"/>
        <pt x="427" y="700" on="0"/>
        <pt x="465" y="700" on="0"/>
        <pt x="468" y="680" on="1"/>
        <pt x="598" y="29" on="1"/>
        <pt x="600" y="19" on="0"/>
        <pt x="589" y="2" on="0"/>
        <pt x="579" y="0" on="1"/>
        <pt x="574" y="0" on="1"/>
        <pt x="553" y="0" on="0"/>
        <pt x="550" y="20" on="1"/>
      </contour>
      <contour>
        <pt x="508" y="231" on="1"/>
        <pt x="433" y="608" on="1"/>
        <pt x="224" y="231" on="1"/>
      </contour>
    </TTGlyph>
    <TTGlyph name="AE" xMin="39" yMin="1" xMax="1100" yMax="706">
      <contour>
        <pt x="81" y="14" on="1"/>
        <pt x="71" y="1" on="0"/>
        <pt x="47" y="1" on="0"/>
        <pt x="32" y="19" on="0"/>
        <pt x="44" y="39" on="1"/>
        <pt x="553" y="690" on="1"/>
        <pt x="566" y="706" on="0"/>
        <pt x="582" y="706" on="1"/>
        <pt x="1079" y="706" on="1"/>
        <pt x="1089" y="706" on="0"/>
        <pt x="1101" y="692" on="0"/>
        <pt x="1098" y="672" on="0"/>
        <pt x="1081" y="658" on="0"/>
        <pt x="1071" y="658" on="1"/>
        <pt x="660" y="658" on="1"/>
        <pt x="611" y="383" on="1"/>
        <pt x="977" y="383" on="1"/>
        <pt x="987" y="383" on="0"/>
        <pt x="999" y="369" on="0"/>
        <pt x="996" y="349" on="0"/>
        <pt x="979" y="335" on="0"/>
        <pt x="969" y="335" on="1"/>
        <pt x="603" y="335" on="1"/>
        <pt x="553" y="54" on="1"/>
        <pt x="969" y="54" on="1"/>
        <pt x="979" y="54" on="0"/>
        <pt x="991" y="40" on="0"/>
        <pt x="988" y="20" on="0"/>
        <pt x="971" y="6" on="0"/>
        <pt x="961" y="6" on="1"/>
        <pt x="519" y="6" on="1"/>
        <pt x="509" y="6" on="0"/>
        <pt x="495" y="21" on="0"/>
        <pt x="497" y="32" on="1"/>
        <pt x="527" y="202" on="1"/>
        <pt x="227" y="202" on="1"/>
      </contour>
      <contour>
        <pt x="264" y="249" on="1"/>
        <pt x="536" y="249" on="1"/>
        <pt x="608" y="659" on="1"/>
        <pt x="582" y="659" on="1"/>
      </contour>
    </TTGlyph>
    <TTGlyph name="Aacute" xMin="62" yMin="0" xMax="599" yMax="923">
      <contour>
        <pt x="519" y="182" on="1"/>
        <pt x="198" y="182" on="1"/>
        <pt x="105" y="13" on="1"/>
        <pt x="98" y="0" on="0"/>
        <pt x="78" y="0" on="0"/>
        <pt x="72" y="3" on="1"/>
        <pt x="51" y="15" on="0"/>
        <pt x="62" y="36" on="1"/>
        <pt x="422" y="687" on="1"/>
        <pt x="428" y="700" on="0"/>
        <pt x="466" y="700" on="0"/>
        <pt x="469" y="680" on="1"/>
        <pt x="599" y="29" on="1"/>
        <pt x="601" y="19" on="0"/>
        <pt x="590" y="2" on="0"/>
        <pt x="580" y="0" on="1"/>
        <pt x="575" y="0" on="1"/>
        <pt x="554" y="0" on="0"/>
        <pt x="551" y="20" on="1"/>
      </contour>
      <contour>
        <pt x="509" y="231" on="1"/>
        <pt x="434" y="608" on="1"/>
        <pt x="225" y="231" on="1"/>
      </contour>
      <contour>
        <pt x="450" y="805" on="1"/>
        <pt x="438" y="792" on="0"/>
        <pt x="406" y="792" on="0"/>
        <pt x="406" y="801" on="1"/>
        <pt x="405" y="807" on="0"/>
        <pt x="408" y="812" on="1"/>
        <pt x="457" y="905" on="1"/>
        <pt x="466" y="923" on="0"/>
        <pt x="496" y="923" on="0"/>
        <pt x="526" y="908" on="0"/>
        <pt x="528" y="893" on="0"/>
        <pt x="519" y="882" on="1"/>
      </contour>
    </TTGlyph>
    <TTGlyph name="Acircumflex" xMin="61" yMin="0" xMax="598" yMax="920">
      <contour>
        <pt x="518" y="182" on="1"/>
        <pt x="197" y="182" on="1"/>
        <pt x="104" y="13" on="1"/>
        <pt x="98" y="0" on="0"/>
        <pt x="77" y="0" on="0"/>
        <pt x="71" y="3" on="1"/>
        <pt x="50" y="15" on="0"/>
        <pt x="61" y="36" on="1"/>
        <pt x="421" y="687" on="1"/>
        <pt x="427" y="700" on="0"/>
        <pt x="465" y="700" on="0"/>
        <pt x="468" y="680" on="1"/>
        <pt x="598" y="29" on="1"/>
        <pt x="600" y="19" on="0"/>
        <pt x="589" y="2" on="0"/>
        <pt x="579" y="0" on="1"/>
        <pt x="574" y="0" on="1"/>
        <pt x="553" y="0" on="0"/>
        <pt x="550" y="20" on="1"/>
      </contour>
      <contour>
        <pt x="508" y="231" on="1"/>
        <pt x="433" y="608" on="1"/>
        <pt x="224" y="231" on="1"/>
      </contour>
      <contour>
        <pt x="470" y="863" on="1"/>
        <pt x="400" y="805" on="1"/>
        <pt x="383" y="792" on="0"/>
        <pt x="354" y="792" on="0"/>
        <pt x="354" y="802" on="1"/>
        <pt x="356" y="809" on="0"/>
        <pt x="361" y="814" on="1"/>
        <pt x="445" y="902" on="1"/>
        <pt x="461" y="920" on="0"/>
        <pt x="475" y="920" on="1"/>
        <pt x="483" y="920" on="1"/>
        <pt x="496" y="920" on="0"/>
        <pt x="509" y="902" on="1"/>
        <pt x="569" y="814" on="1"/>
        <pt x="573" y="807" on="0"/>
        <pt x="572" y="802" on="1"/>
        <pt x="572" y="792" on="0"/>
        <pt x="538" y="792" on="0"/>
        <pt x="526" y="805" on="1"/>
      </contour>
    </TTGlyph>
    <TTGlyph name="Adieresis" xMin="61" yMin="0" xMax="600" yMax="880">
      <contour>
        <pt x="518" y="182" on="1"/>
        <pt x="197" y="182" on="1"/>
        <pt x="104" y="13" on="1"/>
        <pt x="98" y="0" on="0"/>
        <pt x="77" y="0" on="0"/>
        <pt x="71" y="3" on="1"/>
        <pt x="50" y="15" on="0"/>
        <pt x="61" y="36" on="1"/>
        <pt x="421" y="687" on="1"/>
        <pt x="427" y="700" on="0"/>
        <pt x="465" y="700" on="0"/>
        <pt x="468" y="680" on="1"/>
        <pt x="598" y="29" on="1"/>
        <pt x="600" y="19" on="0"/>
        <pt x="589" y="2" on="0"/>
        <pt x="579" y="0" on="1"/>
        <pt x="574" y="0" on="1"/>
        <pt x="553" y="0" on="0"/>
        <pt x="550" y="20" on="1"/>
      </contour>
      <contour>
        <pt x="508" y="231" on="1"/>
        <pt x="433" y="608" on="1"/>
        <pt x="224" y="231" on="1"/>
      </contour>
      <contour>
        <pt x="349" y="837" on="1"/>
        <pt x="352" y="855" on="0"/>
        <pt x="381" y="880" on="0"/>
        <pt x="417" y="880" on="0"/>
        <pt x="438" y="855" on="0"/>
        <pt x="431" y="819" on="0"/>
        <pt x="402" y="794" on="0"/>
        <pt x="366" y="794" on="0"/>
        <pt x="345" y="819" on="0"/>
      </contour>
      <contour>
        <pt x="514" y="837" on="1"/>
        <pt x="517" y="855" on="0"/>
        <pt x="546" y="880" on="0"/>
        <pt x="582" y="880" on="0"/>
        <pt x="603" y="855" on="0"/>
        <pt x="596" y="819" on="0"/>
        <pt x="567" y="794" on="0"/>
        <pt x="531" y="794" on="0"/>
        <pt x="510" y="819" on="0"/>
      </contour>
    </TTGlyph>
    <TTGlyph name="Agrave" xMin="62" yMin="0" xMax="599" yMax="923">
      <contour>
        <pt x="519" y="182" on="1"/>
        <pt x="198" y="182" on="1"/>
        <pt x="105" y="13" on="1"/>
        <pt x="98" y="0" on="0"/>
        <pt x="78" y="0" on="0"/>
        <pt x="72" y="3" on="1"/>
        <pt x="51" y="15" on="0"/>
        <pt x="62" y="36" on="1"/>
        <pt x="422" y="687" on="1"/>
        <pt x="428" y="700" on="0"/>
        <pt x="466" y="700" on="0"/>
        <pt x="469" y="680" on="1"/>
        <pt x="599" y="29" on="1"/>
        <pt x="601" y="19" on="0"/>
        <pt x="590" y="2" on="0"/>
        <pt x="580" y="0" on="1"/>
        <pt x="575" y="0" on="1"/>
        <pt x="554" y="0" on="0"/>
        <pt x="551" y="20" on="1"/>
      </contour>
      <contour>
        <pt x="509" y="231" on="1"/>
        <pt x="434" y="608" on="1"/>
        <pt x="225" y="231" on="1"/>
      </contour>
      <contour>
        <pt x="536" y="801" on="1"/>
        <pt x="536" y="792" on="0"/>
        <pt x="504" y="792" on="0"/>
        <pt x="492" y="805" on="1"/>
        <pt x="423" y="882" on="1"/>
        <pt x="414" y="893" on="0"/>
        <pt x="416" y="908" on="0"/>
        <pt x="446" y="923" on="0"/>
        <pt x="476" y="923" on="0"/>
        <pt x="485" y="905" on="1"/>
        <pt x="534" y="812" on="1"/>
        <pt x="537" y="807" on="0"/>
      </contour>
    </TTGlyph>
    <TTGlyph name="Aring" xMin="89" yMin="0" xMax="626" yMax="796">
      <contour>
        <pt x="109" y="0" on="1"/>
        <pt x="100" y="1" on="1"/>
        <pt x="92" y="5" on="0"/>
        <pt x="86" y="24" on="0"/>
        <pt x="92" y="33" on="1"/>
        <pt x="422" y="633" on="1"/>
        <pt x="382" y="659" on="0"/>
        <pt x="390" y="707" on="1"/>
        <pt x="391" y="708" on="1"/>
        <pt x="397" y="744" on="0"/>
        <pt x="460" y="796" on="0"/>
        <pt x="532" y="796" on="0"/>
        <pt x="578" y="744" on="0"/>
        <pt x="572" y="708" on="1"/>
        <pt x="571" y="707" on="1"/>
        <pt x="567" y="683" on="0"/>
        <pt x="532" y="641" on="0"/>
        <pt x="507" y="630" on="1"/>
        <pt x="626" y="33" on="1"/>
        <pt x="628" y="24" on="0"/>
        <pt x="622" y="14" on="1"/>
        <pt x="615" y="2" on="0"/>
        <pt x="581" y="0" on="0"/>
        <pt x="578" y="16" on="1"/>
        <pt x="545" y="181" on="1"/>
        <pt x="226" y="181" on="1"/>
        <pt x="135" y="16" on="1"/>
        <pt x="125" y="0" on="0"/>
      </contour>
      <contour>
        <pt x="433" y="707" on="1"/>
        <pt x="430" y="686" on="0"/>
        <pt x="455" y="661" on="0"/>
        <pt x="486" y="661" on="0"/>
        <pt x="500" y="669" on="1"/>
        <pt x="525" y="682" on="0"/>
        <pt x="528" y="707" on="1"/>
        <pt x="529" y="708" on="1"/>
        <pt x="532" y="727" on="0"/>
        <pt x="509" y="757" on="0"/>
        <pt x="469" y="757" on="0"/>
        <pt x="437" y="727" on="0"/>
        <pt x="434" y="708" on="1"/>
      </contour>
      <contour>
        <pt x="252" y="230" on="1"/>
        <pt x="535" y="230" on="1"/>
        <pt x="461" y="606" on="1"/>
      </contour>
    </TTGlyph>
    <TTGlyph name="Atilde" xMin="62" yMin="0" xMax="632" yMax="899">
      <contour>
        <pt x="519" y="182" on="1"/>
        <pt x="198" y="182" on="1"/>
        <pt x="105" y="13" on="1"/>
        <pt x="98" y="0" on="0"/>
        <pt x="78" y="0" on="0"/>
        <pt x="72" y="3" on="1"/>
        <pt x="51" y="15" on="0"/>
        <pt x="62" y="36" on="1"/>
        <pt x="422" y="687" on="1"/>
        <pt x="428" y="700" on="0"/>
        <pt x="466" y="700" on="0"/>
        <pt x="469" y="680" on="1"/>
        <pt x="599" y="29" on="1"/>
        <pt x="601" y="19" on="0"/>
        <pt x="590" y="2" on="0"/>
        <pt x="580" y="0" on="1"/>
        <pt x="575" y="0" on="1"/>
        <pt x="554" y="0" on="0"/>
        <pt x="551" y="20" on="1"/>
      </contour>
      <contour>
        <pt x="509" y="231" on="1"/>
        <pt x="434" y="608" on="1"/>
        <pt x="225" y="231" on="1"/>
      </contour>
      <contour>
        <pt x="370" y="798" on="1"/>
        <pt x="361" y="784" on="0"/>
        <pt x="342" y="784" on="0"/>
        <pt x="333" y="794" on="0"/>
        <pt x="334" y="801" on="1"/>
        <pt x="338" y="813" on="1"/>
        <pt x="357" y="855" on="0"/>
        <pt x="399" y="888" on="0"/>
        <pt x="446" y="888" on="0"/>
        <pt x="532" y="847" on="0"/>
        <pt x="549" y="847" on="1"/>
        <pt x="578" y="847" on="0"/>
        <pt x="599" y="885" on="1"/>
        <pt x="608" y="899" on="0"/>
        <pt x="627" y="899" on="0"/>
        <pt x="632" y="894" on="1"/>
        <pt x="640" y="884" on="0"/>
        <pt x="631" y="870" on="1"/>
        <pt x="612" y="828" on="0"/>
        <pt x="570" y="795" on="0"/>
        <pt x="522" y="795" on="0"/>
        <pt x="436" y="836" on="0"/>
        <pt x="420" y="836" on="1"/>
        <pt x="391" y="836" on="0"/>
      </contour>
    </TTGlyph>
    <TTGlyph name="B" xMin="107" yMin="1" xMax="563" yMax="701">
      <contour>
        <pt x="126" y="1" on="1"/>
        <pt x="102" y="7" on="0"/>
        <pt x="107" y="30" on="1"/>
        <pt x="221" y="681" on="1"/>
        <pt x="226" y="701" on="0"/>
        <pt x="247" y="701" on="1"/>
        <pt x="401" y="701" on="1"/>
        <pt x="466" y="701" on="0"/>
        <pt x="509" y="658" on="1"/>
        <pt x="551" y="618" on="0"/>
        <pt x="551" y="553" on="1"/>
        <pt x="551" y="538" on="0"/>
        <pt x="548" y="523" on="1"/>
        <pt x="533" y="438" on="0"/>
        <pt x="459" y="389" on="1"/>
        <pt x="492" y="375" on="0"/>
        <pt x="515" y="352" on="1"/>
        <pt x="565" y="304" on="0"/>
        <pt x="563" y="232" on="1"/>
        <pt x="563" y="215" on="0"/>
        <pt x="560" y="197" on="1"/>
        <pt x="545" y="115" on="0"/>
        <pt x="413" y="2" on="0"/>
        <pt x="330" y="1" on="1"/>
      </contour>
      <contour>
        <pt x="515" y="232" on="1"/>
        <pt x="514" y="284" on="0"/>
        <pt x="447" y="351" on="0"/>
        <pt x="392" y="352" on="1"/>
        <pt x="213" y="352" on="1"/>
        <pt x="160" y="50" on="1"/>
        <pt x="330" y="50" on="1"/>
        <pt x="393" y="49" on="0"/>
        <pt x="501" y="142" on="0"/>
        <pt x="512" y="205" on="1"/>
        <pt x="515" y="218" on="0"/>
      </contour>
      <contour>
        <pt x="502" y="553" on="1"/>
        <pt x="501" y="597" on="0"/>
        <pt x="446" y="651" on="0"/>
        <pt x="401" y="652" on="1"/>
        <pt x="266" y="652" on="1"/>
        <pt x="222" y="402" on="1"/>
        <pt x="348" y="402" on="1"/>
        <pt x="401" y="401" on="0"/>
        <pt x="446" y="440" on="1"/>
        <pt x="502" y="488" on="0"/>
      </contour>
    </TTGlyph>
    <TTGlyph name="C" xMin="73" yMin="0" xMax="715" yMax="700">
      <contour>
        <pt x="614" y="75" on="1"/>
        <pt x="504" y="0" on="0"/>
        <pt x="246" y="0" on="0"/>
        <pt x="159" y="84" on="1"/>
        <pt x="73" y="168" on="0"/>
        <pt x="73" y="295" on="1"/>
        <pt x="73" y="329" on="0"/>
        <pt x="78" y="354" on="1"/>
        <pt x="104" y="499" on="0"/>
        <pt x="346" y="699" on="0"/>
        <pt x="494" y="700" on="1"/>
        <pt x="619" y="700" on="0"/>
        <pt x="706" y="623" on="1"/>
        <pt x="714" y="616" on="0"/>
        <pt x="715" y="595" on="0"/>
        <pt x="708" y="588" on="1"/>
        <pt x="692" y="570" on="0"/>
        <pt x="674" y="586" on="1"/>
        <pt x="601" y="651" on="0"/>
        <pt x="494" y="651" on="1"/>
        <pt x="365" y="652" on="0"/>
        <pt x="256" y="562" on="1"/>
        <pt x="122" y="449" on="0"/>
        <pt x="122" y="295" on="1"/>
        <pt x="122" y="188" on="0"/>
        <pt x="265" y="50" on="0"/>
        <pt x="488" y="49" on="0"/>
        <pt x="586" y="115" on="1"/>
        <pt x="605" y="129" on="0"/>
        <pt x="634" y="90" on="0"/>
      </contour>
    </TTGlyph>
    <TTGlyph name="Ccedilla" xMin="106" yMin="-131" xMax="760" yMax="723">
      <contour>
        <pt x="675" y="108" on="1"/>
        <pt x="544" y="3" on="0"/>
        <pt x="404" y="-1" on="1"/>
        <pt x="330" y="-111" on="1"/>
        <pt x="317" y="-131" on="0"/>
        <pt x="289" y="-131" on="0"/>
        <pt x="279" y="-123" on="1"/>
        <pt x="263" y="-110" on="0"/>
        <pt x="279" y="-92" on="1"/>
        <pt x="358" y="1" on="1"/>
        <pt x="223" y="13" on="0"/>
        <pt x="81" y="216" on="0"/>
        <pt x="106" y="359" on="1"/>
        <pt x="106" y="361" on="1"/>
        <pt x="133" y="511" on="0"/>
        <pt x="370" y="723" on="0"/>
        <pt x="520" y="723" on="1"/>
        <pt x="601" y="723" on="0"/>
        <pt x="712" y="673" on="0"/>
        <pt x="760" y="625" on="1"/>
        <pt x="777" y="604" on="0"/>
        <pt x="756" y="586" on="1"/>
        <pt x="746" y="578" on="0"/>
        <pt x="723" y="578" on="0"/>
        <pt x="718" y="585" on="1"/>
        <pt x="634" y="676" on="0"/>
        <pt x="385" y="676" on="0"/>
        <pt x="184" y="495" on="0"/>
        <pt x="161" y="363" on="1"/>
        <pt x="160" y="361" on="1"/>
        <pt x="137" y="228" on="0"/>
        <pt x="276" y="46" on="0"/>
        <pt x="527" y="46" on="0"/>
        <pt x="646" y="143" on="1"/>
        <pt x="656" y="151" on="0"/>
        <pt x="675" y="151" on="0"/>
        <pt x="688" y="136" on="0"/>
        <pt x="685" y="116" on="0"/>
      </contour>
    </TTGlyph>
    <TTGlyph name="D" xMin="106" yMin="-1" xMax="673" yMax="699">
      <contour>
        <pt x="126" y="-1" on="1"/>
        <pt x="103" y="4" on="0"/>
        <pt x="106" y="28" on="1"/>
        <pt x="221" y="679" on="1"/>
        <pt x="222" y="688" on="0"/>
        <pt x="236" y="699" on="0"/>
        <pt x="245" y="699" on="1"/>
        <pt x="376" y="699" on="1"/>
        <pt x="506" y="699" on="0"/>
        <pt x="673" y="532" on="0"/>
        <pt x="673" y="406" on="1"/>
        <pt x="673" y="380" on="0"/>
        <pt x="668" y="345" on="1"/>
        <pt x="642" y="201" on="0"/>
        <pt x="406" y="0" on="0"/>
        <pt x="261" y="-1" on="1"/>
      </contour>
      <contour>
        <pt x="266" y="650" on="1"/>
        <pt x="160" y="48" on="1"/>
        <pt x="261" y="48" on="1"/>
        <pt x="386" y="47" on="0"/>
        <pt x="492" y="138" on="1"/>
        <pt x="624" y="250" on="0"/>
        <pt x="624" y="406" on="1"/>
        <pt x="623" y="512" on="0"/>
        <pt x="486" y="649" on="0"/>
        <pt x="376" y="650" on="1"/>
      </contour>
    </TTGlyph>
    <TTGlyph name="E" xMin="106" yMin="-2" xMax="630" yMax="698">
      <contour>
        <pt x="126" y="-2" on="1"/>
        <pt x="103" y="3" on="0"/>
        <pt x="106" y="27" on="1"/>
        <pt x="221" y="678" on="1"/>
        <pt x="224" y="698" on="0"/>
        <pt x="246" y="698" on="1"/>
        <pt x="606" y="698" on="1"/>
        <pt x="616" y="698" on="0"/>
        <pt x="630" y="683" on="0"/>
        <pt x="630" y="663" on="0"/>
        <pt x="616" y="649" on="0"/>
        <pt x="606" y="649" on="1"/>
        <pt x="266" y="649" on="1"/>
        <pt x="217" y="372" on="1"/>
        <pt x="507" y="372" on="1"/>
        <pt x="517" y="372" on="0"/>
        <pt x="531" y="358" on="0"/>
        <pt x="531" y="338" on="0"/>
        <pt x="517" y="323" on="0"/>
        <pt x="507" y="323" on="1"/>
        <pt x="208" y="323" on="1"/>
        <pt x="159" y="47" on="1"/>
        <pt x="491" y="47" on="1"/>
        <pt x="501" y="47" on="0"/>
        <pt x="515" y="32" on="0"/>
        <pt x="515" y="12" on="0"/>
        <pt x="501" y="-2" on="0"/>
        <pt x="491" y="-2" on="1"/>
      </contour>
    </TTGlyph>
    <TTGlyph name="Eacute" xMin="106" yMin="-2" xMax="630" yMax="923">
      <contour>
        <pt x="126" y="-2" on="1"/>
        <pt x="103" y="3" on="0"/>
        <pt x="106" y="27" on="1"/>
        <pt x="221" y="678" on="1"/>
        <pt x="224" y="698" on="0"/>
        <pt x="246" y="698" on="1"/>
        <pt x="606" y="698" on="1"/>
        <pt x="616" y="698" on="0"/>
        <pt x="630" y="683" on="0"/>
        <pt x="630" y="663" on="0"/>
        <pt x="616" y="649" on="0"/>
        <pt x="606" y="649" on="1"/>
        <pt x="266" y="649" on="1"/>
        <pt x="217" y="372" on="1"/>
        <pt x="507" y="372" on="1"/>
        <pt x="517" y="372" on="0"/>
        <pt x="531" y="358" on="0"/>
        <pt x="531" y="338" on="0"/>
        <pt x="517" y="323" on="0"/>
        <pt x="507" y="323" on="1"/>
        <pt x="208" y="323" on="1"/>
        <pt x="159" y="47" on="1"/>
        <pt x="491" y="47" on="1"/>
        <pt x="501" y="47" on="0"/>
        <pt x="515" y="32" on="0"/>
        <pt x="515" y="12" on="0"/>
        <pt x="501" y="-2" on="0"/>
        <pt x="491" y="-2" on="1"/>
      </contour>
      <contour>
        <pt x="462" y="805" on="1"/>
        <pt x="450" y="792" on="0"/>
        <pt x="418" y="792" on="0"/>
        <pt x="418" y="801" on="1"/>
        <pt x="417" y="807" on="0"/>
        <pt x="420" y="812" on="1"/>
        <pt x="469" y="905" on="1"/>
        <pt x="478" y="923" on="0"/>
        <pt x="508" y="923" on="0"/>
        <pt x="538" y="908" on="0"/>
        <pt x="540" y="893" on="0"/>
        <pt x="531" y="882" on="1"/>
      </contour>
    </TTGlyph>
    <TTGlyph name="Ecircumflex" xMin="106" yMin="-2" xMax="630" yMax="920">
      <component glyphName="E" x="0" y="0" flags="0x1004"/>
      <component glyphName="circumflex" x="204" y="200" flags="0x1004"/>
    </TTGlyph>
    <TTGlyph name="Edieresis" xMin="106" yMin="-2" xMax="630" yMax="880">
      <contour>
        <pt x="126" y="-2" on="1"/>
        <pt x="103" y="3" on="0"/>
        <pt x="106" y="27" on="1"/>
        <pt x="221" y="678" on="1"/>
        <pt x="224" y="698" on="0"/>
        <pt x="246" y="698" on="1"/>
        <pt x="606" y="698" on="1"/>
        <pt x="616" y="698" on="0"/>
        <pt x="630" y="683" on="0"/>
        <pt x="630" y="663" on="0"/>
        <pt x="616" y="649" on="0"/>
        <pt x="606" y="649" on="1"/>
        <pt x="266" y="649" on="1"/>
        <pt x="217" y="372" on="1"/>
        <pt x="507" y="372" on="1"/>
        <pt x="517" y="372" on="0"/>
        <pt x="531" y="358" on="0"/>
        <pt x="531" y="338" on="0"/>
        <pt x="517" y="323" on="0"/>
        <pt x="507" y="323" on="1"/>
        <pt x="208" y="323" on="1"/>
        <pt x="159" y="47" on="1"/>
        <pt x="491" y="47" on="1"/>
        <pt x="501" y="47" on="0"/>
        <pt x="515" y="32" on="0"/>
        <pt x="515" y="12" on="0"/>
        <pt x="501" y="-2" on="0"/>
        <pt x="491" y="-2" on="1"/>
      </contour>
      <contour>
        <pt x="340" y="837" on="1"/>
        <pt x="343" y="855" on="0"/>
        <pt x="372" y="880" on="0"/>
        <pt x="408" y="880" on="0"/>
        <pt x="429" y="855" on="0"/>
        <pt x="422" y="819" on="0"/>
        <pt x="393" y="794" on="0"/>
        <pt x="357" y="794" on="0"/>
        <pt x="336" y="819" on="0"/>
      </contour>
      <contour>
        <pt x="505" y="837" on="1"/>
        <pt x="508" y="855" on="0"/>
        <pt x="537" y="880" on="0"/>
        <pt x="573" y="880" on="0"/>
        <pt x="594" y="855" on="0"/>
        <pt x="587" y="819" on="0"/>
        <pt x="558" y="794" on="0"/>
        <pt x="522" y="794" on="0"/>
        <pt x="501" y="819" on="0"/>
      </contour>
    </TTGlyph>
    <TTGlyph name="Egrave" xMin="106" yMin="-2" xMax="630" yMax="923">
      <contour>
        <pt x="126" y="-2" on="1"/>
        <pt x="103" y="3" on="0"/>
        <pt x="106" y="27" on="1"/>
        <pt x="221" y="678" on="1"/>
        <pt x="224" y="698" on="0"/>
        <pt x="246" y="698" on="1"/>
        <pt x="606" y="698" on="1"/>
        <pt x="616" y="698" on="0"/>
        <pt x="630" y="683" on="0"/>
        <pt x="630" y="663" on="0"/>
        <pt x="616" y="649" on="0"/>
        <pt x="606" y="649" on="1"/>
        <pt x="266" y="649" on="1"/>
        <pt x="217" y="372" on="1"/>
        <pt x="507" y="372" on="1"/>
        <pt x="517" y="372" on="0"/>
        <pt x="531" y="358" on="0"/>
        <pt x="531" y="338" on="0"/>
        <pt x="517" y="323" on="0"/>
        <pt x="507" y="323" on="1"/>
        <pt x="208" y="323" on="1"/>
        <pt x="159" y="47" on="1"/>
        <pt x="491" y="47" on="1"/>
        <pt x="501" y="47" on="0"/>
        <pt x="515" y="32" on="0"/>
        <pt x="515" y="12" on="0"/>
        <pt x="501" y="-2" on="0"/>
        <pt x="491" y="-2" on="1"/>
      </contour>
      <contour>
        <pt x="505" y="801" on="1"/>
        <pt x="505" y="792" on="0"/>
        <pt x="473" y="792" on="0"/>
        <pt x="461" y="805" on="1"/>
        <pt x="392" y="882" on="1"/>
        <pt x="383" y="893" on="0"/>
        <pt x="385" y="908" on="0"/>
        <pt x="415" y="923" on="0"/>
        <pt x="445" y="923" on="0"/>
        <pt x="454" y="905" on="1"/>
        <pt x="503" y="812" on="1"/>
        <pt x="506" y="807" on="0"/>
      </contour>
    </TTGlyph>
    <TTGlyph name="Eth" xMin="57" yMin="1" xMax="665" yMax="701">
      <contour>
        <pt x="72" y="331" on="1"/>
        <pt x="54" y="331" on="0"/>
        <pt x="57" y="351" on="1"/>
        <pt x="60" y="369" on="0"/>
        <pt x="79" y="369" on="1"/>
        <pt x="163" y="369" on="1"/>
        <pt x="217" y="677" on="1"/>
        <pt x="219" y="687" on="0"/>
        <pt x="236" y="701" on="0"/>
        <pt x="246" y="701" on="1"/>
        <pt x="377" y="701" on="1"/>
        <pt x="522" y="701" on="0"/>
        <pt x="691" y="495" on="0"/>
        <pt x="665" y="350" on="1"/>
        <pt x="648" y="255" on="0"/>
        <pt x="526" y="94" on="0"/>
        <pt x="348" y="1" on="0"/>
        <pt x="253" y="1" on="1"/>
        <pt x="120" y="1" on="1"/>
        <pt x="99" y="3" on="0"/>
        <pt x="102" y="25" on="1"/>
        <pt x="156" y="331" on="1"/>
      </contour>
      <contour>
        <pt x="262" y="50" on="1"/>
        <pt x="387" y="50" on="0"/>
        <pt x="594" y="226" on="0"/>
        <pt x="638" y="475" on="0"/>
        <pt x="493" y="651" on="0"/>
        <pt x="368" y="652" on="1"/>
        <pt x="262" y="652" on="1"/>
        <pt x="212" y="369" on="1"/>
        <pt x="292" y="369" on="1"/>
        <pt x="300" y="369" on="0"/>
        <pt x="309" y="359" on="0"/>
        <pt x="307" y="342" on="0"/>
        <pt x="293" y="331" on="0"/>
        <pt x="285" y="331" on="1"/>
        <pt x="205" y="331" on="1"/>
        <pt x="156" y="50" on="1"/>
      </contour>
    </TTGlyph>
    <TTGlyph name="F" xMin="107" yMin="2" xMax="630" yMax="702">
      <contour>
        <pt x="126" y="2" on="1"/>
        <pt x="102" y="8" on="0"/>
        <pt x="107" y="31" on="1"/>
        <pt x="221" y="682" on="1"/>
        <pt x="224" y="702" on="0"/>
        <pt x="246" y="702" on="1"/>
        <pt x="606" y="702" on="1"/>
        <pt x="616" y="702" on="0"/>
        <pt x="630" y="687" on="0"/>
        <pt x="630" y="667" on="0"/>
        <pt x="616" y="653" on="0"/>
        <pt x="606" y="653" on="1"/>
        <pt x="266" y="653" on="1"/>
        <pt x="217" y="376" on="1"/>
        <pt x="507" y="376" on="1"/>
        <pt x="517" y="376" on="0"/>
        <pt x="531" y="362" on="0"/>
        <pt x="531" y="342" on="0"/>
        <pt x="517" y="327" on="0"/>
        <pt x="507" y="327" on="1"/>
        <pt x="209" y="327" on="1"/>
        <pt x="155" y="22" on="1"/>
        <pt x="154" y="13" on="0"/>
        <pt x="140" y="2" on="0"/>
        <pt x="131" y="2" on="1"/>
      </contour>
    </TTGlyph>
    <TTGlyph name="G" xMin="73" yMin="2" xMax="716" yMax="702">
      <contour>
        <pt x="614" y="77" on="1"/>
        <pt x="505" y="2" on="0"/>
        <pt x="246" y="2" on="0"/>
        <pt x="73" y="170" on="0"/>
        <pt x="73" y="297" on="1"/>
        <pt x="73" y="326" on="0"/>
        <pt x="79" y="356" on="1"/>
        <pt x="96" y="451" on="0"/>
        <pt x="218" y="610" on="0"/>
        <pt x="397" y="702" on="0"/>
        <pt x="495" y="702" on="1"/>
        <pt x="620" y="702" on="0"/>
        <pt x="707" y="625" on="1"/>
        <pt x="715" y="618" on="0"/>
        <pt x="716" y="598" on="0"/>
        <pt x="702" y="582" on="0"/>
        <pt x="682" y="581" on="0"/>
        <pt x="674" y="588" on="1"/>
        <pt x="602" y="653" on="0"/>
        <pt x="495" y="653" on="1"/>
        <pt x="366" y="654" on="0"/>
        <pt x="148" y="473" on="0"/>
        <pt x="127" y="348" on="1"/>
        <pt x="122" y="318" on="0"/>
        <pt x="122" y="297" on="1"/>
        <pt x="123" y="190" on="0"/>
        <pt x="266" y="52" on="0"/>
        <pt x="483" y="51" on="0"/>
        <pt x="579" y="112" on="1"/>
        <pt x="614" y="313" on="1"/>
        <pt x="429" y="313" on="1"/>
        <pt x="419" y="313" on="0"/>
        <pt x="405" y="327" on="0"/>
        <pt x="405" y="347" on="0"/>
        <pt x="419" y="362" on="0"/>
        <pt x="429" y="362" on="1"/>
        <pt x="642" y="362" on="1"/>
        <pt x="656" y="362" on="0"/>
        <pt x="669" y="343" on="0"/>
        <pt x="667" y="333" on="1"/>
        <pt x="625" y="95" on="1"/>
        <pt x="625" y="87" on="0"/>
        <pt x="622" y="87" on="1"/>
        <pt x="622" y="86" on="1"/>
        <pt x="617" y="78" on="0"/>
      </contour>
    </TTGlyph>
    <TTGlyph name="H" xMin="106" yMin="-2" xMax="678" yMax="698">
      <contour>
        <pt x="222" y="687" on="0"/>
        <pt x="239" y="699" on="0"/>
        <pt x="259" y="696" on="0"/>
        <pt x="271" y="679" on="0"/>
        <pt x="269" y="669" on="1"/>
        <pt x="217" y="372" on="1"/>
        <pt x="576" y="372" on="1"/>
        <pt x="630" y="677" on="1"/>
        <pt x="631" y="687" on="0"/>
        <pt x="648" y="699" on="0"/>
        <pt x="668" y="696" on="0"/>
        <pt x="680" y="679" on="0"/>
        <pt x="678" y="669" on="1"/>
        <pt x="563" y="18" on="1"/>
        <pt x="562" y="9" on="0"/>
        <pt x="548" y="-2" on="0"/>
        <pt x="539" y="-2" on="1"/>
        <pt x="535" y="-2" on="1"/>
        <pt x="525" y="-1" on="0"/>
        <pt x="513" y="16" on="0"/>
        <pt x="515" y="26" on="1"/>
        <pt x="567" y="323" on="1"/>
        <pt x="208" y="323" on="1"/>
        <pt x="154" y="18" on="1"/>
        <pt x="151" y="-2" on="0"/>
        <pt x="130" y="-2" on="1"/>
        <pt x="126" y="-2" on="1"/>
        <pt x="116" y="-1" on="0"/>
        <pt x="104" y="16" on="0"/>
        <pt x="106" y="26" on="1"/>
        <pt x="221" y="677" on="1"/>
      </contour>
    </TTGlyph>
    <TTGlyph name="I" xMin="113" yMin="-2" xMax="276" yMax="698">
      <contour>
        <pt x="137" y="-2" on="1"/>
        <pt x="133" y="-2" on="1"/>
        <pt x="123" y="-1" on="0"/>
        <pt x="111" y="16" on="0"/>
        <pt x="113" y="26" on="1"/>
        <pt x="228" y="677" on="1"/>
        <pt x="229" y="687" on="0"/>
        <pt x="246" y="699" on="0"/>
        <pt x="266" y="696" on="0"/>
        <pt x="278" y="679" on="0"/>
        <pt x="276" y="669" on="1"/>
        <pt x="161" y="18" on="1"/>
        <pt x="158" y="-2" on="0"/>
      </contour>
    </TTGlyph>
    <TTGlyph name="Iacute" xMin="113" yMin="-2" xMax="328" yMax="923">
      <contour>
        <pt x="137" y="-2" on="1"/>
        <pt x="133" y="-2" on="1"/>
        <pt x="123" y="-1" on="0"/>
        <pt x="111" y="16" on="0"/>
        <pt x="113" y="26" on="1"/>
        <pt x="228" y="677" on="1"/>
        <pt x="229" y="687" on="0"/>
        <pt x="246" y="699" on="0"/>
        <pt x="266" y="696" on="0"/>
        <pt x="278" y="679" on="0"/>
        <pt x="276" y="669" on="1"/>
        <pt x="161" y="18" on="1"/>
        <pt x="158" y="-2" on="0"/>
      </contour>
      <contour>
        <pt x="251" y="805" on="1"/>
        <pt x="239" y="792" on="0"/>
        <pt x="207" y="792" on="0"/>
        <pt x="207" y="801" on="1"/>
        <pt x="206" y="807" on="0"/>
        <pt x="209" y="812" on="1"/>
        <pt x="258" y="905" on="1"/>
        <pt x="267" y="923" on="0"/>
        <pt x="297" y="923" on="0"/>
        <pt x="327" y="908" on="0"/>
        <pt x="329" y="893" on="0"/>
        <pt x="320" y="882" on="1"/>
      </contour>
    </TTGlyph>
    <TTGlyph name="Icircumflex" xMin="30" yMin="-2" xMax="297" yMax="920">
      <contour>
        <pt x="54" y="-2" on="1"/>
        <pt x="50" y="-2" on="1"/>
        <pt x="40" y="-1" on="0"/>
        <pt x="28" y="16" on="0"/>
        <pt x="30" y="26" on="1"/>
        <pt x="145" y="677" on="1"/>
        <pt x="146" y="687" on="0"/>
        <pt x="163" y="699" on="0"/>
        <pt x="183" y="696" on="0"/>
        <pt x="195" y="679" on="0"/>
        <pt x="193" y="669" on="1"/>
        <pt x="78" y="18" on="1"/>
        <pt x="75" y="-2" on="0"/>
      </contour>
      <contour>
        <pt x="195" y="863" on="1"/>
        <pt x="125" y="805" on="1"/>
        <pt x="108" y="792" on="0"/>
        <pt x="79" y="792" on="0"/>
        <pt x="79" y="802" on="1"/>
        <pt x="81" y="809" on="0"/>
        <pt x="86" y="814" on="1"/>
        <pt x="170" y="902" on="1"/>
        <pt x="186" y="920" on="0"/>
        <pt x="200" y="920" on="1"/>
        <pt x="208" y="920" on="1"/>
        <pt x="221" y="920" on="0"/>
        <pt x="234" y="902" on="1"/>
        <pt x="294" y="814" on="1"/>
        <pt x="298" y="807" on="0"/>
        <pt x="297" y="802" on="1"/>
        <pt x="297" y="792" on="0"/>
        <pt x="263" y="792" on="0"/>
        <pt x="251" y="805" on="1"/>
      </contour>
    </TTGlyph>
    <TTGlyph name="Idieresis" xMin="22" yMin="-2" xMax="185" yMax="698">
      <contour>
        <pt x="46" y="-2" on="1"/>
        <pt x="42" y="-2" on="1"/>
        <pt x="32" y="-1" on="0"/>
        <pt x="20" y="16" on="0"/>
        <pt x="22" y="26" on="1"/>
        <pt x="137" y="677" on="1"/>
        <pt x="138" y="687" on="0"/>
        <pt x="155" y="699" on="0"/>
        <pt x="175" y="696" on="0"/>
        <pt x="187" y="679" on="0"/>
        <pt x="185" y="669" on="1"/>
        <pt x="70" y="18" on="1"/>
        <pt x="67" y="-2" on="0"/>
      </contour>
    </TTGlyph>
    <TTGlyph name="Igrave" xMin="17" yMin="-2" xMax="216" yMax="923">
      <contour>
        <pt x="41" y="-2" on="1"/>
        <pt x="37" y="-2" on="1"/>
        <pt x="27" y="-1" on="0"/>
        <pt x="15" y="16" on="0"/>
        <pt x="17" y="26" on="1"/>
        <pt x="132" y="677" on="1"/>
        <pt x="133" y="687" on="0"/>
        <pt x="150" y="699" on="0"/>
        <pt x="170" y="696" on="0"/>
        <pt x="182" y="679" on="0"/>
        <pt x="180" y="669" on="1"/>
        <pt x="65" y="18" on="1"/>
        <pt x="62" y="-2" on="0"/>
      </contour>
      <contour>
        <pt x="216" y="801" on="1"/>
        <pt x="216" y="792" on="0"/>
        <pt x="184" y="792" on="0"/>
        <pt x="172" y="805" on="1"/>
        <pt x="103" y="882" on="1"/>
        <pt x="94" y="893" on="0"/>
        <pt x="96" y="908" on="0"/>
        <pt x="126" y="923" on="0"/>
        <pt x="156" y="923" on="0"/>
        <pt x="165" y="905" on="1"/>
        <pt x="214" y="812" on="1"/>
        <pt x="217" y="807" on="0"/>
      </contour>
    </TTGlyph>
    <TTGlyph name="J" xMin="44" yMin="-1" xMax="597" yMax="699">
      <contour>
        <pt x="93" y="174" on="1"/>
        <pt x="101" y="118" on="0"/>
        <pt x="183" y="48" on="0"/>
        <pt x="245" y="48" on="1"/>
        <pt x="324" y="47" on="0"/>
        <pt x="458" y="161" on="0"/>
        <pt x="472" y="240" on="1"/>
        <pt x="549" y="678" on="1"/>
        <pt x="550" y="688" on="0"/>
        <pt x="567" y="700" on="0"/>
        <pt x="587" y="697" on="0"/>
        <pt x="599" y="680" on="0"/>
        <pt x="597" y="670" on="1"/>
        <pt x="520" y="232" on="1"/>
        <pt x="502" y="134" on="0"/>
        <pt x="343" y="-1" on="0"/>
        <pt x="245" y="-1" on="1"/>
        <pt x="244" y="-1" on="1"/>
        <pt x="166" y="-1" on="0"/>
        <pt x="55" y="94" on="0"/>
        <pt x="44" y="167" on="1"/>
        <pt x="43" y="177" on="0"/>
        <pt x="55" y="193" on="0"/>
        <pt x="75" y="197" on="0"/>
        <pt x="92" y="184" on="0"/>
      </contour>
    </TTGlyph>
    <TTGlyph name="K" xMin="106" yMin="2" xMax="736" yMax="702">
      <contour>
        <pt x="222" y="691" on="0"/>
        <pt x="239" y="703" on="0"/>
        <pt x="259" y="700" on="0"/>
        <pt x="271" y="683" on="0"/>
        <pt x="269" y="673" on="1"/>
        <pt x="199" y="273" on="1"/>
        <pt x="696" y="696" on="1"/>
        <pt x="703" y="702" on="0"/>
        <pt x="723" y="700" on="0"/>
        <pt x="737" y="686" on="0"/>
        <pt x="735" y="665" on="0"/>
        <pt x="727" y="658" on="1"/>
        <pt x="409" y="387" on="1"/>
        <pt x="634" y="39" on="1"/>
        <pt x="640" y="31" on="0"/>
        <pt x="635" y="11" on="0"/>
        <pt x="621" y="2" on="0"/>
        <pt x="600" y="2" on="0"/>
        <pt x="593" y="13" on="1"/>
        <pt x="371" y="356" on="1"/>
        <pt x="186" y="198" on="1"/>
        <pt x="185" y="198" on="1"/>
        <pt x="154" y="22" on="1"/>
        <pt x="151" y="2" on="0"/>
        <pt x="130" y="2" on="1"/>
        <pt x="126" y="2" on="1"/>
        <pt x="116" y="3" on="0"/>
        <pt x="104" y="20" on="0"/>
        <pt x="106" y="30" on="1"/>
        <pt x="221" y="681" on="1"/>
      </contour>
    </TTGlyph>
    <TTGlyph name="L" xMin="106" yMin="-1" xMax="515" yMax="699">
      <contour>
        <pt x="515" y="33" on="0"/>
        <pt x="515" y="13" on="0"/>
        <pt x="501" y="-1" on="0"/>
        <pt x="490" y="-1" on="1"/>
        <pt x="126" y="-1" on="1"/>
        <pt x="116" y="0" on="0"/>
        <pt x="104" y="17" on="0"/>
        <pt x="106" y="27" on="1"/>
        <pt x="221" y="678" on="1"/>
        <pt x="222" y="688" on="0"/>
        <pt x="239" y="700" on="0"/>
        <pt x="259" y="697" on="0"/>
        <pt x="271" y="680" on="0"/>
        <pt x="269" y="670" on="1"/>
        <pt x="159" y="47" on="1"/>
        <pt x="490" y="47" on="1"/>
        <pt x="500" y="47" on="0"/>
      </contour>
    </TTGlyph>
    <TTGlyph name="M" xMin="106" yMin="-1" xMax="811" yMax="698">
      <contour>
        <pt x="452" y="278" on="1"/>
        <pt x="449" y="278" on="1"/>
        <pt x="434" y="278" on="0"/>
        <pt x="428" y="291" on="1"/>
        <pt x="258" y="603" on="1"/>
        <pt x="155" y="19" on="1"/>
        <pt x="154" y="10" on="0"/>
        <pt x="140" y="-1" on="0"/>
        <pt x="131" y="-1" on="1"/>
        <pt x="126" y="-1" on="1"/>
        <pt x="116" y="0" on="0"/>
        <pt x="104" y="17" on="0"/>
        <pt x="106" y="27" on="1"/>
        <pt x="221" y="678" on="1"/>
        <pt x="223" y="687" on="0"/>
        <pt x="237" y="699" on="0"/>
        <pt x="246" y="698" on="1"/>
        <pt x="260" y="700" on="0"/>
        <pt x="269" y="686" on="1"/>
        <pt x="455" y="342" on="1"/>
        <pt x="767" y="690" on="1"/>
        <pt x="775" y="700" on="0"/>
        <pt x="786" y="698" on="1"/>
        <pt x="789" y="700" on="0"/>
        <pt x="791" y="698" on="1"/>
        <pt x="801" y="697" on="0"/>
        <pt x="813" y="680" on="0"/>
        <pt x="811" y="670" on="1"/>
        <pt x="696" y="19" on="1"/>
        <pt x="693" y="-1" on="0"/>
        <pt x="672" y="-1" on="1"/>
        <pt x="668" y="-1" on="1"/>
        <pt x="658" y="0" on="0"/>
        <pt x="646" y="17" on="0"/>
        <pt x="648" y="27" on="1"/>
        <pt x="749" y="596" on="1"/>
        <pt x="470" y="286" on="1"/>
        <pt x="464" y="278" on="0"/>
      </contour>
    </TTGlyph>
    <TTGlyph name="N" xMin="106" yMin="2" xMax="738" yMax="699">
      <contour>
        <pt x="106" y="30" on="1"/>
        <pt x="220" y="678" on="1"/>
        <pt x="221" y="679" on="1"/>
        <pt x="221" y="690" on="0"/>
        <pt x="233" y="699" on="1"/>
        <pt x="255" y="710" on="0"/>
        <pt x="266" y="689" on="1"/>
        <pt x="588" y="98" on="1"/>
        <pt x="690" y="678" on="1"/>
        <pt x="691" y="688" on="0"/>
        <pt x="708" y="700" on="0"/>
        <pt x="718" y="698" on="1"/>
        <pt x="741" y="693" on="0"/>
        <pt x="738" y="669" on="1"/>
        <pt x="624" y="22" on="1"/>
        <pt x="623" y="13" on="0"/>
        <pt x="608" y="2" on="0"/>
        <pt x="600" y="2" on="1"/>
        <pt x="596" y="2" on="1"/>
        <pt x="585" y="3" on="0"/>
        <pt x="578" y="16" on="0"/>
        <pt x="576" y="18" on="1"/>
        <pt x="257" y="604" on="1"/>
        <pt x="154" y="22" on="1"/>
        <pt x="151" y="2" on="0"/>
        <pt x="130" y="2" on="1"/>
        <pt x="126" y="2" on="1"/>
        <pt x="116" y="3" on="0"/>
        <pt x="104" y="20" on="0"/>
      </contour>
    </TTGlyph>
    <TTGlyph name="Ntilde" xMin="106" yMin="2" xMax="738" yMax="899">
      <component glyphName="N" x="0" y="0" flags="0x1004"/>
      <component glyphName="tilde" x="282" y="200" flags="0x1004"/>
    </TTGlyph>
    <TTGlyph name="O" xMin="73" yMin="0" xMax="746" yMax="700">
      <contour>
        <pt x="467" y="700" on="1"/>
        <pt x="589" y="700" on="0"/>
        <pt x="746" y="533" on="0"/>
        <pt x="746" y="410" on="1"/>
        <pt x="746" y="378" on="0"/>
        <pt x="740" y="345" on="1"/>
        <pt x="716" y="350" on="1"/>
        <pt x="740" y="345" on="1"/>
        <pt x="714" y="201" on="0"/>
        <pt x="489" y="0" on="0"/>
        <pt x="229" y="0" on="0"/>
        <pt x="73" y="164" on="0"/>
        <pt x="73" y="289" on="1"/>
        <pt x="73" y="321" on="0"/>
        <pt x="79" y="354" on="1"/>
        <pt x="105" y="498" on="0"/>
        <pt x="329" y="699" on="0"/>
      </contour>
      <contour>
        <pt x="692" y="354" on="1"/>
        <pt x="697" y="386" on="0"/>
        <pt x="697" y="410" on="1"/>
        <pt x="696" y="515" on="0"/>
        <pt x="568" y="650" on="0"/>
        <pt x="467" y="651" on="1"/>
        <pt x="465" y="651" on="1"/>
        <pt x="349" y="651" on="0"/>
        <pt x="149" y="471" on="0"/>
        <pt x="127" y="345" on="1"/>
        <pt x="122" y="313" on="0"/>
        <pt x="122" y="289" on="1"/>
        <pt x="123" y="184" on="0"/>
        <pt x="251" y="49" on="0"/>
        <pt x="352" y="48" on="1"/>
        <pt x="469" y="48" on="0"/>
        <pt x="670" y="228" on="0"/>
      </contour>
    </TTGlyph>
    <TTGlyph name="OE" xMin="37" yMin="0" xMax="1136" yMax="710">
      <contour>
        <pt x="613" y="24" on="1"/>
        <pt x="642" y="189" on="1"/>
        <pt x="584" y="103" on="0"/>
        <pt x="407" y="0" on="0"/>
        <pt x="312" y="0" on="1"/>
        <pt x="171" y="0" on="0"/>
        <pt x="11" y="207" on="0"/>
        <pt x="37" y="355" on="1"/>
        <pt x="64" y="503" on="0"/>
        <pt x="297" y="710" on="0"/>
        <pt x="438" y="710" on="1"/>
        <pt x="533" y="710" on="0"/>
        <pt x="672" y="607" on="0"/>
        <pt x="700" y="521" on="1"/>
        <pt x="728" y="676" on="1"/>
        <pt x="729" y="686" on="0"/>
        <pt x="746" y="700" on="0"/>
        <pt x="756" y="700" on="1"/>
        <pt x="1116" y="700" on="1"/>
        <pt x="1126" y="700" on="0"/>
        <pt x="1138" y="686" on="0"/>
        <pt x="1134" y="665" on="0"/>
        <pt x="1117" y="651" on="0"/>
        <pt x="1107" y="651" on="1"/>
        <pt x="772" y="651" on="1"/>
        <pt x="723" y="374" on="1"/>
        <pt x="1016" y="374" on="1"/>
        <pt x="1026" y="374" on="0"/>
        <pt x="1037" y="359" on="0"/>
        <pt x="1035" y="339" on="0"/>
        <pt x="1018" y="325" on="0"/>
        <pt x="1008" y="325" on="1"/>
        <pt x="715" y="325" on="1"/>
        <pt x="666" y="49" on="1"/>
        <pt x="1001" y="49" on="1"/>
        <pt x="1011" y="49" on="0"/>
        <pt x="1023" y="35" on="0"/>
        <pt x="1021" y="24" on="1"/>
        <pt x="1015" y="0" on="0"/>
        <pt x="992" y="0" on="1"/>
        <pt x="630" y="0" on="1"/>
        <pt x="621" y="1" on="0"/>
        <pt x="611" y="15" on="0"/>
      </contour>
      <contour>
        <pt x="309" y="660" on="0"/>
        <pt x="108" y="484" on="0"/>
        <pt x="64" y="227" on="0"/>
        <pt x="201" y="49" on="0"/>
        <pt x="437" y="49" on="0"/>
        <pt x="637" y="228" on="0"/>
        <pt x="682" y="484" on="0"/>
        <pt x="546" y="660" on="0"/>
      </contour>
    </TTGlyph>
    <TTGlyph name="Oacute" xMin="73" yMin="0" xMax="746" yMax="923">
      <contour>
        <pt x="467" y="700" on="1"/>
        <pt x="589" y="700" on="0"/>
        <pt x="746" y="533" on="0"/>
        <pt x="746" y="410" on="1"/>
        <pt x="746" y="378" on="0"/>
        <pt x="740" y="345" on="1"/>
        <pt x="716" y="350" on="1"/>
        <pt x="740" y="345" on="1"/>
        <pt x="714" y="201" on="0"/>
        <pt x="489" y="0" on="0"/>
        <pt x="229" y="0" on="0"/>
        <pt x="73" y="164" on="0"/>
        <pt x="73" y="289" on="1"/>
        <pt x="73" y="321" on="0"/>
        <pt x="79" y="354" on="1"/>
        <pt x="105" y="498" on="0"/>
        <pt x="329" y="699" on="0"/>
      </contour>
      <contour>
        <pt x="692" y="354" on="1"/>
        <pt x="697" y="386" on="0"/>
        <pt x="697" y="410" on="1"/>
        <pt x="696" y="515" on="0"/>
        <pt x="568" y="650" on="0"/>
        <pt x="467" y="651" on="1"/>
        <pt x="465" y="651" on="1"/>
        <pt x="349" y="651" on="0"/>
        <pt x="149" y="471" on="0"/>
        <pt x="127" y="345" on="1"/>
        <pt x="122" y="313" on="0"/>
        <pt x="122" y="289" on="1"/>
        <pt x="123" y="184" on="0"/>
        <pt x="251" y="49" on="0"/>
        <pt x="352" y="48" on="1"/>
        <pt x="469" y="48" on="0"/>
        <pt x="670" y="228" on="0"/>
      </contour>
      <contour>
        <pt x="495" y="805" on="1"/>
        <pt x="483" y="792" on="0"/>
        <pt x="451" y="792" on="0"/>
        <pt x="451" y="801" on="1"/>
        <pt x="450" y="807" on="0"/>
        <pt x="453" y="812" on="1"/>
        <pt x="502" y="905" on="1"/>
        <pt x="511" y="923" on="0"/>
        <pt x="541" y="923" on="0"/>
        <pt x="571" y="908" on="0"/>
        <pt x="573" y="893" on="0"/>
        <pt x="564" y="882" on="1"/>
      </contour>
    </TTGlyph>
    <TTGlyph name="Ocircumflex" xMin="73" yMin="0" xMax="746" yMax="920">
      <component glyphName="O" x="0" y="0" flags="0x1004"/>
      <component glyphName="circumflex" x="276" y="200" flags="0x1004"/>
    </TTGlyph>
    <TTGlyph name="Odieresis" xMin="73" yMin="0" xMax="746" yMax="880">
      <component glyphName="O" x="0" y="0" flags="0x1004"/>
      <component glyphName="dieresis" x="313" y="200" flags="0x1004"/>
    </TTGlyph>
    <TTGlyph name="Ograve" xMin="73" yMin="0" xMax="746" yMax="923">
      <component glyphName="O" x="0" y="0" flags="0x1004"/>
      <component glyphName="grave" x="325" y="200" flags="0x1004"/>
    </TTGlyph>
    <TTGlyph name="Oslash" xMin="75" yMin="-3" xMax="864" yMax="721">
      <contour>
        <pt x="405" y="-3" on="1"/>
        <pt x="272" y="-3" on="0"/>
        <pt x="192" y="79" on="1"/>
        <pt x="112" y="8" on="1"/>
        <pt x="102" y="0" on="0"/>
        <pt x="84" y="0" on="0"/>
        <pt x="74" y="12" on="0"/>
        <pt x="77" y="31" on="0"/>
        <pt x="84" y="37" on="1"/>
        <pt x="165" y="110" on="1"/>
        <pt x="92" y="215" on="0"/>
        <pt x="118" y="357" on="1"/>
        <pt x="118" y="359" on="1"/>
        <pt x="144" y="507" on="0"/>
        <pt x="380" y="721" on="0"/>
        <pt x="535" y="721" on="1"/>
        <pt x="667" y="721" on="0"/>
        <pt x="748" y="638" on="1"/>
        <pt x="828" y="710" on="1"/>
        <pt x="838" y="718" on="0"/>
        <pt x="856" y="718" on="0"/>
        <pt x="866" y="706" on="0"/>
        <pt x="862" y="686" on="0"/>
        <pt x="856" y="681" on="1"/>
        <pt x="774" y="607" on="1"/>
        <pt x="848" y="504" on="0"/>
        <pt x="822" y="361" on="1"/>
        <pt x="822" y="359" on="1"/>
        <pt x="796" y="211" on="0"/>
        <pt x="560" y="-3" on="0"/>
      </contour>
      <contour>
        <pt x="172" y="359" on="1"/>
        <pt x="151" y="237" on="0"/>
        <pt x="209" y="149" on="1"/>
        <pt x="707" y="599" on="1"/>
        <pt x="637" y="674" on="0"/>
        <pt x="396" y="674" on="0"/>
        <pt x="196" y="493" on="0"/>
        <pt x="172" y="361" on="1"/>
      </contour>
      <contour>
        <pt x="232" y="119" on="1"/>
        <pt x="301" y="44" on="0"/>
        <pt x="543" y="44" on="0"/>
        <pt x="744" y="226" on="0"/>
        <pt x="768" y="357" on="1"/>
        <pt x="768" y="359" on="1"/>
        <pt x="789" y="478" on="0"/>
        <pt x="731" y="568" on="1"/>
      </contour>
    </TTGlyph>
    <TTGlyph name="Otilde" xMin="73" yMin="0" xMax="746" yMax="899">
      <contour>
        <pt x="467" y="700" on="1"/>
        <pt x="589" y="700" on="0"/>
        <pt x="746" y="533" on="0"/>
        <pt x="746" y="410" on="1"/>
        <pt x="746" y="378" on="0"/>
        <pt x="740" y="345" on="1"/>
        <pt x="716" y="350" on="1"/>
        <pt x="740" y="345" on="1"/>
        <pt x="714" y="201" on="0"/>
        <pt x="489" y="0" on="0"/>
        <pt x="229" y="0" on="0"/>
        <pt x="73" y="164" on="0"/>
        <pt x="73" y="289" on="1"/>
        <pt x="73" y="321" on="0"/>
        <pt x="79" y="354" on="1"/>
        <pt x="105" y="498" on="0"/>
        <pt x="329" y="699" on="0"/>
      </contour>
      <contour>
        <pt x="692" y="354" on="1"/>
        <pt x="697" y="386" on="0"/>
        <pt x="697" y="410" on="1"/>
        <pt x="696" y="515" on="0"/>
        <pt x="568" y="650" on="0"/>
        <pt x="467" y="651" on="1"/>
        <pt x="465" y="651" on="1"/>
        <pt x="349" y="651" on="0"/>
        <pt x="149" y="471" on="0"/>
        <pt x="127" y="345" on="1"/>
        <pt x="122" y="313" on="0"/>
        <pt x="122" y="289" on="1"/>
        <pt x="123" y="184" on="0"/>
        <pt x="251" y="49" on="0"/>
        <pt x="352" y="48" on="1"/>
        <pt x="469" y="48" on="0"/>
        <pt x="670" y="228" on="0"/>
      </contour>
      <contour>
        <pt x="423" y="798" on="1"/>
        <pt x="414" y="784" on="0"/>
        <pt x="395" y="784" on="0"/>
        <pt x="386" y="794" on="0"/>
        <pt x="387" y="801" on="1"/>
        <pt x="391" y="813" on="1"/>
        <pt x="410" y="855" on="0"/>
        <pt x="452" y="888" on="0"/>
        <pt x="500" y="888" on="0"/>
        <pt x="586" y="847" on="0"/>
        <pt x="602" y="847" on="1"/>
        <pt x="631" y="847" on="0"/>
        <pt x="652" y="885" on="1"/>
        <pt x="661" y="899" on="0"/>
        <pt x="680" y="899" on="0"/>
        <pt x="684" y="894" on="1"/>
        <pt x="693" y="884" on="0"/>
        <pt x="684" y="870" on="1"/>
        <pt x="665" y="828" on="0"/>
        <pt x="623" y="795" on="0"/>
        <pt x="575" y="795" on="0"/>
        <pt x="490" y="836" on="0"/>
        <pt x="473" y="836" on="1"/>
        <pt x="444" y="836" on="0"/>
      </contour>
    </TTGlyph>
    <TTGlyph name="P" xMin="106" yMin="0" xMax="614" yMax="700">
      <contour>
        <pt x="245" y="700" on="1"/>
        <pt x="443" y="700" on="1"/>
        <pt x="517" y="700" on="0"/>
        <pt x="566" y="651" on="1"/>
        <pt x="614" y="605" on="0"/>
        <pt x="614" y="531" on="1"/>
        <pt x="614" y="514" on="0"/>
        <pt x="611" y="496" on="1"/>
        <pt x="596" y="414" on="0"/>
        <pt x="463" y="301" on="0"/>
        <pt x="381" y="300" on="1"/>
        <pt x="203" y="300" on="1"/>
        <pt x="154" y="20" on="1"/>
        <pt x="151" y="0" on="0"/>
        <pt x="130" y="0" on="1"/>
        <pt x="117" y="0" on="0"/>
        <pt x="104" y="19" on="0"/>
        <pt x="106" y="29" on="1"/>
        <pt x="221" y="680" on="1"/>
        <pt x="222" y="689" on="0"/>
        <pt x="236" y="700" on="0"/>
      </contour>
      <contour>
        <pt x="565" y="531" on="1"/>
        <pt x="565" y="584" on="0"/>
        <pt x="498" y="650" on="0"/>
        <pt x="443" y="651" on="1"/>
        <pt x="265" y="651" on="1"/>
        <pt x="212" y="349" on="1"/>
        <pt x="381" y="349" on="1"/>
        <pt x="443" y="348" on="0"/>
        <pt x="498" y="394" on="1"/>
        <pt x="565" y="451" on="0"/>
      </contour>
    </TTGlyph>
    <TTGlyph name="Q" xMin="98" yMin="-144" xMax="767" yMax="710">
      <contour>
        <pt x="764" y="-50" on="1"/>
        <pt x="774" y="-69" on="0"/>
        <pt x="753" y="-85" on="1"/>
        <pt x="667" y="-144" on="0"/>
        <pt x="585" y="-144" on="1"/>
        <pt x="584" y="-144" on="1"/>
        <pt x="508" y="-144" on="0"/>
        <pt x="420" y="-87" on="1"/>
        <pt x="388" y="-65" on="0"/>
        <pt x="311" y="-65" on="0"/>
        <pt x="254" y="-81" on="0"/>
        <pt x="244" y="-87" on="1"/>
        <pt x="243" y="-87" on="1"/>
        <pt x="228" y="-95" on="0"/>
        <pt x="216" y="-85" on="1"/>
        <pt x="215" y="-85" on="1"/>
        <pt x="196" y="-55" on="0"/>
        <pt x="228" y="-40" on="1"/>
        <pt x="328" y="2" on="1"/>
        <pt x="206" y="19" on="0"/>
        <pt x="74" y="220" on="0"/>
        <pt x="123" y="500" on="0"/>
        <pt x="356" y="709" on="0"/>
        <pt x="495" y="710" on="1"/>
        <pt x="587" y="709" on="0"/>
        <pt x="725" y="613" on="0"/>
        <pt x="785" y="449" on="0"/>
        <pt x="749" y="246" on="0"/>
        <pt x="603" y="68" on="0"/>
        <pt x="505" y="26" on="1"/>
        <pt x="396" y="-20" on="1"/>
        <pt x="426" y="-26" on="0"/>
        <pt x="452" y="-44" on="1"/>
        <pt x="530" y="-95" on="0"/>
        <pt x="655" y="-95" on="0"/>
        <pt x="730" y="-46" on="1"/>
        <pt x="739" y="-39" on="0"/>
        <pt x="759" y="-41" on="0"/>
      </contour>
      <contour>
        <pt x="369" y="660" on="0"/>
        <pt x="169" y="481" on="0"/>
        <pt x="124" y="227" on="0"/>
        <pt x="261" y="48" on="0"/>
        <pt x="496" y="48" on="0"/>
        <pt x="697" y="227" on="0"/>
        <pt x="742" y="481" on="0"/>
        <pt x="604" y="660" on="0"/>
      </contour>
    </TTGlyph>
    <TTGlyph name="R" xMin="92" yMin="0" xMax="601" yMax="700">
      <contour>
        <pt x="480" y="186" on="1"/>
        <pt x="479" y="236" on="0"/>
        <pt x="434" y="270" on="1"/>
        <pt x="406" y="290" on="0"/>
        <pt x="367" y="300" on="1"/>
        <pt x="190" y="300" on="1"/>
        <pt x="141" y="20" on="1"/>
        <pt x="137" y="0" on="0"/>
        <pt x="117" y="0" on="1"/>
        <pt x="103" y="0" on="0"/>
        <pt x="90" y="19" on="0"/>
        <pt x="92" y="29" on="1"/>
        <pt x="207" y="680" on="1"/>
        <pt x="210" y="700" on="0"/>
        <pt x="232" y="700" on="1"/>
        <pt x="429" y="700" on="1"/>
        <pt x="505" y="700" on="0"/>
        <pt x="552" y="651" on="1"/>
        <pt x="601" y="604" on="0"/>
        <pt x="601" y="531" on="1"/>
        <pt x="601" y="453" on="0"/>
        <pt x="547" y="388" on="1"/>
        <pt x="507" y="341" on="0"/>
        <pt x="451" y="317" on="1"/>
        <pt x="529" y="270" on="0"/>
        <pt x="528" y="186" on="1"/>
        <pt x="528" y="175" on="0"/>
        <pt x="526" y="153" on="1"/>
        <pt x="519" y="117" on="0"/>
        <pt x="519" y="68" on="0"/>
        <pt x="524" y="60" on="1"/>
        <pt x="543" y="62" on="0"/>
        <pt x="550" y="42" on="1"/>
        <pt x="553" y="32" on="0"/>
        <pt x="543" y="15" on="0"/>
        <pt x="533" y="12" on="1"/>
        <pt x="531" y="10" on="0"/>
        <pt x="522" y="10" on="1"/>
        <pt x="521" y="10" on="1"/>
        <pt x="499" y="10" on="0"/>
        <pt x="470" y="51" on="0"/>
        <pt x="470" y="121" on="0"/>
        <pt x="480" y="174" on="0"/>
      </contour>
      <contour>
        <pt x="252" y="651" on="1"/>
        <pt x="199" y="349" on="1"/>
        <pt x="367" y="349" on="1"/>
        <pt x="430" y="348" on="0"/>
        <pt x="539" y="441" on="0"/>
        <pt x="550" y="504" on="1"/>
        <pt x="552" y="522" on="0"/>
        <pt x="552" y="531" on="1"/>
        <pt x="551" y="584" on="0"/>
        <pt x="484" y="650" on="0"/>
        <pt x="429" y="651" on="1"/>
      </contour>
    </TTGlyph>
    <TTGlyph name="S" xMin="67" yMin="0" xMax="630" yMax="700">
      <contour>
        <pt x="73" y="100" on="1"/>
        <pt x="67" y="105" on="0"/>
        <pt x="68" y="123" on="0"/>
        <pt x="82" y="137" on="0"/>
        <pt x="100" y="139" on="0"/>
        <pt x="106" y="133" on="1"/>
        <pt x="202" y="44" on="0"/>
        <pt x="316" y="44" on="1"/>
        <pt x="405" y="44" on="0"/>
        <pt x="544" y="134" on="0"/>
        <pt x="563" y="248" on="0"/>
        <pt x="468" y="321" on="0"/>
        <pt x="364" y="342" on="1"/>
        <pt x="362" y="342" on="1"/>
        <pt x="136" y="387" on="0"/>
        <pt x="161" y="521" on="1"/>
        <pt x="174" y="598" on="0"/>
        <pt x="332" y="700" on="0"/>
        <pt x="429" y="700" on="1"/>
        <pt x="471" y="700" on="0"/>
        <pt x="553" y="672" on="0"/>
        <pt x="597" y="644" on="0"/>
        <pt x="629" y="620" on="1"/>
        <pt x="645" y="609" on="0"/>
        <pt x="630" y="590" on="1"/>
        <pt x="614" y="572" on="0"/>
        <pt x="598" y="584" on="1"/>
        <pt x="565" y="608" on="0"/>
        <pt x="527" y="632" on="0"/>
        <pt x="457" y="657" on="0"/>
        <pt x="422" y="657" on="1"/>
        <pt x="341" y="657" on="0"/>
        <pt x="275" y="615" on="1"/>
        <pt x="213" y="574" on="0"/>
        <pt x="195" y="471" on="0"/>
        <pt x="287" y="402" on="0"/>
        <pt x="378" y="385" on="1"/>
        <pt x="380" y="385" on="1"/>
        <pt x="488" y="364" on="0"/>
        <pt x="544" y="322" on="1"/>
        <pt x="611" y="272" on="0"/>
        <pt x="582" y="109" on="0"/>
        <pt x="495" y="55" on="1"/>
        <pt x="411" y="0" on="0"/>
        <pt x="308" y="0" on="1"/>
        <pt x="176" y="1" on="0"/>
      </contour>
    </TTGlyph>
    <TTGlyph name="Scaron" xMin="67" yMin="0" xMax="630" yMax="920">
      <contour>
        <pt x="485" y="849" on="1"/>
        <pt x="555" y="907" on="1"/>
        <pt x="572" y="920" on="0"/>
        <pt x="601" y="920" on="0"/>
        <pt x="601" y="910" on="1"/>
        <pt x="599" y="903" on="0"/>
        <pt x="594" y="898" on="1"/>
        <pt x="510" y="810" on="1"/>
        <pt x="494" y="792" on="0"/>
        <pt x="480" y="792" on="1"/>
        <pt x="472" y="792" on="1"/>
        <pt x="459" y="792" on="0"/>
        <pt x="446" y="810" on="1"/>
        <pt x="386" y="898" on="1"/>
        <pt x="382" y="905" on="0"/>
        <pt x="383" y="910" on="1"/>
        <pt x="383" y="920" on="0"/>
        <pt x="417" y="920" on="0"/>
        <pt x="429" y="907" on="1"/>
      </contour>
      <contour>
        <pt x="73" y="100" on="1"/>
        <pt x="176" y="1" on="0"/>
        <pt x="308" y="0" on="1"/>
        <pt x="411" y="0" on="0"/>
        <pt x="495" y="55" on="1"/>
        <pt x="582" y="109" on="0"/>
        <pt x="596" y="190" on="1"/>
        <pt x="623" y="338" on="0"/>
        <pt x="380" y="385" on="1"/>
        <pt x="378" y="385" on="1"/>
        <pt x="287" y="402" on="0"/>
        <pt x="195" y="471" on="0"/>
        <pt x="213" y="574" on="0"/>
        <pt x="275" y="615" on="1"/>
        <pt x="341" y="657" on="0"/>
        <pt x="422" y="657" on="1"/>
        <pt x="457" y="657" on="0"/>
        <pt x="527" y="632" on="0"/>
        <pt x="565" y="608" on="0"/>
        <pt x="598" y="584" on="1"/>
        <pt x="614" y="572" on="0"/>
        <pt x="630" y="590" on="1"/>
        <pt x="645" y="609" on="0"/>
        <pt x="629" y="620" on="1"/>
        <pt x="597" y="644" on="0"/>
        <pt x="553" y="672" on="0"/>
        <pt x="471" y="700" on="0"/>
        <pt x="429" y="700" on="1"/>
        <pt x="332" y="700" on="0"/>
        <pt x="174" y="598" on="0"/>
        <pt x="160" y="522" on="1"/>
        <pt x="136" y="387" on="0"/>
        <pt x="362" y="342" on="1"/>
        <pt x="364" y="342" on="1"/>
        <pt x="468" y="321" on="0"/>
        <pt x="563" y="248" on="0"/>
        <pt x="544" y="134" on="0"/>
        <pt x="405" y="44" on="0"/>
        <pt x="316" y="44" on="1"/>
        <pt x="202" y="44" on="0"/>
        <pt x="106" y="133" on="1"/>
        <pt x="100" y="139" on="0"/>
        <pt x="82" y="137" on="0"/>
        <pt x="68" y="123" on="0"/>
        <pt x="67" y="105" on="0"/>
      </contour>
    </TTGlyph>
    <TTGlyph name="T" xMin="50" yMin="1" xMax="569" yMax="701">
      <contour>
        <pt x="219" y="21" on="1"/>
        <pt x="215" y="1" on="0"/>
        <pt x="182" y="1" on="0"/>
        <pt x="169" y="20" on="0"/>
        <pt x="171" y="30" on="1"/>
        <pt x="280" y="652" on="1"/>
        <pt x="74" y="652" on="1"/>
        <pt x="64" y="652" on="0"/>
        <pt x="50" y="667" on="0"/>
        <pt x="50" y="687" on="0"/>
        <pt x="64" y="701" on="0"/>
        <pt x="74" y="701" on="1"/>
        <pt x="545" y="701" on="1"/>
        <pt x="555" y="701" on="0"/>
        <pt x="569" y="687" on="0"/>
        <pt x="569" y="667" on="0"/>
        <pt x="555" y="652" on="0"/>
        <pt x="545" y="652" on="1"/>
        <pt x="330" y="652" on="1"/>
      </contour>
    </TTGlyph>
    <TTGlyph name="U" xMin="105" yMin="1" xMax="744" yMax="701">
      <contour>
        <pt x="724" y="701" on="1"/>
        <pt x="747" y="696" on="0"/>
        <pt x="744" y="672" on="1"/>
        <pt x="674" y="280" on="1"/>
        <pt x="653" y="164" on="0"/>
        <pt x="463" y="2" on="0"/>
        <pt x="347" y="1" on="1"/>
        <pt x="346" y="1" on="1"/>
        <pt x="243" y="1" on="0"/>
        <pt x="173" y="69" on="1"/>
        <pt x="105" y="137" on="0"/>
        <pt x="105" y="239" on="1"/>
        <pt x="105" y="260" on="0"/>
        <pt x="110" y="288" on="1"/>
        <pt x="179" y="681" on="1"/>
        <pt x="180" y="691" on="0"/>
        <pt x="197" y="703" on="0"/>
        <pt x="207" y="701" on="1"/>
        <pt x="230" y="696" on="0"/>
        <pt x="227" y="672" on="1"/>
        <pt x="158" y="280" on="1"/>
        <pt x="154" y="261" on="0"/>
        <pt x="154" y="239" on="1"/>
        <pt x="155" y="157" on="0"/>
        <pt x="261" y="51" on="0"/>
        <pt x="444" y="49" on="0"/>
        <pt x="610" y="191" on="0"/>
        <pt x="626" y="288" on="1"/>
        <pt x="696" y="681" on="1"/>
        <pt x="697" y="691" on="0"/>
        <pt x="714" y="703" on="0"/>
      </contour>
    </TTGlyph>
    <TTGlyph name="Uacute" xMin="93" yMin="1" xMax="732" yMax="923">
      <contour>
        <pt x="712" y="701" on="1"/>
        <pt x="735" y="696" on="0"/>
        <pt x="732" y="672" on="1"/>
        <pt x="662" y="280" on="1"/>
        <pt x="641" y="164" on="0"/>
        <pt x="451" y="2" on="0"/>
        <pt x="335" y="1" on="1"/>
        <pt x="334" y="1" on="1"/>
        <pt x="231" y="1" on="0"/>
        <pt x="161" y="69" on="1"/>
        <pt x="93" y="137" on="0"/>
        <pt x="93" y="239" on="1"/>
        <pt x="93" y="260" on="0"/>
        <pt x="98" y="288" on="1"/>
        <pt x="167" y="681" on="1"/>
        <pt x="168" y="691" on="0"/>
        <pt x="185" y="703" on="0"/>
        <pt x="195" y="701" on="1"/>
        <pt x="218" y="696" on="0"/>
        <pt x="215" y="672" on="1"/>
        <pt x="146" y="280" on="1"/>
        <pt x="142" y="261" on="0"/>
        <pt x="142" y="239" on="1"/>
        <pt x="143" y="157" on="0"/>
        <pt x="249" y="51" on="0"/>
        <pt x="432" y="49" on="0"/>
        <pt x="598" y="191" on="0"/>
        <pt x="614" y="288" on="1"/>
        <pt x="684" y="681" on="1"/>
        <pt x="685" y="691" on="0"/>
        <pt x="702" y="703" on="0"/>
      </contour>
      <contour>
        <pt x="481" y="805" on="1"/>
        <pt x="469" y="792" on="0"/>
        <pt x="437" y="792" on="0"/>
        <pt x="437" y="801" on="1"/>
        <pt x="436" y="807" on="0"/>
        <pt x="439" y="812" on="1"/>
        <pt x="488" y="905" on="1"/>
        <pt x="497" y="923" on="0"/>
        <pt x="527" y="923" on="0"/>
        <pt x="557" y="908" on="0"/>
        <pt x="559" y="893" on="0"/>
        <pt x="550" y="882" on="1"/>
      </contour>
    </TTGlyph>
    <TTGlyph name="Ucircumflex" xMin="93" yMin="1" xMax="732" yMax="920">
      <contour>
        <pt x="712" y="701" on="1"/>
        <pt x="735" y="696" on="0"/>
        <pt x="732" y="672" on="1"/>
        <pt x="662" y="280" on="1"/>
        <pt x="641" y="164" on="0"/>
        <pt x="451" y="2" on="0"/>
        <pt x="335" y="1" on="1"/>
        <pt x="334" y="1" on="1"/>
        <pt x="231" y="1" on="0"/>
        <pt x="161" y="69" on="1"/>
        <pt x="93" y="137" on="0"/>
        <pt x="93" y="239" on="1"/>
        <pt x="93" y="260" on="0"/>
        <pt x="98" y="288" on="1"/>
        <pt x="167" y="681" on="1"/>
        <pt x="168" y="691" on="0"/>
        <pt x="185" y="703" on="0"/>
        <pt x="195" y="701" on="1"/>
        <pt x="218" y="696" on="0"/>
        <pt x="215" y="672" on="1"/>
        <pt x="146" y="280" on="1"/>
        <pt x="142" y="261" on="0"/>
        <pt x="142" y="239" on="1"/>
        <pt x="143" y="157" on="0"/>
        <pt x="249" y="51" on="0"/>
        <pt x="432" y="49" on="0"/>
        <pt x="598" y="191" on="0"/>
        <pt x="614" y="288" on="1"/>
        <pt x="684" y="681" on="1"/>
        <pt x="685" y="691" on="0"/>
        <pt x="702" y="703" on="0"/>
      </contour>
      <contour>
        <pt x="500" y="863" on="1"/>
        <pt x="430" y="805" on="1"/>
        <pt x="413" y="792" on="0"/>
        <pt x="384" y="792" on="0"/>
        <pt x="384" y="802" on="1"/>
        <pt x="386" y="809" on="0"/>
        <pt x="391" y="814" on="1"/>
        <pt x="475" y="902" on="1"/>
        <pt x="491" y="920" on="0"/>
        <pt x="505" y="920" on="1"/>
        <pt x="513" y="920" on="1"/>
        <pt x="526" y="920" on="0"/>
        <pt x="539" y="902" on="1"/>
        <pt x="599" y="814" on="1"/>
        <pt x="603" y="807" on="0"/>
        <pt x="602" y="802" on="1"/>
        <pt x="602" y="792" on="0"/>
        <pt x="568" y="792" on="0"/>
        <pt x="556" y="805" on="1"/>
      </contour>
    </TTGlyph>
    <TTGlyph name="Udieresis" xMin="105" yMin="1" xMax="744" yMax="880">
      <contour>
        <pt x="724" y="701" on="1"/>
        <pt x="747" y="696" on="0"/>
        <pt x="744" y="672" on="1"/>
        <pt x="674" y="280" on="1"/>
        <pt x="653" y="164" on="0"/>
        <pt x="463" y="2" on="0"/>
        <pt x="347" y="1" on="1"/>
        <pt x="346" y="1" on="1"/>
        <pt x="243" y="1" on="0"/>
        <pt x="173" y="69" on="1"/>
        <pt x="105" y="137" on="0"/>
        <pt x="105" y="239" on="1"/>
        <pt x="105" y="260" on="0"/>
        <pt x="110" y="288" on="1"/>
        <pt x="179" y="681" on="1"/>
        <pt x="180" y="691" on="0"/>
        <pt x="197" y="703" on="0"/>
        <pt x="207" y="701" on="1"/>
        <pt x="230" y="696" on="0"/>
        <pt x="227" y="672" on="1"/>
        <pt x="158" y="280" on="1"/>
        <pt x="154" y="261" on="0"/>
        <pt x="154" y="239" on="1"/>
        <pt x="155" y="157" on="0"/>
        <pt x="261" y="51" on="0"/>
        <pt x="444" y="49" on="0"/>
        <pt x="610" y="191" on="0"/>
        <pt x="626" y="288" on="1"/>
        <pt x="696" y="681" on="1"/>
        <pt x="697" y="691" on="0"/>
        <pt x="714" y="703" on="0"/>
      </contour>
      <contour>
        <pt x="377" y="837" on="1"/>
        <pt x="380" y="855" on="0"/>
        <pt x="409" y="880" on="0"/>
        <pt x="445" y="880" on="0"/>
        <pt x="466" y="855" on="0"/>
        <pt x="459" y="819" on="0"/>
        <pt x="430" y="794" on="0"/>
        <pt x="394" y="794" on="0"/>
        <pt x="373" y="819" on="0"/>
      </contour>
      <contour>
        <pt x="542" y="837" on="1"/>
        <pt x="545" y="855" on="0"/>
        <pt x="574" y="880" on="0"/>
        <pt x="610" y="880" on="0"/>
        <pt x="631" y="855" on="0"/>
        <pt x="624" y="819" on="0"/>
        <pt x="595" y="794" on="0"/>
        <pt x="559" y="794" on="0"/>
        <pt x="538" y="819" on="0"/>
      </contour>
    </TTGlyph>
    <TTGlyph name="Ugrave" xMin="93" yMin="1" xMax="732" yMax="923">
      <contour>
        <pt x="712" y="701" on="1"/>
        <pt x="735" y="696" on="0"/>
        <pt x="732" y="672" on="1"/>
        <pt x="662" y="280" on="1"/>
        <pt x="641" y="164" on="0"/>
        <pt x="451" y="2" on="0"/>
        <pt x="335" y="1" on="1"/>
        <pt x="334" y="1" on="1"/>
        <pt x="231" y="1" on="0"/>
        <pt x="161" y="69" on="1"/>
        <pt x="93" y="137" on="0"/>
        <pt x="93" y="239" on="1"/>
        <pt x="93" y="260" on="0"/>
        <pt x="98" y="288" on="1"/>
        <pt x="167" y="681" on="1"/>
        <pt x="168" y="691" on="0"/>
        <pt x="185" y="703" on="0"/>
        <pt x="195" y="701" on="1"/>
        <pt x="218" y="696" on="0"/>
        <pt x="215" y="672" on="1"/>
        <pt x="146" y="280" on="1"/>
        <pt x="142" y="261" on="0"/>
        <pt x="142" y="239" on="1"/>
        <pt x="143" y="157" on="0"/>
        <pt x="249" y="51" on="0"/>
        <pt x="432" y="49" on="0"/>
        <pt x="598" y="191" on="0"/>
        <pt x="614" y="288" on="1"/>
        <pt x="684" y="681" on="1"/>
        <pt x="685" y="691" on="0"/>
        <pt x="702" y="703" on="0"/>
      </contour>
      <contour>
        <pt x="537" y="801" on="1"/>
        <pt x="537" y="792" on="0"/>
        <pt x="505" y="792" on="0"/>
        <pt x="493" y="805" on="1"/>
        <pt x="424" y="882" on="1"/>
        <pt x="415" y="893" on="0"/>
        <pt x="417" y="908" on="0"/>
        <pt x="447" y="923" on="0"/>
        <pt x="477" y="923" on="0"/>
        <pt x="486" y="905" on="1"/>
        <pt x="535" y="812" on="1"/>
        <pt x="538" y="807" on="0"/>
      </contour>
    </TTGlyph>
    <TTGlyph name="V" xMin="60" yMin="1" xMax="656" yMax="701">
      <contour>
        <pt x="259" y="7" on="1"/>
        <pt x="258" y="6" on="0"/>
        <pt x="256" y="6" on="0"/>
        <pt x="253" y="4" on="0"/>
        <pt x="250" y="2" on="1"/>
        <pt x="249" y="2" on="1"/>
        <pt x="247" y="1" on="0"/>
        <pt x="239" y="1" on="0"/>
        <pt x="237" y="2" on="1"/>
        <pt x="236" y="2" on="1"/>
        <pt x="232" y="4" on="0"/>
        <pt x="231" y="5" on="1"/>
        <pt x="230" y="5" on="1"/>
        <pt x="230" y="6" on="0"/>
        <pt x="228" y="6" on="0"/>
        <pt x="223" y="11" on="1"/>
        <pt x="221" y="14" on="0"/>
        <pt x="219" y="20" on="1"/>
        <pt x="60" y="671" on="1"/>
        <pt x="57" y="681" on="0"/>
        <pt x="68" y="698" on="0"/>
        <pt x="88" y="703" on="0"/>
        <pt x="105" y="693" on="0"/>
        <pt x="107" y="683" on="1"/>
        <pt x="252" y="89" on="1"/>
        <pt x="611" y="689" on="1"/>
        <pt x="616" y="698" on="0"/>
        <pt x="636" y="703" on="0"/>
        <pt x="653" y="693" on="0"/>
        <pt x="658" y="673" on="0"/>
        <pt x="653" y="664" on="1"/>
        <pt x="264" y="13" on="1"/>
        <pt x="260" y="9" on="1"/>
        <pt x="260" y="8" on="0"/>
        <pt x="259" y="8" on="0"/>
      </contour>
    </TTGlyph>
    <TTGlyph name="W" xMin="63" yMin="-1" xMax="1061" yMax="699">
      <contour>
        <pt x="667" y="5" on="1"/>
        <pt x="657" y="0" on="1"/>
        <pt x="653" y="0" on="1"/>
        <pt x="652" y="0" on="0"/>
        <pt x="652" y="-1" on="0"/>
        <pt x="651" y="-1" on="1"/>
        <pt x="645" y="0" on="1"/>
        <pt x="644" y="0" on="1"/>
        <pt x="640" y="2" on="0"/>
        <pt x="639" y="3" on="1"/>
        <pt x="638" y="3" on="1"/>
        <pt x="636" y="5" on="0"/>
        <pt x="634" y="6" on="1"/>
        <pt x="628" y="11" on="0"/>
        <pt x="628" y="17" on="0"/>
        <pt x="627" y="18" on="1"/>
        <pt x="524" y="441" on="1"/>
        <pt x="267" y="11" on="1"/>
        <pt x="266" y="10" on="1"/>
        <pt x="266" y="8" on="0"/>
        <pt x="263" y="6" on="0"/>
        <pt x="262" y="6" on="0"/>
        <pt x="258" y="3" on="0"/>
        <pt x="258" y="2" on="1"/>
        <pt x="258" y="1" on="0"/>
        <pt x="253" y="1" on="1"/>
        <pt x="252" y="0" on="1"/>
        <pt x="248" y="0" on="1"/>
        <pt x="246" y="-1" on="1"/>
        <pt x="240" y="0" on="1"/>
        <pt x="239" y="0" on="1"/>
        <pt x="235" y="2" on="0"/>
        <pt x="234" y="3" on="1"/>
        <pt x="233" y="3" on="1"/>
        <pt x="231" y="5" on="0"/>
        <pt x="229" y="6" on="1"/>
        <pt x="225" y="10" on="0"/>
        <pt x="222" y="18" on="1"/>
        <pt x="63" y="669" on="1"/>
        <pt x="58" y="692" on="0"/>
        <pt x="81" y="699" on="1"/>
        <pt x="91" y="701" on="0"/>
        <pt x="108" y="691" on="0"/>
        <pt x="110" y="681" on="1"/>
        <pt x="256" y="87" on="1"/>
        <pt x="510" y="513" on="1"/>
        <pt x="518" y="525" on="0"/>
        <pt x="530" y="526" on="1"/>
        <pt x="553" y="527" on="0"/>
        <pt x="558" y="507" on="1"/>
        <pt x="661" y="87" on="1"/>
        <pt x="1019" y="687" on="1"/>
        <pt x="1024" y="696" on="0"/>
        <pt x="1044" y="701" on="0"/>
        <pt x="1053" y="696" on="1"/>
        <pt x="1073" y="683" on="0"/>
        <pt x="1061" y="662" on="1"/>
        <pt x="672" y="11" on="1"/>
        <pt x="670" y="9" on="0"/>
        <pt x="668" y="6" on="0"/>
        <pt x="667" y="6" on="0"/>
      </contour>
    </TTGlyph>
    <TTGlyph name="X" xMin="82" yMin="-2" xMax="716" yMax="699">
      <contour>
        <pt x="426" y="345" on="1"/>
        <pt x="598" y="35" on="1"/>
        <pt x="609" y="13" on="0"/>
        <pt x="588" y="1" on="1"/>
        <pt x="582" y="-2" on="0"/>
        <pt x="562" y="-2" on="0"/>
        <pt x="555" y="11" on="1"/>
        <pt x="391" y="307" on="1"/>
        <pt x="119" y="6" on="1"/>
        <pt x="111" y="-2" on="0"/>
        <pt x="91" y="-2" on="0"/>
        <pt x="84" y="5" on="1"/>
        <pt x="66" y="21" on="0"/>
        <pt x="82" y="39" on="1"/>
        <pt x="366" y="352" on="1"/>
        <pt x="194" y="662" on="1"/>
        <pt x="189" y="671" on="0"/>
        <pt x="195" y="690" on="0"/>
        <pt x="203" y="695" on="1"/>
        <pt x="212" y="700" on="0"/>
        <pt x="232" y="695" on="0"/>
        <pt x="237" y="686" on="1"/>
        <pt x="401" y="390" on="1"/>
        <pt x="673" y="690" on="1"/>
        <pt x="680" y="698" on="0"/>
        <pt x="700" y="699" on="0"/>
        <pt x="715" y="685" on="0"/>
        <pt x="716" y="664" on="0"/>
        <pt x="709" y="657" on="1"/>
      </contour>
    </TTGlyph>
    <TTGlyph name="Y" xMin="59" yMin="-1" xMax="581" yMax="699">
      <contour>
        <pt x="581" y="658" on="1"/>
        <pt x="287" y="334" on="1"/>
        <pt x="232" y="19" on="1"/>
        <pt x="231" y="10" on="0"/>
        <pt x="216" y="-1" on="0"/>
        <pt x="208" y="-1" on="1"/>
        <pt x="203" y="-1" on="1"/>
        <pt x="193" y="0" on="0"/>
        <pt x="181" y="17" on="0"/>
        <pt x="183" y="27" on="1"/>
        <pt x="239" y="341" on="1"/>
        <pt x="61" y="662" on="1"/>
        <pt x="56" y="671" on="0"/>
        <pt x="62" y="690" on="0"/>
        <pt x="70" y="695" on="1"/>
        <pt x="79" y="700" on="0"/>
        <pt x="99" y="695" on="0"/>
        <pt x="104" y="686" on="1"/>
        <pt x="269" y="387" on="1"/>
        <pt x="544" y="690" on="1"/>
        <pt x="551" y="698" on="0"/>
        <pt x="571" y="699" on="0"/>
        <pt x="579" y="692" on="1"/>
        <pt x="597" y="676" on="0"/>
      </contour>
    </TTGlyph>
    <TTGlyph name="Yacute" xMin="59" yMin="-1" xMax="581" yMax="923">
      <contour>
        <pt x="581" y="658" on="1"/>
        <pt x="287" y="334" on="1"/>
        <pt x="232" y="19" on="1"/>
        <pt x="231" y="10" on="0"/>
        <pt x="216" y="-1" on="0"/>
        <pt x="208" y="-1" on="1"/>
        <pt x="203" y="-1" on="1"/>
        <pt x="193" y="0" on="0"/>
        <pt x="181" y="17" on="0"/>
        <pt x="183" y="27" on="1"/>
        <pt x="239" y="341" on="1"/>
        <pt x="61" y="662" on="1"/>
        <pt x="56" y="671" on="0"/>
        <pt x="62" y="690" on="0"/>
        <pt x="70" y="695" on="1"/>
        <pt x="79" y="700" on="0"/>
        <pt x="99" y="695" on="0"/>
        <pt x="104" y="686" on="1"/>
        <pt x="269" y="387" on="1"/>
        <pt x="544" y="690" on="1"/>
        <pt x="551" y="698" on="0"/>
        <pt x="571" y="699" on="0"/>
        <pt x="579" y="692" on="1"/>
        <pt x="597" y="676" on="0"/>
      </contour>
      <contour>
        <pt x="394" y="805" on="1"/>
        <pt x="382" y="792" on="0"/>
        <pt x="350" y="792" on="0"/>
        <pt x="350" y="801" on="1"/>
        <pt x="349" y="807" on="0"/>
        <pt x="352" y="812" on="1"/>
        <pt x="401" y="905" on="1"/>
        <pt x="410" y="923" on="0"/>
        <pt x="440" y="923" on="0"/>
        <pt x="470" y="908" on="0"/>
        <pt x="472" y="893" on="0"/>
        <pt x="463" y="882" on="1"/>
      </contour>
    </TTGlyph>
    <TTGlyph name="Ydieresis" xMin="59" yMin="-1" xMax="581" yMax="841">
      <contour>
        <pt x="302" y="841" on="0"/>
        <pt x="319" y="820" on="0"/>
        <pt x="314" y="791" on="0"/>
        <pt x="290" y="770" on="0"/>
        <pt x="260" y="770" on="0"/>
        <pt x="243" y="791" on="0"/>
        <pt x="248" y="820" on="0"/>
        <pt x="273" y="841" on="0"/>
      </contour>
      <contour>
        <pt x="469" y="841" on="0"/>
        <pt x="486" y="820" on="0"/>
        <pt x="481" y="791" on="0"/>
        <pt x="457" y="770" on="0"/>
        <pt x="427" y="770" on="0"/>
        <pt x="410" y="791" on="0"/>
        <pt x="415" y="820" on="0"/>
        <pt x="440" y="841" on="0"/>
      </contour>
      <contour>
        <pt x="581" y="658" on="1"/>
        <pt x="287" y="334" on="1"/>
        <pt x="232" y="19" on="1"/>
        <pt x="231" y="10" on="0"/>
        <pt x="216" y="-1" on="0"/>
        <pt x="208" y="-1" on="1"/>
        <pt x="203" y="-1" on="1"/>
        <pt x="193" y="0" on="0"/>
        <pt x="181" y="17" on="0"/>
        <pt x="183" y="27" on="1"/>
        <pt x="239" y="341" on="1"/>
        <pt x="61" y="662" on="1"/>
        <pt x="56" y="671" on="0"/>
        <pt x="62" y="690" on="0"/>
        <pt x="70" y="695" on="1"/>
        <pt x="79" y="700" on="0"/>
        <pt x="99" y="695" on="0"/>
        <pt x="104" y="686" on="1"/>
        <pt x="269" y="387" on="1"/>
        <pt x="544" y="690" on="1"/>
        <pt x="551" y="698" on="0"/>
        <pt x="571" y="699" on="0"/>
        <pt x="579" y="692" on="1"/>
        <pt x="597" y="676" on="0"/>
      </contour>
    </TTGlyph>
    <TTGlyph name="Z" xMin="71" yMin="-2" xMax="711" yMax="698">
      <contour>
        <pt x="707" y="661" on="1"/>
        <pt x="705" y="657" on="1"/>
        <pt x="151" y="47" on="1"/>
        <pt x="572" y="47" on="1"/>
        <pt x="582" y="47" on="0"/>
        <pt x="596" y="33" on="0"/>
        <pt x="596" y="13" on="0"/>
        <pt x="582" y="-2" on="0"/>
        <pt x="572" y="-2" on="1"/>
        <pt x="95" y="-2" on="1"/>
        <pt x="91" y="-1" on="1"/>
        <pt x="89" y="-1" on="1"/>
        <pt x="88" y="0" on="0"/>
        <pt x="86" y="0" on="0"/>
        <pt x="86" y="1" on="0"/>
        <pt x="85" y="1" on="1"/>
        <pt x="81" y="4" on="1"/>
        <pt x="80" y="4" on="0"/>
        <pt x="77" y="7" on="1"/>
        <pt x="77" y="8" on="0"/>
        <pt x="76" y="8" on="1"/>
        <pt x="73" y="8" on="0"/>
        <pt x="73" y="15" on="1"/>
        <pt x="72" y="17" on="1"/>
        <pt x="72" y="20" on="1"/>
        <pt x="72" y="21" on="0"/>
        <pt x="71" y="22" on="1"/>
        <pt x="71" y="23" on="1"/>
        <pt x="72" y="24" on="1"/>
        <pt x="72" y="29" on="1"/>
        <pt x="75" y="32" on="0"/>
        <pt x="75" y="36" on="1"/>
        <pt x="77" y="38" on="1"/>
        <pt x="77" y="39" on="0"/>
        <pt x="78" y="39" on="1"/>
        <pt x="631" y="649" on="1"/>
        <pt x="211" y="649" on="1"/>
        <pt x="200" y="649" on="0"/>
        <pt x="186" y="664" on="0"/>
        <pt x="186" y="684" on="0"/>
        <pt x="201" y="698" on="0"/>
        <pt x="211" y="698" on="1"/>
        <pt x="691" y="698" on="1"/>
        <pt x="692" y="698" on="0"/>
        <pt x="693" y="697" on="1"/>
        <pt x="695" y="697" on="1"/>
        <pt x="696" y="696" on="0"/>
        <pt x="698" y="696" on="0"/>
        <pt x="698" y="695" on="1"/>
        <pt x="699" y="695" on="1"/>
        <pt x="701" y="693" on="0"/>
        <pt x="705" y="690" on="0"/>
        <pt x="706" y="689" on="0"/>
        <pt x="706" y="688" on="1"/>
        <pt x="706" y="686" on="0"/>
        <pt x="708" y="686" on="1"/>
        <pt x="709" y="684" on="1"/>
        <pt x="709" y="682" on="0"/>
        <pt x="710" y="682" on="1"/>
        <pt x="710" y="679" on="1"/>
        <pt x="711" y="679" on="0"/>
        <pt x="711" y="677" on="1"/>
        <pt x="711" y="670" on="1"/>
        <pt x="710" y="669" on="0"/>
        <pt x="710" y="668" on="1"/>
        <pt x="710" y="665" on="0"/>
        <pt x="708" y="663" on="1"/>
        <pt x="708" y="661" on="0"/>
      </contour>
    </TTGlyph>
    <TTGlyph name="a" xMin="40" yMin="0" xMax="544" yMax="488">
      <contour>
        <pt x="235" y="0" on="1"/>
        <pt x="150" y="0" on="0"/>
        <pt x="40" y="116" on="0"/>
        <pt x="40" y="203" on="1"/>
        <pt x="40" y="228" on="0"/>
        <pt x="44" y="248" on="1"/>
        <pt x="62" y="348" on="0"/>
        <pt x="217" y="487" on="0"/>
        <pt x="398" y="488" on="0"/>
        <pt x="454" y="429" on="1"/>
        <pt x="472" y="409" on="0"/>
        <pt x="483" y="389" on="1"/>
        <pt x="497" y="468" on="1"/>
        <pt x="499" y="478" on="0"/>
        <pt x="514" y="489" on="0"/>
        <pt x="534" y="486" on="0"/>
        <pt x="545" y="470" on="0"/>
        <pt x="544" y="460" on="1"/>
        <pt x="466" y="20" on="1"/>
        <pt x="463" y="0" on="0"/>
        <pt x="442" y="0" on="1"/>
        <pt x="438" y="0" on="1"/>
        <pt x="428" y="2" on="0"/>
        <pt x="417" y="18" on="0"/>
        <pt x="419" y="28" on="1"/>
        <pt x="430" y="92" on="1"/>
        <pt x="349" y="2" on="0"/>
      </contour>
      <contour>
        <pt x="91" y="240" on="1"/>
        <pt x="87" y="223" on="0"/>
        <pt x="87" y="203" on="1"/>
        <pt x="88" y="135" on="0"/>
        <pt x="170" y="49" on="0"/>
        <pt x="311" y="47" on="0"/>
        <pt x="378" y="106" on="1"/>
        <pt x="461" y="180" on="0"/>
        <pt x="461" y="285" on="1"/>
        <pt x="460" y="353" on="0"/>
        <pt x="379" y="439" on="0"/>
        <pt x="313" y="440" on="1"/>
        <pt x="312" y="440" on="1"/>
        <pt x="236" y="440" on="0"/>
        <pt x="105" y="322" on="0"/>
      </contour>
    </TTGlyph>
    <TTGlyph name="aacute" xMin="63" yMin="0" xMax="567" yMax="723">
      <contour>
        <pt x="258" y="0" on="1"/>
        <pt x="173" y="0" on="0"/>
        <pt x="63" y="116" on="0"/>
        <pt x="63" y="203" on="1"/>
        <pt x="63" y="228" on="0"/>
        <pt x="67" y="248" on="1"/>
        <pt x="85" y="348" on="0"/>
        <pt x="240" y="487" on="0"/>
        <pt x="421" y="488" on="0"/>
        <pt x="477" y="429" on="1"/>
        <pt x="495" y="409" on="0"/>
        <pt x="506" y="389" on="1"/>
        <pt x="520" y="468" on="1"/>
        <pt x="522" y="478" on="0"/>
        <pt x="537" y="489" on="0"/>
        <pt x="557" y="486" on="0"/>
        <pt x="568" y="470" on="0"/>
        <pt x="567" y="460" on="1"/>
        <pt x="489" y="20" on="1"/>
        <pt x="486" y="0" on="0"/>
        <pt x="465" y="0" on="1"/>
        <pt x="461" y="0" on="1"/>
        <pt x="451" y="2" on="0"/>
        <pt x="440" y="18" on="0"/>
        <pt x="442" y="28" on="1"/>
        <pt x="453" y="92" on="1"/>
        <pt x="372" y="2" on="0"/>
      </contour>
      <contour>
        <pt x="114" y="240" on="1"/>
        <pt x="110" y="223" on="0"/>
        <pt x="110" y="203" on="1"/>
        <pt x="111" y="135" on="0"/>
        <pt x="193" y="49" on="0"/>
        <pt x="334" y="47" on="0"/>
        <pt x="400" y="106" on="1"/>
        <pt x="484" y="180" on="0"/>
        <pt x="484" y="285" on="1"/>
        <pt x="483" y="353" on="0"/>
        <pt x="402" y="439" on="0"/>
        <pt x="336" y="440" on="1"/>
        <pt x="335" y="440" on="1"/>
        <pt x="259" y="440" on="0"/>
        <pt x="128" y="322" on="0"/>
      </contour>
      <contour>
        <pt x="331" y="605" on="1"/>
        <pt x="319" y="592" on="0"/>
        <pt x="287" y="592" on="0"/>
        <pt x="287" y="601" on="1"/>
        <pt x="286" y="607" on="0"/>
        <pt x="289" y="612" on="1"/>
        <pt x="338" y="705" on="1"/>
        <pt x="347" y="723" on="0"/>
        <pt x="377" y="723" on="0"/>
        <pt x="407" y="708" on="0"/>
        <pt x="409" y="693" on="0"/>
        <pt x="400" y="682" on="1"/>
      </contour>
    </TTGlyph>
    <TTGlyph name="acircumflex" xMin="63" yMin="0" xMax="567" yMax="720">
      <contour>
        <pt x="258" y="0" on="1"/>
        <pt x="173" y="0" on="0"/>
        <pt x="63" y="116" on="0"/>
        <pt x="63" y="203" on="1"/>
        <pt x="63" y="228" on="0"/>
        <pt x="67" y="248" on="1"/>
        <pt x="85" y="348" on="0"/>
        <pt x="240" y="487" on="0"/>
        <pt x="421" y="488" on="0"/>
        <pt x="477" y="429" on="1"/>
        <pt x="495" y="409" on="0"/>
        <pt x="506" y="389" on="1"/>
        <pt x="520" y="468" on="1"/>
        <pt x="522" y="478" on="0"/>
        <pt x="537" y="489" on="0"/>
        <pt x="557" y="486" on="0"/>
        <pt x="568" y="470" on="0"/>
        <pt x="567" y="460" on="1"/>
        <pt x="489" y="20" on="1"/>
        <pt x="486" y="0" on="0"/>
        <pt x="465" y="0" on="1"/>
        <pt x="461" y="0" on="1"/>
        <pt x="451" y="2" on="0"/>
        <pt x="440" y="18" on="0"/>
        <pt x="442" y="28" on="1"/>
        <pt x="453" y="92" on="1"/>
        <pt x="372" y="2" on="0"/>
      </contour>
      <contour>
        <pt x="114" y="240" on="1"/>
        <pt x="110" y="223" on="0"/>
        <pt x="110" y="203" on="1"/>
        <pt x="111" y="135" on="0"/>
        <pt x="193" y="49" on="0"/>
        <pt x="334" y="47" on="0"/>
        <pt x="400" y="106" on="1"/>
        <pt x="484" y="180" on="0"/>
        <pt x="484" y="285" on="1"/>
        <pt x="483" y="353" on="0"/>
        <pt x="402" y="439" on="0"/>
        <pt x="336" y="440" on="1"/>
        <pt x="335" y="440" on="1"/>
        <pt x="259" y="440" on="0"/>
        <pt x="128" y="322" on="0"/>
      </contour>
      <contour>
        <pt x="414" y="663" on="1"/>
        <pt x="344" y="605" on="1"/>
        <pt x="327" y="592" on="0"/>
        <pt x="298" y="592" on="0"/>
        <pt x="298" y="602" on="1"/>
        <pt x="300" y="609" on="0"/>
        <pt x="305" y="614" on="1"/>
        <pt x="389" y="702" on="1"/>
        <pt x="405" y="720" on="0"/>
        <pt x="419" y="720" on="1"/>
        <pt x="427" y="720" on="1"/>
        <pt x="440" y="720" on="0"/>
        <pt x="453" y="702" on="1"/>
        <pt x="513" y="614" on="1"/>
        <pt x="517" y="607" on="0"/>
        <pt x="516" y="602" on="1"/>
        <pt x="516" y="592" on="0"/>
        <pt x="482" y="592" on="0"/>
        <pt x="470" y="605" on="1"/>
      </contour>
    </TTGlyph>
    <TTGlyph name="acute" xMin="202" yMin="592" xMax="323" yMax="723">
      <contour>
        <pt x="246" y="605" on="1"/>
        <pt x="234" y="592" on="0"/>
        <pt x="202" y="592" on="0"/>
        <pt x="202" y="601" on="1"/>
        <pt x="201" y="607" on="0"/>
        <pt x="204" y="612" on="1"/>
        <pt x="253" y="705" on="1"/>
        <pt x="262" y="723" on="0"/>
        <pt x="292" y="723" on="0"/>
        <pt x="322" y="708" on="0"/>
        <pt x="324" y="693" on="0"/>
        <pt x="315" y="682" on="1"/>
      </contour>
    </TTGlyph>
    <TTGlyph name="adieresis" xMin="40" yMin="0" xMax="544" yMax="680">
      <component glyphName="a" x="0" y="0" flags="0x1004"/>
      <component glyphName="dieresis" x="140" y="0" flags="0x1004"/>
    </TTGlyph>
    <TTGlyph name="ae" xMin="51" yMin="0" xMax="958" yMax="491">
      <contour>
        <pt x="958" y="286" on="1"/>
        <pt x="958" y="272" on="0"/>
        <pt x="955" y="254" on="1"/>
        <pt x="950" y="236" on="0"/>
        <pt x="932" y="236" on="1"/>
        <pt x="526" y="236" on="1"/>
        <pt x="524" y="226" on="0"/>
        <pt x="524" y="206" on="1"/>
        <pt x="524" y="137" on="0"/>
        <pt x="609" y="50" on="0"/>
        <pt x="668" y="50" on="1"/>
        <pt x="783" y="49" on="0"/>
        <pt x="855" y="140" on="1"/>
        <pt x="862" y="148" on="0"/>
        <pt x="881" y="150" on="0"/>
        <pt x="897" y="137" on="0"/>
        <pt x="899" y="118" on="0"/>
        <pt x="892" y="110" on="1"/>
        <pt x="852" y="60" on="0"/>
        <pt x="739" y="1" on="0"/>
        <pt x="678" y="1" on="1"/>
        <pt x="677" y="1" on="1"/>
        <pt x="589" y="1" on="0"/>
        <pt x="532" y="60" on="1"/>
        <pt x="508" y="84" on="0"/>
        <pt x="495" y="113" on="1"/>
        <pt x="479" y="20" on="1"/>
        <pt x="476" y="0" on="0"/>
        <pt x="455" y="0" on="1"/>
        <pt x="451" y="0" on="1"/>
        <pt x="441" y="2" on="0"/>
        <pt x="430" y="18" on="0"/>
        <pt x="432" y="28" on="1"/>
        <pt x="443" y="92" on="1"/>
        <pt x="361" y="2" on="0"/>
        <pt x="247" y="0" on="1"/>
        <pt x="161" y="0" on="0"/>
        <pt x="51" y="116" on="0"/>
        <pt x="51" y="204" on="1"/>
        <pt x="51" y="229" on="0"/>
        <pt x="55" y="249" on="1"/>
        <pt x="73" y="349" on="0"/>
        <pt x="229" y="489" on="0"/>
        <pt x="411" y="490" on="0"/>
        <pt x="467" y="431" on="1"/>
        <pt x="485" y="411" on="0"/>
        <pt x="496" y="391" on="1"/>
        <pt x="510" y="470" on="1"/>
        <pt x="512" y="480" on="0"/>
        <pt x="527" y="491" on="0"/>
        <pt x="547" y="488" on="0"/>
        <pt x="558" y="472" on="0"/>
        <pt x="557" y="462" on="1"/>
        <pt x="543" y="385" on="1"/>
        <pt x="630" y="489" on="0"/>
        <pt x="756" y="491" on="1"/>
        <pt x="844" y="491" on="0"/>
        <pt x="958" y="373" on="0"/>
      </contour>
      <contour>
        <pt x="102" y="241" on="1"/>
        <pt x="98" y="224" on="0"/>
        <pt x="98" y="204" on="1"/>
        <pt x="99" y="136" on="0"/>
        <pt x="181" y="49" on="0"/>
        <pt x="323" y="47" on="0"/>
        <pt x="390" y="106" on="1"/>
        <pt x="474" y="181" on="0"/>
        <pt x="474" y="286" on="1"/>
        <pt x="473" y="355" on="0"/>
        <pt x="391" y="441" on="0"/>
        <pt x="325" y="442" on="1"/>
        <pt x="324" y="442" on="1"/>
        <pt x="248" y="442" on="0"/>
        <pt x="116" y="323" on="0"/>
      </contour>
      <contour>
        <pt x="909" y="355" on="0"/>
        <pt x="825" y="442" on="0"/>
        <pt x="688" y="444" on="0"/>
        <pt x="565" y="353" on="0"/>
        <pt x="539" y="284" on="1"/>
        <pt x="910" y="284" on="1"/>
        <pt x="910" y="286" on="1"/>
      </contour>
    </TTGlyph>
    <TTGlyph name="agrave" xMin="63" yMin="0" xMax="567" yMax="723">
      <contour>
        <pt x="258" y="0" on="1"/>
        <pt x="173" y="0" on="0"/>
        <pt x="63" y="116" on="0"/>
        <pt x="63" y="203" on="1"/>
        <pt x="63" y="228" on="0"/>
        <pt x="67" y="248" on="1"/>
        <pt x="85" y="348" on="0"/>
        <pt x="240" y="487" on="0"/>
        <pt x="421" y="488" on="0"/>
        <pt x="477" y="429" on="1"/>
        <pt x="495" y="409" on="0"/>
        <pt x="506" y="389" on="1"/>
        <pt x="520" y="468" on="1"/>
        <pt x="522" y="478" on="0"/>
        <pt x="537" y="489" on="0"/>
        <pt x="557" y="486" on="0"/>
        <pt x="568" y="470" on="0"/>
        <pt x="567" y="460" on="1"/>
        <pt x="489" y="20" on="1"/>
        <pt x="486" y="0" on="0"/>
        <pt x="465" y="0" on="1"/>
        <pt x="461" y="0" on="1"/>
        <pt x="451" y="2" on="0"/>
        <pt x="440" y="18" on="0"/>
        <pt x="442" y="28" on="1"/>
        <pt x="453" y="92" on="1"/>
        <pt x="372" y="2" on="0"/>
      </contour>
      <contour>
        <pt x="114" y="240" on="1"/>
        <pt x="110" y="223" on="0"/>
        <pt x="110" y="203" on="1"/>
        <pt x="111" y="135" on="0"/>
        <pt x="193" y="49" on="0"/>
        <pt x="334" y="47" on="0"/>
        <pt x="400" y="106" on="1"/>
        <pt x="484" y="180" on="0"/>
        <pt x="484" y="285" on="1"/>
        <pt x="483" y="353" on="0"/>
        <pt x="402" y="439" on="0"/>
        <pt x="336" y="440" on="1"/>
        <pt x="335" y="440" on="1"/>
        <pt x="259" y="440" on="0"/>
        <pt x="128" y="322" on="0"/>
      </contour>
      <contour>
        <pt x="487" y="601" on="1"/>
        <pt x="487" y="592" on="0"/>
        <pt x="455" y="592" on="0"/>
        <pt x="443" y="605" on="1"/>
        <pt x="374" y="682" on="1"/>
        <pt x="365" y="693" on="0"/>
        <pt x="367" y="708" on="0"/>
        <pt x="397" y="723" on="0"/>
        <pt x="427" y="723" on="0"/>
        <pt x="436" y="705" on="1"/>
        <pt x="485" y="612" on="1"/>
        <pt x="488" y="607" on="0"/>
      </contour>
    </TTGlyph>
    <TTGlyph name="ampersand" xMin="49" yMin="-1" xMax="595" yMax="699">
      <contour>
        <pt x="439" y="320" on="1"/>
        <pt x="473" y="319" on="1"/>
        <pt x="474" y="318" on="0"/>
        <pt x="478" y="318" on="1"/>
        <pt x="508" y="318" on="0"/>
        <pt x="546" y="352" on="0"/>
        <pt x="546" y="388" on="1"/>
        <pt x="546" y="395" on="1"/>
        <pt x="545" y="405" on="0"/>
        <pt x="559" y="420" on="0"/>
        <pt x="579" y="422" on="0"/>
        <pt x="594" y="408" on="0"/>
        <pt x="595" y="398" on="1"/>
        <pt x="595" y="388" on="1"/>
        <pt x="595" y="327" on="0"/>
        <pt x="556" y="296" on="1"/>
        <pt x="538" y="281" on="0"/>
        <pt x="513" y="274" on="1"/>
        <pt x="513" y="264" on="1"/>
        <pt x="513" y="241" on="0"/>
        <pt x="509" y="224" on="1"/>
        <pt x="493" y="130" on="0"/>
        <pt x="340" y="0" on="0"/>
        <pt x="161" y="-1" on="0"/>
        <pt x="104" y="54" on="1"/>
        <pt x="49" y="109" on="0"/>
        <pt x="49" y="192" on="1"/>
        <pt x="49" y="270" on="0"/>
        <pt x="98" y="340" on="1"/>
        <pt x="134" y="389" on="0"/>
        <pt x="186" y="419" on="1"/>
        <pt x="159" y="457" on="0"/>
        <pt x="159" y="505" on="1"/>
        <pt x="159" y="520" on="0"/>
        <pt x="162" y="534" on="1"/>
        <pt x="174" y="603" on="0"/>
        <pt x="285" y="698" on="0"/>
        <pt x="419" y="699" on="0"/>
        <pt x="501" y="617" on="0"/>
        <pt x="501" y="555" on="1"/>
        <pt x="501" y="519" on="0"/>
        <pt x="480" y="504" on="0"/>
        <pt x="460" y="507" on="0"/>
        <pt x="448" y="524" on="0"/>
        <pt x="452" y="550" on="0"/>
        <pt x="452" y="555" on="1"/>
        <pt x="451" y="597" on="0"/>
        <pt x="399" y="649" on="0"/>
        <pt x="305" y="651" on="0"/>
        <pt x="262" y="614" on="1"/>
        <pt x="208" y="567" on="0"/>
        <pt x="208" y="505" on="1"/>
        <pt x="208" y="457" on="0"/>
        <pt x="241" y="432" on="1"/>
        <pt x="259" y="417" on="0"/>
        <pt x="245" y="397" on="1"/>
        <pt x="243" y="396" on="1"/>
        <pt x="237" y="390" on="0"/>
        <pt x="235" y="390" on="1"/>
        <pt x="183" y="367" on="0"/>
        <pt x="146" y="322" on="1"/>
        <pt x="98" y="261" on="0"/>
        <pt x="99" y="129" on="0"/>
        <pt x="180" y="49" on="0"/>
        <pt x="320" y="47" on="0"/>
        <pt x="384" y="102" on="1"/>
        <pt x="464" y="170" on="0"/>
        <pt x="464" y="264" on="1"/>
        <pt x="464" y="270" on="1"/>
        <pt x="455" y="271" on="0"/>
        <pt x="439" y="271" on="1"/>
        <pt x="343" y="271" on="0"/>
        <pt x="307" y="227" on="1"/>
        <pt x="285" y="203" on="0"/>
        <pt x="285" y="169" on="1"/>
        <pt x="285" y="165" on="0"/>
        <pt x="286" y="164" on="1"/>
        <pt x="286" y="163" on="1"/>
        <pt x="287" y="153" on="0"/>
        <pt x="275" y="137" on="0"/>
        <pt x="265" y="136" on="1"/>
        <pt x="261" y="136" on="1"/>
        <pt x="242" y="136" on="0"/>
        <pt x="237" y="157" on="1"/>
        <pt x="237" y="162" on="0"/>
        <pt x="236" y="169" on="1"/>
        <pt x="239" y="223" on="0"/>
        <pt x="269" y="259" on="1"/>
        <pt x="320" y="320" on="0"/>
      </contour>
    </TTGlyph>
    <TTGlyph name="aring" xMin="29" yMin="0" xMax="532" yMax="736">
      <contour>
        <pt x="512" y="490" on="1"/>
        <pt x="522" y="490" on="0"/>
        <pt x="534" y="476" on="0"/>
        <pt x="532" y="466" on="1"/>
        <pt x="454" y="24" on="1"/>
        <pt x="453" y="14" on="0"/>
        <pt x="436" y="0" on="0"/>
        <pt x="416" y="0" on="0"/>
        <pt x="404" y="14" on="0"/>
        <pt x="406" y="24" on="1"/>
        <pt x="419" y="97" on="1"/>
        <pt x="379" y="52" on="0"/>
        <pt x="273" y="0" on="0"/>
        <pt x="218" y="0" on="1"/>
        <pt x="122" y="0" on="0"/>
        <pt x="12" y="144" on="0"/>
        <pt x="29" y="245" on="1"/>
        <pt x="47" y="346" on="0"/>
        <pt x="208" y="490" on="0"/>
        <pt x="304" y="490" on="1"/>
        <pt x="359" y="490" on="0"/>
        <pt x="448" y="438" on="0"/>
        <pt x="472" y="394" on="1"/>
        <pt x="484" y="466" on="1"/>
        <pt x="489" y="490" on="0"/>
      </contour>
      <contour>
        <pt x="63" y="163" on="0"/>
        <pt x="152" y="48" on="0"/>
        <pt x="303" y="48" on="0"/>
        <pt x="431" y="163" on="0"/>
        <pt x="445" y="245" on="1"/>
        <pt x="460" y="327" on="0"/>
        <pt x="372" y="443" on="0"/>
        <pt x="221" y="443" on="0"/>
        <pt x="92" y="327" on="0"/>
      </contour>
      <contour>
        <pt x="418" y="612" on="0"/>
        <pt x="354" y="560" on="0"/>
        <pt x="282" y="560" on="0"/>
        <pt x="237" y="613" on="0"/>
        <pt x="243" y="647" on="1"/>
        <pt x="243" y="648" on="1"/>
        <pt x="250" y="684" on="0"/>
        <pt x="313" y="736" on="0"/>
        <pt x="385" y="736" on="0"/>
        <pt x="431" y="684" on="0"/>
        <pt x="424" y="648" on="1"/>
        <pt x="424" y="647" on="1"/>
      </contour>
      <contour>
        <pt x="283" y="629" on="0"/>
        <pt x="306" y="601" on="0"/>
        <pt x="345" y="601" on="0"/>
        <pt x="378" y="629" on="0"/>
        <pt x="381" y="647" on="1"/>
        <pt x="381" y="648" on="1"/>
        <pt x="385" y="667" on="0"/>
        <pt x="362" y="697" on="0"/>
        <pt x="323" y="697" on="0"/>
        <pt x="290" y="667" on="0"/>
        <pt x="286" y="648" on="1"/>
        <pt x="286" y="647" on="1"/>
      </contour>
    </TTGlyph>
    <TTGlyph name="asciicircum" xMin="80" yMin="488" xMax="421" yMax="706">
      <contour>
        <pt x="278" y="659" on="1"/>
        <pt x="130" y="502" on="1"/>
        <pt x="117" y="488" on="0"/>
        <pt x="93" y="488" on="1"/>
        <pt x="87" y="488" on="0"/>
        <pt x="80" y="495" on="0"/>
        <pt x="81" y="504" on="0"/>
        <pt x="88" y="512" on="1"/>
        <pt x="252" y="688" on="1"/>
        <pt x="270" y="706" on="0"/>
        <pt x="283" y="706" on="1"/>
        <pt x="291" y="706" on="1"/>
        <pt x="305" y="706" on="0"/>
        <pt x="316" y="688" on="1"/>
        <pt x="418" y="512" on="1"/>
        <pt x="421" y="506" on="0"/>
        <pt x="421" y="499" on="1"/>
        <pt x="419" y="488" on="0"/>
        <pt x="378" y="488" on="0"/>
        <pt x="370" y="502" on="1"/>
      </contour>
    </TTGlyph>
    <TTGlyph name="asciitilde" xMin="85" yMin="240" xMax="375" yMax="355">
      <contour>
        <pt x="121" y="254" on="1"/>
        <pt x="114" y="240" on="0"/>
        <pt x="103" y="240" on="1"/>
        <pt x="85" y="240" on="0"/>
        <pt x="85" y="257" on="1"/>
        <pt x="85" y="263" on="0"/>
        <pt x="87" y="269" on="1"/>
        <pt x="101" y="311" on="0"/>
        <pt x="138" y="344" on="0"/>
        <pt x="186" y="344" on="0"/>
        <pt x="278" y="303" on="0"/>
        <pt x="310" y="303" on="0"/>
        <pt x="330" y="320" on="0"/>
        <pt x="339" y="341" on="1"/>
        <pt x="346" y="355" on="0"/>
        <pt x="357" y="355" on="1"/>
        <pt x="375" y="355" on="0"/>
        <pt x="375" y="338" on="1"/>
        <pt x="375" y="332" on="0"/>
        <pt x="373" y="326" on="1"/>
        <pt x="359" y="284" on="0"/>
        <pt x="322" y="251" on="0"/>
        <pt x="274" y="251" on="0"/>
        <pt x="182" y="292" on="0"/>
        <pt x="150" y="292" on="0"/>
        <pt x="130" y="275" on="0"/>
      </contour>
    </TTGlyph>
    <TTGlyph name="asterisk" xMin="78" yMin="400" xMax="380" yMax="704">
      <contour>
        <pt x="186" y="422" on="1"/>
        <pt x="213" y="531" on="1"/>
        <pt x="111" y="469" on="1"/>
        <pt x="102" y="463" on="0"/>
        <pt x="86" y="463" on="0"/>
        <pt x="76" y="476" on="0"/>
        <pt x="81" y="497" on="0"/>
        <pt x="95" y="503" on="1"/>
        <pt x="207" y="552" on="1"/>
        <pt x="113" y="601" on="1"/>
        <pt x="99" y="608" on="0"/>
        <pt x="102" y="620" on="1"/>
        <pt x="106" y="639" on="0"/>
        <pt x="126" y="641" on="1"/>
        <pt x="132" y="641" on="0"/>
        <pt x="141" y="635" on="1"/>
        <pt x="221" y="573" on="1"/>
        <pt x="232" y="682" on="1"/>
        <pt x="233" y="691" on="0"/>
        <pt x="247" y="704" on="0"/>
        <pt x="265" y="704" on="0"/>
        <pt x="274" y="691" on="0"/>
        <pt x="272" y="682" on="1"/>
        <pt x="245" y="573" on="1"/>
        <pt x="347" y="635" on="1"/>
        <pt x="356" y="641" on="0"/>
        <pt x="372" y="641" on="0"/>
        <pt x="382" y="628" on="0"/>
        <pt x="380" y="620" on="1"/>
        <pt x="378" y="607" on="0"/>
        <pt x="363" y="601" on="1"/>
        <pt x="251" y="552" on="1"/>
        <pt x="345" y="503" on="1"/>
        <pt x="358" y="497" on="0"/>
        <pt x="354" y="476" on="0"/>
        <pt x="340" y="463" on="0"/>
        <pt x="326" y="463" on="0"/>
        <pt x="317" y="469" on="1"/>
        <pt x="237" y="531" on="1"/>
        <pt x="226" y="422" on="1"/>
        <pt x="225" y="413" on="0"/>
        <pt x="211" y="400" on="0"/>
        <pt x="193" y="400" on="0"/>
        <pt x="184" y="413" on="0"/>
      </contour>
    </TTGlyph>
    <TTGlyph name="at" xMin="53" yMin="0" xMax="763" yMax="700">
      <contour>
        <pt x="556" y="180" on="1"/>
        <pt x="556" y="162" on="0"/>
        <pt x="571" y="162" on="1"/>
        <pt x="595" y="162" on="0"/>
        <pt x="642" y="202" on="0"/>
        <pt x="650" y="214" on="1"/>
        <pt x="651" y="215" on="1"/>
        <pt x="714" y="305" on="0"/>
        <pt x="713" y="513" on="0"/>
        <pt x="575" y="650" on="0"/>
        <pt x="465" y="651" on="1"/>
        <pt x="340" y="651" on="0"/>
        <pt x="128" y="471" on="0"/>
        <pt x="106" y="345" on="1"/>
        <pt x="102" y="321" on="0"/>
        <pt x="102" y="293" on="1"/>
        <pt x="102" y="187" on="0"/>
        <pt x="240" y="49" on="0"/>
        <pt x="350" y="48" on="1"/>
        <pt x="385" y="48" on="0"/>
        <pt x="427" y="58" on="1"/>
        <pt x="437" y="60" on="0"/>
        <pt x="454" y="50" on="0"/>
        <pt x="459" y="30" on="0"/>
        <pt x="448" y="12" on="0"/>
        <pt x="438" y="10" on="1"/>
        <pt x="398" y="0" on="0"/>
        <pt x="350" y="0" on="1"/>
        <pt x="220" y="0" on="0"/>
        <pt x="53" y="167" on="0"/>
        <pt x="53" y="293" on="1"/>
        <pt x="53" y="319" on="0"/>
        <pt x="58" y="354" on="1"/>
        <pt x="84" y="498" on="0"/>
        <pt x="320" y="699" on="0"/>
        <pt x="465" y="700" on="1"/>
        <pt x="594" y="700" on="0"/>
        <pt x="679" y="615" on="1"/>
        <pt x="763" y="533" on="0"/>
        <pt x="763" y="406" on="1"/>
        <pt x="763" y="290" on="0"/>
        <pt x="691" y="186" on="1"/>
        <pt x="642" y="127" on="0"/>
        <pt x="591" y="115" on="1"/>
        <pt x="577" y="113" on="0"/>
        <pt x="571" y="113" on="1"/>
        <pt x="540" y="112" on="0"/>
        <pt x="508" y="153" on="0"/>
        <pt x="508" y="180" on="1"/>
        <pt x="508" y="192" on="1"/>
        <pt x="512" y="216" on="1"/>
        <pt x="451" y="162" on="0"/>
        <pt x="313" y="162" on="0"/>
        <pt x="227" y="255" on="0"/>
        <pt x="228" y="319" on="1"/>
        <pt x="228" y="415" on="0"/>
        <pt x="304" y="483" on="1"/>
        <pt x="363" y="536" on="0"/>
        <pt x="503" y="537" on="0"/>
        <pt x="588" y="447" on="0"/>
        <pt x="588" y="380" on="1"/>
        <pt x="588" y="363" on="0"/>
        <pt x="584" y="344" on="0"/>
        <pt x="584" y="338" on="0"/>
        <pt x="583" y="337" on="1"/>
        <pt x="583" y="334" on="1"/>
        <pt x="557" y="185" on="1"/>
        <pt x="557" y="184" on="0"/>
      </contour>
      <contour>
        <pt x="279" y="345" on="1"/>
        <pt x="276" y="332" on="0"/>
        <pt x="276" y="319" on="1"/>
        <pt x="277" y="271" on="0"/>
        <pt x="333" y="212" on="0"/>
        <pt x="433" y="210" on="0"/>
        <pt x="480" y="252" on="1"/>
        <pt x="539" y="306" on="0"/>
        <pt x="539" y="380" on="1"/>
        <pt x="538" y="428" on="0"/>
        <pt x="483" y="487" on="0"/>
        <pt x="437" y="488" on="1"/>
        <pt x="435" y="488" on="1"/>
        <pt x="382" y="488" on="0"/>
        <pt x="289" y="403" on="0"/>
      </contour>
    </TTGlyph>
    <TTGlyph name="atilde" xMin="63" yMin="0" xMax="567" yMax="699">
      <contour>
        <pt x="258" y="0" on="1"/>
        <pt x="173" y="0" on="0"/>
        <pt x="63" y="116" on="0"/>
        <pt x="63" y="203" on="1"/>
        <pt x="63" y="228" on="0"/>
        <pt x="67" y="248" on="1"/>
        <pt x="85" y="348" on="0"/>
        <pt x="240" y="487" on="0"/>
        <pt x="421" y="488" on="0"/>
        <pt x="477" y="429" on="1"/>
        <pt x="495" y="409" on="0"/>
        <pt x="506" y="389" on="1"/>
        <pt x="520" y="468" on="1"/>
        <pt x="522" y="478" on="0"/>
        <pt x="537" y="489" on="0"/>
        <pt x="557" y="486" on="0"/>
        <pt x="568" y="470" on="0"/>
        <pt x="567" y="460" on="1"/>
        <pt x="489" y="20" on="1"/>
        <pt x="486" y="0" on="0"/>
        <pt x="465" y="0" on="1"/>
        <pt x="461" y="0" on="1"/>
        <pt x="451" y="2" on="0"/>
        <pt x="440" y="18" on="0"/>
        <pt x="442" y="28" on="1"/>
        <pt x="453" y="92" on="1"/>
        <pt x="372" y="2" on="0"/>
      </contour>
      <contour>
        <pt x="114" y="240" on="1"/>
        <pt x="110" y="223" on="0"/>
        <pt x="110" y="203" on="1"/>
        <pt x="111" y="135" on="0"/>
        <pt x="193" y="49" on="0"/>
        <pt x="334" y="47" on="0"/>
        <pt x="400" y="106" on="1"/>
        <pt x="484" y="180" on="0"/>
        <pt x="484" y="285" on="1"/>
        <pt x="483" y="353" on="0"/>
        <pt x="402" y="439" on="0"/>
        <pt x="336" y="440" on="1"/>
        <pt x="335" y="440" on="1"/>
        <pt x="259" y="440" on="0"/>
        <pt x="128" y="322" on="0"/>
      </contour>
      <contour>
        <pt x="304" y="598" on="1"/>
        <pt x="295" y="584" on="0"/>
        <pt x="276" y="584" on="0"/>
        <pt x="267" y="594" on="0"/>
        <pt x="268" y="601" on="1"/>
        <pt x="272" y="613" on="1"/>
        <pt x="291" y="655" on="0"/>
        <pt x="333" y="688" on="0"/>
        <pt x="380" y="688" on="0"/>
        <pt x="466" y="647" on="0"/>
        <pt x="483" y="647" on="1"/>
        <pt x="512" y="647" on="0"/>
        <pt x="533" y="685" on="1"/>
        <pt x="542" y="699" on="0"/>
        <pt x="561" y="699" on="0"/>
        <pt x="566" y="694" on="1"/>
        <pt x="574" y="684" on="0"/>
        <pt x="565" y="670" on="1"/>
        <pt x="546" y="628" on="0"/>
        <pt x="504" y="595" on="0"/>
        <pt x="456" y="595" on="0"/>
        <pt x="370" y="636" on="0"/>
        <pt x="354" y="636" on="1"/>
        <pt x="325" y="636" on="0"/>
      </contour>
    </TTGlyph>
    <TTGlyph name="b" xMin="96" yMin="-2" xMax="612" yMax="698">
      <contour>
        <pt x="115" y="-2" on="1"/>
        <pt x="91" y="4" on="0"/>
        <pt x="96" y="27" on="1"/>
        <pt x="210" y="678" on="1"/>
        <pt x="215" y="701" on="0"/>
        <pt x="239" y="698" on="1"/>
        <pt x="262" y="693" on="0"/>
        <pt x="259" y="669" on="1"/>
        <pt x="210" y="396" on="1"/>
        <pt x="294" y="486" on="0"/>
        <pt x="410" y="488" on="1"/>
        <pt x="499" y="488" on="0"/>
        <pt x="612" y="371" on="0"/>
        <pt x="612" y="283" on="1"/>
        <pt x="612" y="259" on="0"/>
        <pt x="608" y="239" on="1"/>
        <pt x="584" y="243" on="1"/>
        <pt x="608" y="239" on="1"/>
        <pt x="590" y="138" on="0"/>
        <pt x="431" y="-1" on="0"/>
        <pt x="333" y="-2" on="1"/>
        <pt x="332" y="-2" on="1"/>
        <pt x="244" y="-2" on="0"/>
        <pt x="187" y="57" on="1"/>
        <pt x="169" y="77" on="0"/>
        <pt x="158" y="97" on="1"/>
        <pt x="144" y="18" on="1"/>
        <pt x="143" y="9" on="0"/>
        <pt x="128" y="-2" on="0"/>
        <pt x="120" y="-2" on="1"/>
      </contour>
      <contour>
        <pt x="409" y="439" on="1"/>
        <pt x="331" y="439" on="0"/>
        <pt x="196" y="320" on="0"/>
        <pt x="183" y="239" on="1"/>
        <pt x="179" y="222" on="0"/>
        <pt x="179" y="203" on="1"/>
        <pt x="180" y="134" on="0"/>
        <pt x="264" y="48" on="0"/>
        <pt x="411" y="46" on="0"/>
        <pt x="478" y="106" on="1"/>
        <pt x="563" y="180" on="0"/>
        <pt x="563" y="283" on="1"/>
        <pt x="562" y="352" on="0"/>
        <pt x="479" y="438" on="0"/>
        <pt x="410" y="439" on="1"/>
      </contour>
    </TTGlyph>
    <TTGlyph name="backslash" xMin="14" yMin="2" xMax="333" yMax="697">
      <contour>
        <pt x="320" y="3" on="1"/>
        <pt x="317" y="2" on="0"/>
        <pt x="294" y="2" on="0"/>
        <pt x="288" y="17" on="1"/>
        <pt x="15" y="665" on="1"/>
        <pt x="11" y="675" on="0"/>
        <pt x="18" y="693" on="0"/>
        <pt x="28" y="697" on="1"/>
        <pt x="49" y="705" on="0"/>
        <pt x="60" y="684" on="1"/>
        <pt x="333" y="36" on="1"/>
        <pt x="342" y="14" on="0"/>
      </contour>
    </TTGlyph>
    <TTGlyph name="bar" xMin="123" yMin="-138" xMax="324" yMax="796">
      <contour>
        <pt x="123" y="-116" on="1"/>
        <pt x="280" y="774" on="1"/>
        <pt x="286" y="796" on="0"/>
        <pt x="306" y="796" on="1"/>
        <pt x="315" y="796" on="0"/>
        <pt x="326" y="783" on="0"/>
        <pt x="324" y="774" on="1"/>
        <pt x="167" y="-116" on="1"/>
        <pt x="163" y="-138" on="0"/>
        <pt x="142" y="-138" on="1"/>
        <pt x="133" y="-138" on="0"/>
        <pt x="122" y="-125" on="0"/>
      </contour>
    </TTGlyph>
    <TTGlyph name="braceleft" xMin="59" yMin="-139" xMax="549" yMax="713">
      <contour>
        <pt x="287" y="-139" on="1"/>
        <pt x="138" y="-106" on="0"/>
        <pt x="132" y="-28" on="1"/>
        <pt x="129" y="10" on="0"/>
        <pt x="144" y="62" on="1"/>
        <pt x="166" y="141" on="1"/>
        <pt x="177" y="180" on="0"/>
        <pt x="176" y="208" on="1"/>
        <pt x="174" y="268" on="0"/>
        <pt x="77" y="268" on="1"/>
        <pt x="52" y="268" on="0"/>
        <pt x="59" y="287" on="1"/>
        <pt x="64" y="306" on="0"/>
        <pt x="88" y="306" on="1"/>
        <pt x="161" y="306" on="0"/>
        <pt x="232" y="369" on="0"/>
        <pt x="251" y="433" on="1"/>
        <pt x="273" y="512" on="1"/>
        <pt x="285" y="554" on="0"/>
        <pt x="317" y="612" on="0"/>
        <pt x="346" y="638" on="1"/>
        <pt x="401" y="687" on="0"/>
        <pt x="532" y="713" on="1"/>
        <pt x="541" y="715" on="0"/>
        <pt x="551" y="706" on="0"/>
        <pt x="549" y="697" on="1"/>
        <pt x="544" y="685" on="0"/>
        <pt x="532" y="681" on="1"/>
        <pt x="420" y="654" on="0"/>
        <pt x="343" y="585" on="0"/>
        <pt x="321" y="506" on="1"/>
        <pt x="299" y="431" on="1"/>
        <pt x="281" y="368" on="0"/>
        <pt x="209" y="302" on="0"/>
        <pt x="154" y="287" on="1"/>
        <pt x="186" y="275" on="0"/>
        <pt x="219" y="244" on="0"/>
        <pt x="231" y="186" on="0"/>
        <pt x="216" y="143" on="1"/>
        <pt x="194" y="68" on="1"/>
        <pt x="168" y="-5" on="0"/>
        <pt x="209" y="-80" on="0"/>
        <pt x="305" y="-107" on="1"/>
        <pt x="316" y="-112" on="0"/>
        <pt x="312" y="-123" on="1"/>
        <pt x="307" y="-143" on="0"/>
      </contour>
    </TTGlyph>
    <TTGlyph name="braceright" xMin="56" yMin="-139" xMax="546" yMax="713">
      <contour>
        <pt x="318" y="713" on="1"/>
        <pt x="467" y="680" on="0"/>
        <pt x="473" y="602" on="1"/>
        <pt x="476" y="564" on="0"/>
        <pt x="461" y="512" on="1"/>
        <pt x="439" y="433" on="1"/>
        <pt x="428" y="394" on="0"/>
        <pt x="429" y="366" on="1"/>
        <pt x="431" y="306" on="0"/>
        <pt x="528" y="306" on="1"/>
        <pt x="553" y="306" on="0"/>
        <pt x="546" y="287" on="1"/>
        <pt x="541" y="268" on="0"/>
        <pt x="517" y="268" on="1"/>
        <pt x="444" y="268" on="0"/>
        <pt x="373" y="205" on="0"/>
        <pt x="354" y="141" on="1"/>
        <pt x="332" y="62" on="1"/>
        <pt x="320" y="20" on="0"/>
        <pt x="288" y="-38" on="0"/>
        <pt x="259" y="-64" on="1"/>
        <pt x="204" y="-113" on="0"/>
        <pt x="73" y="-139" on="1"/>
        <pt x="64" y="-141" on="0"/>
        <pt x="54" y="-132" on="0"/>
        <pt x="56" y="-123" on="1"/>
        <pt x="61" y="-111" on="0"/>
        <pt x="73" y="-107" on="1"/>
        <pt x="185" y="-80" on="0"/>
        <pt x="262" y="-11" on="0"/>
        <pt x="284" y="68" on="1"/>
        <pt x="306" y="143" on="1"/>
        <pt x="324" y="206" on="0"/>
        <pt x="396" y="272" on="0"/>
        <pt x="451" y="287" on="1"/>
        <pt x="419" y="299" on="0"/>
        <pt x="386" y="330" on="0"/>
        <pt x="374" y="388" on="0"/>
        <pt x="389" y="431" on="1"/>
        <pt x="411" y="506" on="1"/>
        <pt x="437" y="579" on="0"/>
        <pt x="396" y="654" on="0"/>
        <pt x="300" y="681" on="1"/>
        <pt x="289" y="686" on="0"/>
        <pt x="293" y="697" on="1"/>
        <pt x="298" y="717" on="0"/>
      </contour>
    </TTGlyph>
    <TTGlyph name="bracketleft" xMin="101" yMin="-130" xMax="544" yMax="700">
      <contour>
        <pt x="101" y="-104" on="1"/>
        <pt x="264" y="674" on="1"/>
        <pt x="266" y="684" on="0"/>
        <pt x="285" y="700" on="0"/>
        <pt x="296" y="700" on="1"/>
        <pt x="528" y="700" on="1"/>
        <pt x="535" y="700" on="0"/>
        <pt x="545" y="689" on="0"/>
        <pt x="542" y="674" on="0"/>
        <pt x="527" y="662" on="0"/>
        <pt x="519" y="662" on="1"/>
        <pt x="307" y="662" on="1"/>
        <pt x="150" y="-92" on="1"/>
        <pt x="362" y="-92" on="1"/>
        <pt x="369" y="-92" on="0"/>
        <pt x="378" y="-103" on="0"/>
        <pt x="375" y="-118" on="0"/>
        <pt x="361" y="-130" on="0"/>
        <pt x="353" y="-130" on="1"/>
        <pt x="121" y="-130" on="1"/>
        <pt x="111" y="-130" on="0"/>
        <pt x="99" y="-115" on="0"/>
      </contour>
    </TTGlyph>
    <TTGlyph name="bracketright" xMin="56" yMin="-130" xMax="499" yMax="700">
      <contour>
        <pt x="499" y="674" on="1"/>
        <pt x="336" y="-104" on="1"/>
        <pt x="334" y="-114" on="0"/>
        <pt x="315" y="-130" on="0"/>
        <pt x="304" y="-130" on="1"/>
        <pt x="72" y="-130" on="1"/>
        <pt x="65" y="-130" on="0"/>
        <pt x="55" y="-119" on="0"/>
        <pt x="58" y="-104" on="0"/>
        <pt x="73" y="-92" on="0"/>
        <pt x="81" y="-92" on="1"/>
        <pt x="293" y="-92" on="1"/>
        <pt x="450" y="662" on="1"/>
        <pt x="238" y="662" on="1"/>
        <pt x="231" y="662" on="0"/>
        <pt x="222" y="673" on="0"/>
        <pt x="225" y="688" on="0"/>
        <pt x="239" y="700" on="0"/>
        <pt x="247" y="700" on="1"/>
        <pt x="479" y="700" on="1"/>
        <pt x="489" y="700" on="0"/>
        <pt x="501" y="685" on="0"/>
      </contour>
    </TTGlyph>
    <TTGlyph name="bullet" xMin="123" yMin="228" xMax="372" yMax="476">
      <contour>
        <pt x="275" y="228" on="0"/>
        <pt x="173" y="228" on="0"/>
        <pt x="114" y="300" on="0"/>
        <pt x="123" y="351" on="1"/>
        <pt x="124" y="353" on="1"/>
        <pt x="133" y="403" on="0"/>
        <pt x="222" y="476" on="0"/>
        <pt x="320" y="476" on="0"/>
        <pt x="381" y="403" on="0"/>
        <pt x="372" y="353" on="1"/>
        <pt x="371" y="351" on="1"/>
        <pt x="362" y="300" on="0"/>
      </contour>
    </TTGlyph>
    <TTGlyph name="c" xMin="58" yMin="1" xMax="501" yMax="490">
      <contour>
        <pt x="58" y="208" on="1"/>
        <pt x="58" y="230" on="0"/>
        <pt x="62" y="249" on="1"/>
        <pt x="80" y="350" on="0"/>
        <pt x="247" y="489" on="0"/>
        <pt x="440" y="490" on="0"/>
        <pt x="500" y="436" on="1"/>
        <pt x="517" y="419" on="0"/>
        <pt x="484" y="384" on="0"/>
        <pt x="468" y="400" on="1"/>
        <pt x="421" y="442" on="0"/>
        <pt x="266" y="443" on="0"/>
        <pt x="194" y="383" on="1"/>
        <pt x="106" y="309" on="0"/>
        <pt x="106" y="208" on="1"/>
        <pt x="106" y="139" on="0"/>
        <pt x="199" y="50" on="0"/>
        <pt x="345" y="49" on="0"/>
        <pt x="409" y="93" on="1"/>
        <pt x="417" y="98" on="0"/>
        <pt x="437" y="94" on="0"/>
        <pt x="442" y="86" on="1"/>
        <pt x="454" y="66" on="0"/>
        <pt x="436" y="53" on="1"/>
        <pt x="358" y="1" on="0"/>
        <pt x="180" y="1" on="0"/>
        <pt x="58" y="119" on="0"/>
      </contour>
    </TTGlyph>
    <TTGlyph name="ccedilla" xMin="81" yMin="-127" xMax="571" yMax="537">
      <contour>
        <pt x="507" y="91" on="1"/>
        <pt x="411" y="8" on="0"/>
        <pt x="306" y="3" on="1"/>
        <pt x="233" y="-107" on="1"/>
        <pt x="220" y="-127" on="0"/>
        <pt x="191" y="-127" on="0"/>
        <pt x="172" y="-111" on="0"/>
        <pt x="174" y="-98" on="0"/>
        <pt x="181" y="-88" on="1"/>
        <pt x="261" y="5" on="1"/>
        <pt x="166" y="18" on="0"/>
        <pt x="64" y="169" on="0"/>
        <pt x="81" y="268" on="1"/>
        <pt x="81" y="270" on="1"/>
        <pt x="101" y="379" on="0"/>
        <pt x="280" y="537" on="0"/>
        <pt x="494" y="537" on="0"/>
        <pt x="566" y="456" on="1"/>
        <pt x="572" y="450" on="0"/>
        <pt x="569" y="428" on="0"/>
        <pt x="552" y="413" on="0"/>
        <pt x="530" y="413" on="0"/>
        <pt x="525" y="419" on="1"/>
        <pt x="462" y="491" on="0"/>
        <pt x="292" y="491" on="0"/>
        <pt x="151" y="364" on="0"/>
        <pt x="135" y="272" on="1"/>
        <pt x="134" y="270" on="1"/>
        <pt x="118" y="178" on="0"/>
        <pt x="217" y="49" on="0"/>
        <pt x="393" y="49" on="0"/>
        <pt x="478" y="122" on="1"/>
        <pt x="488" y="130" on="0"/>
        <pt x="505" y="130" on="0"/>
        <pt x="517" y="115" on="0"/>
        <pt x="515" y="106" on="1"/>
        <pt x="515" y="97" on="0"/>
      </contour>
    </TTGlyph>
    <TTGlyph name="cent" xMin="82" yMin="-10" xMax="573" yMax="710">
      <contour>
        <pt x="181" y="21" on="1"/>
        <pt x="212" y="103" on="1"/>
        <pt x="140" y="130" on="0"/>
        <pt x="67" y="268" on="0"/>
        <pt x="82" y="353" on="1"/>
        <pt x="83" y="355" on="1"/>
        <pt x="102" y="463" on="0"/>
        <pt x="282" y="622" on="0"/>
        <pt x="390" y="622" on="1"/>
        <pt x="405" y="622" on="1"/>
        <pt x="430" y="690" on="1"/>
        <pt x="438" y="710" on="0"/>
        <pt x="469" y="710" on="0"/>
        <pt x="481" y="692" on="0"/>
        <pt x="476" y="679" on="1"/>
        <pt x="452" y="615" on="1"/>
        <pt x="515" y="599" on="0"/>
        <pt x="567" y="540" on="1"/>
        <pt x="574" y="531" on="0"/>
        <pt x="573" y="520" on="1"/>
        <pt x="568" y="495" on="0"/>
        <pt x="545" y="495" on="1"/>
        <pt x="533" y="495" on="0"/>
        <pt x="527" y="503" on="1"/>
        <pt x="482" y="556" on="0"/>
        <pt x="432" y="569" on="1"/>
        <pt x="271" y="137" on="1"/>
        <pt x="289" y="134" on="0"/>
        <pt x="307" y="134" on="1"/>
        <pt x="394" y="134" on="0"/>
        <pt x="480" y="207" on="1"/>
        <pt x="491" y="216" on="0"/>
        <pt x="509" y="216" on="0"/>
        <pt x="520" y="202" on="0"/>
        <pt x="517" y="184" on="0"/>
        <pt x="508" y="177" on="1"/>
        <pt x="409" y="88" on="0"/>
        <pt x="296" y="88" on="1"/>
        <pt x="270" y="88" on="0"/>
        <pt x="257" y="90" on="1"/>
        <pt x="227" y="10" on="1"/>
        <pt x="219" y="-10" on="0"/>
        <pt x="187" y="-10" on="0"/>
        <pt x="176" y="8" on="0"/>
      </contour>
      <contour>
        <pt x="136" y="355" on="1"/>
        <pt x="123" y="285" on="0"/>
        <pt x="177" y="173" on="0"/>
        <pt x="233" y="149" on="1"/>
        <pt x="390" y="576" on="1"/>
        <pt x="381" y="576" on="1"/>
        <pt x="294" y="576" on="0"/>
        <pt x="153" y="449" on="0"/>
        <pt x="136" y="357" on="1"/>
      </contour>
    </TTGlyph>
    <TTGlyph name="circumflex" xMin="141" yMin="592" xMax="359" yMax="720">
      <contour>
        <pt x="257" y="663" on="1"/>
        <pt x="187" y="605" on="1"/>
        <pt x="170" y="592" on="0"/>
        <pt x="141" y="592" on="0"/>
        <pt x="141" y="602" on="1"/>
        <pt x="143" y="609" on="0"/>
        <pt x="148" y="614" on="1"/>
        <pt x="232" y="702" on="1"/>
        <pt x="248" y="720" on="0"/>
        <pt x="262" y="720" on="1"/>
        <pt x="270" y="720" on="1"/>
        <pt x="283" y="720" on="0"/>
        <pt x="296" y="702" on="1"/>
        <pt x="356" y="614" on="1"/>
        <pt x="360" y="607" on="0"/>
        <pt x="359" y="602" on="1"/>
        <pt x="359" y="592" on="0"/>
        <pt x="325" y="592" on="0"/>
        <pt x="313" y="605" on="1"/>
      </contour>
    </TTGlyph>
    <TTGlyph name="colon" xMin="90" yMin="-1" xMax="256" yMax="599">
      <contour>
        <pt x="240" y="599" on="0"/>
        <pt x="258" y="578" on="0"/>
        <pt x="253" y="548" on="0"/>
        <pt x="228" y="527" on="0"/>
        <pt x="198" y="527" on="0"/>
        <pt x="181" y="548" on="0"/>
        <pt x="184" y="563" on="1"/>
        <pt x="186" y="578" on="0"/>
        <pt x="211" y="599" on="0"/>
      </contour>
      <contour>
        <pt x="147" y="70" on="0"/>
        <pt x="164" y="49" on="0"/>
        <pt x="159" y="20" on="0"/>
        <pt x="135" y="-1" on="0"/>
        <pt x="105" y="-1" on="0"/>
        <pt x="88" y="20" on="0"/>
        <pt x="93" y="49" on="0"/>
        <pt x="118" y="70" on="0"/>
      </contour>
    </TTGlyph>
    <TTGlyph name="comma" xMin="56" yMin="-104" xMax="181" yMax="90">
      <contour>
        <pt x="56" y="-89" on="1"/>
        <pt x="58" y="-81" on="0"/>
        <pt x="67" y="-76" on="1"/>
        <pt x="124" y="-48" on="0"/>
        <pt x="131" y="1" on="1"/>
        <pt x="105" y="8" on="0"/>
        <pt x="111" y="36" on="1"/>
        <pt x="115" y="57" on="1"/>
        <pt x="119" y="71" on="0"/>
        <pt x="143" y="90" on="0"/>
        <pt x="170" y="90" on="0"/>
        <pt x="185" y="70" on="0"/>
        <pt x="181" y="57" on="1"/>
        <pt x="176" y="32" on="1"/>
        <pt x="160" y="-45" on="0"/>
        <pt x="128" y="-72" on="1"/>
        <pt x="87" y="-104" on="0"/>
        <pt x="68" y="-104" on="1"/>
        <pt x="53" y="-104" on="0"/>
      </contour>
    </TTGlyph>
    <TTGlyph name="copyright" xMin="53" yMin="-12" xMax="777" yMax="712">
      <contour>
        <pt x="565" y="-12" on="0"/>
        <pt x="263" y="-12" on="0"/>
        <pt x="53" y="199" on="0"/>
        <pt x="53" y="348" on="1"/>
        <pt x="53" y="350" on="1"/>
        <pt x="53" y="499" on="0"/>
        <pt x="265" y="712" on="0"/>
        <pt x="567" y="712" on="0"/>
        <pt x="777" y="501" on="0"/>
        <pt x="777" y="352" on="1"/>
        <pt x="777" y="350" on="1"/>
        <pt x="777" y="201" on="0"/>
      </contour>
      <contour>
        <pt x="273" y="16" on="0"/>
        <pt x="555" y="16" on="0"/>
        <pt x="747" y="211" on="0"/>
        <pt x="747" y="350" on="1"/>
        <pt x="747" y="352" on="1"/>
        <pt x="747" y="490" on="0"/>
        <pt x="557" y="684" on="0"/>
        <pt x="275" y="684" on="0"/>
        <pt x="83" y="489" on="0"/>
        <pt x="83" y="350" on="1"/>
        <pt x="83" y="348" on="1"/>
        <pt x="83" y="210" on="0"/>
      </contour>
      <contour>
        <pt x="553" y="220" on="1"/>
        <pt x="491" y="166" on="0"/>
        <pt x="342" y="166" on="0"/>
        <pt x="237" y="276" on="0"/>
        <pt x="237" y="354" on="1"/>
        <pt x="237" y="356" on="1"/>
        <pt x="237" y="433" on="0"/>
        <pt x="343" y="545" on="0"/>
        <pt x="492" y="545" on="0"/>
        <pt x="549" y="495" on="1"/>
        <pt x="558" y="488" on="0"/>
        <pt x="558" y="468" on="0"/>
        <pt x="545" y="456" on="0"/>
        <pt x="529" y="456" on="0"/>
        <pt x="520" y="463" on="1"/>
        <pt x="471" y="505" on="0"/>
        <pt x="360" y="505" on="0"/>
        <pt x="281" y="418" on="0"/>
        <pt x="281" y="357" on="1"/>
        <pt x="281" y="355" on="1"/>
        <pt x="281" y="294" on="0"/>
        <pt x="362" y="206" on="0"/>
        <pt x="477" y="206" on="0"/>
        <pt x="526" y="250" on="1"/>
        <pt x="534" y="255" on="0"/>
        <pt x="548" y="255" on="0"/>
        <pt x="560" y="243" on="0"/>
        <pt x="560" y="225" on="0"/>
      </contour>
    </TTGlyph>
    <TTGlyph name="d" xMin="60" yMin="1" xMax="614" yMax="701">
      <contour>
        <pt x="261" y="1" on="1"/>
        <pt x="173" y="1" on="0"/>
        <pt x="60" y="118" on="0"/>
        <pt x="60" y="206" on="1"/>
        <pt x="60" y="230" on="0"/>
        <pt x="64" y="250" on="1"/>
        <pt x="82" y="351" on="0"/>
        <pt x="241" y="490" on="0"/>
        <pt x="428" y="491" on="0"/>
        <pt x="485" y="432" on="1"/>
        <pt x="497" y="420" on="0"/>
        <pt x="515" y="392" on="1"/>
        <pt x="565" y="681" on="1"/>
        <pt x="567" y="691" on="0"/>
        <pt x="584" y="702" on="0"/>
        <pt x="594" y="701" on="1"/>
        <pt x="617" y="696" on="0"/>
        <pt x="614" y="672" on="1"/>
        <pt x="499" y="21" on="1"/>
        <pt x="498" y="12" on="0"/>
        <pt x="484" y="1" on="0"/>
        <pt x="475" y="1" on="1"/>
        <pt x="471" y="1" on="1"/>
        <pt x="460" y="3" on="0"/>
        <pt x="449" y="20" on="0"/>
        <pt x="451" y="30" on="1"/>
        <pt x="462" y="93" on="1"/>
        <pt x="377" y="1" on="0"/>
        <pt x="262" y="1" on="1"/>
      </contour>
      <contour>
        <pt x="112" y="242" on="1"/>
        <pt x="88" y="246" on="1"/>
        <pt x="112" y="242" on="1"/>
        <pt x="109" y="222" on="0"/>
        <pt x="109" y="206" on="1"/>
        <pt x="110" y="137" on="0"/>
        <pt x="193" y="51" on="0"/>
        <pt x="340" y="49" on="0"/>
        <pt x="408" y="108" on="1"/>
        <pt x="493" y="183" on="0"/>
        <pt x="493" y="286" on="1"/>
        <pt x="492" y="355" on="0"/>
        <pt x="408" y="441" on="0"/>
        <pt x="262" y="443" on="0"/>
        <pt x="126" y="324" on="0"/>
      </contour>
    </TTGlyph>
    <TTGlyph name="dagger" xMin="61" yMin="238" xMax="354" yMax="708">
      <contour>
        <pt x="136" y="261" on="1"/>
        <pt x="188" y="528" on="1"/>
        <pt x="81" y="522" on="1"/>
        <pt x="71" y="521" on="0"/>
        <pt x="59" y="534" on="0"/>
        <pt x="63" y="552" on="0"/>
        <pt x="79" y="566" on="0"/>
        <pt x="88" y="565" on="1"/>
        <pt x="192" y="559" on="1"/>
        <pt x="208" y="682" on="1"/>
        <pt x="209" y="693" on="0"/>
        <pt x="225" y="708" on="0"/>
        <pt x="247" y="708" on="0"/>
        <pt x="258" y="693" on="0"/>
        <pt x="256" y="682" on="1"/>
        <pt x="228" y="559" on="1"/>
        <pt x="334" y="565" on="1"/>
        <pt x="343" y="566" on="0"/>
        <pt x="355" y="552" on="0"/>
        <pt x="352" y="534" on="0"/>
        <pt x="335" y="521" on="0"/>
        <pt x="327" y="522" on="1"/>
        <pt x="222" y="528" on="1"/>
        <pt x="180" y="261" on="1"/>
        <pt x="175" y="238" on="0"/>
        <pt x="154" y="238" on="1"/>
        <pt x="145" y="238" on="0"/>
        <pt x="134" y="251" on="0"/>
      </contour>
    </TTGlyph>
    <TTGlyph name="daggerdbl" xMin="71" yMin="0" xMax="430" yMax="708">
      <contour>
        <pt x="168" y="26" on="1"/>
        <pt x="196" y="149" on="1"/>
        <pt x="90" y="143" on="1"/>
        <pt x="81" y="142" on="0"/>
        <pt x="69" y="156" on="0"/>
        <pt x="71" y="165" on="1"/>
        <pt x="72" y="174" on="0"/>
        <pt x="89" y="187" on="0"/>
        <pt x="97" y="186" on="1"/>
        <pt x="202" y="180" on="1"/>
        <pt x="228" y="354" on="1"/>
        <pt x="264" y="528" on="1"/>
        <pt x="157" y="522" on="1"/>
        <pt x="147" y="521" on="0"/>
        <pt x="135" y="534" on="0"/>
        <pt x="139" y="552" on="0"/>
        <pt x="155" y="566" on="0"/>
        <pt x="164" y="565" on="1"/>
        <pt x="268" y="559" on="1"/>
        <pt x="284" y="682" on="1"/>
        <pt x="285" y="693" on="0"/>
        <pt x="301" y="708" on="0"/>
        <pt x="323" y="708" on="0"/>
        <pt x="334" y="693" on="0"/>
        <pt x="332" y="682" on="1"/>
        <pt x="304" y="559" on="1"/>
        <pt x="410" y="565" on="1"/>
        <pt x="419" y="566" on="0"/>
        <pt x="431" y="552" on="0"/>
        <pt x="428" y="534" on="0"/>
        <pt x="411" y="521" on="0"/>
        <pt x="403" y="522" on="1"/>
        <pt x="298" y="528" on="1"/>
        <pt x="272" y="354" on="1"/>
        <pt x="236" y="180" on="1"/>
        <pt x="343" y="186" on="1"/>
        <pt x="353" y="187" on="0"/>
        <pt x="365" y="174" on="0"/>
        <pt x="361" y="156" on="0"/>
        <pt x="345" y="142" on="0"/>
        <pt x="336" y="143" on="1"/>
        <pt x="232" y="149" on="1"/>
        <pt x="216" y="26" on="1"/>
        <pt x="214" y="15" on="0"/>
        <pt x="199" y="0" on="0"/>
        <pt x="177" y="0" on="0"/>
        <pt x="165" y="15" on="0"/>
      </contour>
    </TTGlyph>
    <TTGlyph name="dieresis" xMin="138" yMin="594" xMax="389" yMax="680">
      <contour>
        <pt x="138" y="637" on="1"/>
        <pt x="141" y="655" on="0"/>
        <pt x="170" y="680" on="0"/>
        <pt x="206" y="680" on="0"/>
        <pt x="227" y="655" on="0"/>
        <pt x="220" y="619" on="0"/>
        <pt x="191" y="594" on="0"/>
        <pt x="155" y="594" on="0"/>
        <pt x="134" y="619" on="0"/>
      </contour>
      <contour>
        <pt x="303" y="637" on="1"/>
        <pt x="306" y="655" on="0"/>
        <pt x="335" y="680" on="0"/>
        <pt x="371" y="680" on="0"/>
        <pt x="392" y="655" on="0"/>
        <pt x="385" y="619" on="0"/>
        <pt x="356" y="594" on="0"/>
        <pt x="320" y="594" on="0"/>
        <pt x="299" y="619" on="0"/>
      </contour>
    </TTGlyph>
    <TTGlyph name="divide" xMin="67" yMin="27" xMax="560" yMax="509">
      <contour>
        <pt x="84" y="244" on="1"/>
        <pt x="528" y="244" on="1"/>
        <pt x="549" y="244" on="0"/>
        <pt x="560" y="268" on="1"/>
        <pt x="562" y="278" on="0"/>
        <pt x="551" y="292" on="0"/>
        <pt x="541" y="292" on="1"/>
        <pt x="97" y="292" on="1"/>
        <pt x="87" y="292" on="0"/>
        <pt x="70" y="278" on="0"/>
        <pt x="65" y="258" on="0"/>
        <pt x="74" y="244" on="0"/>
      </contour>
      <contour>
        <pt x="337" y="486" on="0"/>
        <pt x="367" y="509" on="0"/>
        <pt x="400" y="509" on="0"/>
        <pt x="417" y="485" on="0"/>
        <pt x="412" y="469" on="1"/>
        <pt x="407" y="452" on="1"/>
        <pt x="403" y="436" on="0"/>
        <pt x="372" y="412" on="0"/>
        <pt x="339" y="412" on="0"/>
        <pt x="322" y="435" on="0"/>
        <pt x="327" y="452" on="1"/>
        <pt x="332" y="469" on="1"/>
      </contour>
      <contour>
        <pt x="222" y="100" on="0"/>
        <pt x="253" y="124" on="0"/>
        <pt x="286" y="124" on="0"/>
        <pt x="303" y="101" on="0"/>
        <pt x="298" y="84" on="1"/>
        <pt x="293" y="67" on="1"/>
        <pt x="288" y="50" on="0"/>
        <pt x="258" y="27" on="0"/>
        <pt x="225" y="27" on="0"/>
        <pt x="208" y="51" on="0"/>
        <pt x="213" y="67" on="1"/>
        <pt x="218" y="84" on="1"/>
      </contour>
    </TTGlyph>
    <TTGlyph name="dollar" xMin="62" yMin="-102" xMax="662" yMax="762">
      <contour>
        <pt x="454" y="738" on="1"/>
        <pt x="457" y="748" on="0"/>
        <pt x="475" y="762" on="0"/>
        <pt x="495" y="762" on="0"/>
        <pt x="505" y="748" on="0"/>
        <pt x="502" y="738" on="1"/>
        <pt x="493" y="698" on="1"/>
        <pt x="585" y="690" on="0"/>
        <pt x="653" y="628" on="1"/>
        <pt x="664" y="617" on="0"/>
        <pt x="659" y="595" on="0"/>
        <pt x="640" y="580" on="0"/>
        <pt x="619" y="580" on="0"/>
        <pt x="613" y="587" on="1"/>
        <pt x="557" y="643" on="0"/>
        <pt x="479" y="652" on="1"/>
        <pt x="408" y="372" on="1"/>
        <pt x="516" y="348" on="0"/>
        <pt x="596" y="259" on="0"/>
        <pt x="558" y="106" on="0"/>
        <pt x="412" y="3" on="0"/>
        <pt x="317" y="0" on="1"/>
        <pt x="298" y="-78" on="1"/>
        <pt x="295" y="-88" on="0"/>
        <pt x="277" y="-102" on="0"/>
        <pt x="257" y="-102" on="0"/>
        <pt x="247" y="-88" on="0"/>
        <pt x="250" y="-78" on="1"/>
        <pt x="269" y="1" on="1"/>
        <pt x="147" y="11" on="0"/>
        <pt x="68" y="98" on="1"/>
        <pt x="60" y="107" on="0"/>
        <pt x="65" y="129" on="0"/>
        <pt x="84" y="144" on="0"/>
        <pt x="105" y="144" on="0"/>
        <pt x="110" y="137" on="1"/>
        <pt x="176" y="57" on="0"/>
        <pt x="282" y="46" on="1"/>
        <pt x="355" y="331" on="1"/>
        <pt x="248" y="356" on="0"/>
        <pt x="171" y="444" on="0"/>
        <pt x="209" y="595" on="0"/>
        <pt x="354" y="698" on="0"/>
        <pt x="445" y="700" on="1"/>
      </contour>
      <contour>
        <pt x="400" y="46" on="0"/>
        <pt x="512" y="123" on="0"/>
        <pt x="539" y="235" on="0"/>
        <pt x="484" y="300" on="0"/>
        <pt x="396" y="321" on="1"/>
        <pt x="326" y="45" on="1"/>
      </contour>
      <contour>
        <pt x="364" y="654" on="0"/>
        <pt x="256" y="578" on="0"/>
        <pt x="228" y="469" on="0"/>
        <pt x="280" y="404" on="0"/>
        <pt x="368" y="382" on="1"/>
        <pt x="436" y="655" on="1"/>
      </contour>
    </TTGlyph>
    <TTGlyph name="e" xMin="58" yMin="1" xMax="539" yMax="490">
      <contour>
        <pt x="539" y="286" on="1"/>
        <pt x="539" y="272" on="0"/>
        <pt x="536" y="254" on="1"/>
        <pt x="530" y="235" on="0"/>
        <pt x="513" y="235" on="1"/>
        <pt x="108" y="235" on="1"/>
        <pt x="106" y="225" on="0"/>
        <pt x="106" y="205" on="1"/>
        <pt x="106" y="137" on="0"/>
        <pt x="191" y="50" on="0"/>
        <pt x="250" y="50" on="1"/>
        <pt x="363" y="49" on="0"/>
        <pt x="436" y="139" on="1"/>
        <pt x="443" y="147" on="0"/>
        <pt x="462" y="149" on="0"/>
        <pt x="470" y="142" on="1"/>
        <pt x="488" y="127" on="0"/>
        <pt x="473" y="110" on="1"/>
        <pt x="434" y="60" on="0"/>
        <pt x="321" y="1" on="0"/>
        <pt x="259" y="1" on="1"/>
        <pt x="258" y="1" on="1"/>
        <pt x="171" y="1" on="0"/>
        <pt x="58" y="118" on="0"/>
        <pt x="58" y="205" on="1"/>
        <pt x="58" y="229" on="0"/>
        <pt x="62" y="250" on="1"/>
        <pt x="80" y="350" on="0"/>
        <pt x="239" y="489" on="0"/>
        <pt x="425" y="490" on="0"/>
        <pt x="539" y="372" on="0"/>
      </contour>
      <contour>
        <pt x="406" y="441" on="0"/>
        <pt x="270" y="443" on="0"/>
        <pt x="147" y="352" on="0"/>
        <pt x="121" y="284" on="1"/>
        <pt x="491" y="284" on="1"/>
        <pt x="491" y="286" on="1"/>
        <pt x="490" y="354" on="0"/>
      </contour>
    </TTGlyph>
    <TTGlyph name="eacute" xMin="61" yMin="1" xMax="542" yMax="723">
      <contour>
        <pt x="542" y="286" on="1"/>
        <pt x="542" y="272" on="0"/>
        <pt x="539" y="254" on="1"/>
        <pt x="533" y="235" on="0"/>
        <pt x="516" y="235" on="1"/>
        <pt x="111" y="235" on="1"/>
        <pt x="109" y="225" on="0"/>
        <pt x="109" y="205" on="1"/>
        <pt x="109" y="137" on="0"/>
        <pt x="194" y="50" on="0"/>
        <pt x="253" y="50" on="1"/>
        <pt x="366" y="49" on="0"/>
        <pt x="439" y="139" on="1"/>
        <pt x="446" y="147" on="0"/>
        <pt x="465" y="149" on="0"/>
        <pt x="473" y="142" on="1"/>
        <pt x="491" y="127" on="0"/>
        <pt x="476" y="110" on="1"/>
        <pt x="437" y="60" on="0"/>
        <pt x="324" y="1" on="0"/>
        <pt x="262" y="1" on="1"/>
        <pt x="261" y="1" on="1"/>
        <pt x="174" y="1" on="0"/>
        <pt x="61" y="118" on="0"/>
        <pt x="61" y="205" on="1"/>
        <pt x="61" y="229" on="0"/>
        <pt x="65" y="250" on="1"/>
        <pt x="83" y="350" on="0"/>
        <pt x="242" y="489" on="0"/>
        <pt x="428" y="490" on="0"/>
        <pt x="542" y="372" on="0"/>
      </contour>
      <contour>
        <pt x="409" y="441" on="0"/>
        <pt x="273" y="443" on="0"/>
        <pt x="150" y="352" on="0"/>
        <pt x="124" y="284" on="1"/>
        <pt x="494" y="284" on="1"/>
        <pt x="494" y="286" on="1"/>
        <pt x="493" y="354" on="0"/>
      </contour>
      <contour>
        <pt x="322" y="605" on="1"/>
        <pt x="310" y="592" on="0"/>
        <pt x="278" y="592" on="0"/>
        <pt x="278" y="601" on="1"/>
        <pt x="277" y="607" on="0"/>
        <pt x="280" y="612" on="1"/>
        <pt x="329" y="705" on="1"/>
        <pt x="338" y="723" on="0"/>
        <pt x="368" y="723" on="0"/>
        <pt x="398" y="708" on="0"/>
        <pt x="400" y="693" on="0"/>
        <pt x="391" y="682" on="1"/>
      </contour>
    </TTGlyph>
    <TTGlyph name="ecircumflex" xMin="61" yMin="1" xMax="542" yMax="720">
      <contour>
        <pt x="542" y="286" on="1"/>
        <pt x="542" y="272" on="0"/>
        <pt x="539" y="254" on="1"/>
        <pt x="533" y="235" on="0"/>
        <pt x="516" y="235" on="1"/>
        <pt x="111" y="235" on="1"/>
        <pt x="109" y="225" on="0"/>
        <pt x="109" y="205" on="1"/>
        <pt x="109" y="137" on="0"/>
        <pt x="194" y="50" on="0"/>
        <pt x="253" y="50" on="1"/>
        <pt x="366" y="49" on="0"/>
        <pt x="439" y="139" on="1"/>
        <pt x="446" y="147" on="0"/>
        <pt x="465" y="149" on="0"/>
        <pt x="473" y="142" on="1"/>
        <pt x="491" y="127" on="0"/>
        <pt x="476" y="110" on="1"/>
        <pt x="437" y="60" on="0"/>
        <pt x="324" y="1" on="0"/>
        <pt x="262" y="1" on="1"/>
        <pt x="261" y="1" on="1"/>
        <pt x="174" y="1" on="0"/>
        <pt x="61" y="118" on="0"/>
        <pt x="61" y="205" on="1"/>
        <pt x="61" y="229" on="0"/>
        <pt x="65" y="250" on="1"/>
        <pt x="83" y="350" on="0"/>
        <pt x="242" y="489" on="0"/>
        <pt x="428" y="490" on="0"/>
        <pt x="542" y="372" on="0"/>
      </contour>
      <contour>
        <pt x="409" y="441" on="0"/>
        <pt x="273" y="443" on="0"/>
        <pt x="150" y="352" on="0"/>
        <pt x="124" y="284" on="1"/>
        <pt x="494" y="284" on="1"/>
        <pt x="494" y="286" on="1"/>
        <pt x="493" y="354" on="0"/>
      </contour>
      <contour>
        <pt x="395" y="663" on="1"/>
        <pt x="325" y="605" on="1"/>
        <pt x="308" y="592" on="0"/>
        <pt x="279" y="592" on="0"/>
        <pt x="279" y="602" on="1"/>
        <pt x="281" y="609" on="0"/>
        <pt x="286" y="614" on="1"/>
        <pt x="370" y="702" on="1"/>
        <pt x="386" y="720" on="0"/>
        <pt x="400" y="720" on="1"/>
        <pt x="408" y="720" on="1"/>
        <pt x="421" y="720" on="0"/>
        <pt x="434" y="702" on="1"/>
        <pt x="494" y="614" on="1"/>
        <pt x="498" y="607" on="0"/>
        <pt x="497" y="602" on="1"/>
        <pt x="497" y="592" on="0"/>
        <pt x="463" y="592" on="0"/>
        <pt x="451" y="605" on="1"/>
      </contour>
    </TTGlyph>
    <TTGlyph name="edieresis" xMin="58" yMin="1" xMax="539" yMax="680">
      <contour>
        <pt x="539" y="286" on="1"/>
        <pt x="539" y="272" on="0"/>
        <pt x="536" y="254" on="1"/>
        <pt x="530" y="235" on="0"/>
        <pt x="513" y="235" on="1"/>
        <pt x="108" y="235" on="1"/>
        <pt x="106" y="225" on="0"/>
        <pt x="106" y="205" on="1"/>
        <pt x="106" y="137" on="0"/>
        <pt x="191" y="50" on="0"/>
        <pt x="250" y="50" on="1"/>
        <pt x="363" y="49" on="0"/>
        <pt x="436" y="139" on="1"/>
        <pt x="443" y="147" on="0"/>
        <pt x="462" y="149" on="0"/>
        <pt x="470" y="142" on="1"/>
        <pt x="488" y="127" on="0"/>
        <pt x="473" y="110" on="1"/>
        <pt x="434" y="60" on="0"/>
        <pt x="321" y="1" on="0"/>
        <pt x="259" y="1" on="1"/>
        <pt x="258" y="1" on="1"/>
        <pt x="171" y="1" on="0"/>
        <pt x="58" y="118" on="0"/>
        <pt x="58" y="205" on="1"/>
        <pt x="58" y="229" on="0"/>
        <pt x="62" y="250" on="1"/>
        <pt x="80" y="350" on="0"/>
        <pt x="239" y="489" on="0"/>
        <pt x="425" y="490" on="0"/>
        <pt x="539" y="372" on="0"/>
      </contour>
      <contour>
        <pt x="406" y="441" on="0"/>
        <pt x="270" y="443" on="0"/>
        <pt x="147" y="352" on="0"/>
        <pt x="121" y="284" on="1"/>
        <pt x="491" y="284" on="1"/>
        <pt x="491" y="286" on="1"/>
        <pt x="490" y="354" on="0"/>
      </contour>
      <contour>
        <pt x="271" y="637" on="1"/>
        <pt x="274" y="655" on="0"/>
        <pt x="303" y="680" on="0"/>
        <pt x="339" y="680" on="0"/>
        <pt x="360" y="655" on="0"/>
        <pt x="353" y="619" on="0"/>
        <pt x="324" y="594" on="0"/>
        <pt x="288" y="594" on="0"/>
        <pt x="267" y="619" on="0"/>
      </contour>
      <contour>
        <pt x="436" y="637" on="1"/>
        <pt x="439" y="655" on="0"/>
        <pt x="468" y="680" on="0"/>
        <pt x="504" y="680" on="0"/>
        <pt x="525" y="655" on="0"/>
        <pt x="518" y="619" on="0"/>
        <pt x="489" y="594" on="0"/>
        <pt x="453" y="594" on="0"/>
        <pt x="432" y="619" on="0"/>
      </contour>
    </TTGlyph>
    <TTGlyph name="egrave" xMin="61" yMin="1" xMax="542" yMax="723">
      <contour>
        <pt x="542" y="286" on="1"/>
        <pt x="542" y="272" on="0"/>
        <pt x="539" y="254" on="1"/>
        <pt x="533" y="235" on="0"/>
        <pt x="516" y="235" on="1"/>
        <pt x="111" y="235" on="1"/>
        <pt x="109" y="225" on="0"/>
        <pt x="109" y="205" on="1"/>
        <pt x="109" y="137" on="0"/>
        <pt x="194" y="50" on="0"/>
        <pt x="253" y="50" on="1"/>
        <pt x="366" y="49" on="0"/>
        <pt x="439" y="139" on="1"/>
        <pt x="446" y="147" on="0"/>
        <pt x="465" y="149" on="0"/>
        <pt x="473" y="142" on="1"/>
        <pt x="491" y="127" on="0"/>
        <pt x="476" y="110" on="1"/>
        <pt x="437" y="60" on="0"/>
        <pt x="324" y="1" on="0"/>
        <pt x="262" y="1" on="1"/>
        <pt x="261" y="1" on="1"/>
        <pt x="174" y="1" on="0"/>
        <pt x="61" y="118" on="0"/>
        <pt x="61" y="205" on="1"/>
        <pt x="61" y="229" on="0"/>
        <pt x="65" y="250" on="1"/>
        <pt x="83" y="350" on="0"/>
        <pt x="242" y="489" on="0"/>
        <pt x="428" y="490" on="0"/>
        <pt x="542" y="372" on="0"/>
      </contour>
      <contour>
        <pt x="409" y="441" on="0"/>
        <pt x="273" y="443" on="0"/>
        <pt x="150" y="352" on="0"/>
        <pt x="124" y="284" on="1"/>
        <pt x="494" y="284" on="1"/>
        <pt x="494" y="286" on="1"/>
        <pt x="493" y="354" on="0"/>
      </contour>
      <contour>
        <pt x="456" y="601" on="1"/>
        <pt x="456" y="592" on="0"/>
        <pt x="424" y="592" on="0"/>
        <pt x="412" y="605" on="1"/>
        <pt x="343" y="682" on="1"/>
        <pt x="334" y="693" on="0"/>
        <pt x="336" y="708" on="0"/>
        <pt x="366" y="723" on="0"/>
        <pt x="396" y="723" on="0"/>
        <pt x="405" y="705" on="1"/>
        <pt x="454" y="612" on="1"/>
        <pt x="457" y="607" on="0"/>
      </contour>
    </TTGlyph>
    <TTGlyph name="eight" xMin="55" yMin="0" xMax="516" yMax="700">
      <contour>
        <pt x="409" y="435" on="1"/>
        <pt x="438" y="421" on="0"/>
        <pt x="461" y="399" on="1"/>
        <pt x="516" y="344" on="0"/>
        <pt x="516" y="262" on="1"/>
        <pt x="516" y="147" on="0"/>
        <pt x="420" y="66" on="1"/>
        <pt x="344" y="1" on="0"/>
        <pt x="167" y="0" on="0"/>
        <pt x="110" y="55" on="1"/>
        <pt x="55" y="110" on="0"/>
        <pt x="55" y="191" on="1"/>
        <pt x="55" y="283" on="0"/>
        <pt x="121" y="358" on="1"/>
        <pt x="170" y="414" on="0"/>
        <pt x="238" y="438" on="1"/>
        <pt x="231" y="445" on="1"/>
        <pt x="196" y="480" on="0"/>
        <pt x="196" y="533" on="1"/>
        <pt x="196" y="607" on="0"/>
        <pt x="257" y="658" on="1"/>
        <pt x="305" y="699" on="0"/>
        <pt x="420" y="700" on="0"/>
        <pt x="491" y="629" on="0"/>
        <pt x="491" y="576" on="1"/>
        <pt x="491" y="559" on="0"/>
        <pt x="489" y="550" on="1"/>
        <pt x="475" y="475" on="0"/>
      </contour>
      <contour>
        <pt x="245" y="550" on="1"/>
        <pt x="221" y="554" on="1"/>
        <pt x="245" y="550" on="1"/>
        <pt x="244" y="544" on="0"/>
        <pt x="244" y="533" on="1"/>
        <pt x="244" y="500" on="0"/>
        <pt x="286" y="458" on="0"/>
        <pt x="363" y="456" on="0"/>
        <pt x="399" y="487" on="1"/>
        <pt x="443" y="525" on="0"/>
        <pt x="443" y="576" on="1"/>
        <pt x="443" y="609" on="0"/>
        <pt x="401" y="651" on="0"/>
        <pt x="324" y="653" on="0"/>
        <pt x="252" y="591" on="0"/>
      </contour>
      <contour>
        <pt x="388" y="102" on="1"/>
        <pt x="468" y="170" on="0"/>
        <pt x="468" y="262" on="1"/>
        <pt x="467" y="325" on="0"/>
        <pt x="387" y="405" on="0"/>
        <pt x="247" y="406" on="0"/>
        <pt x="119" y="297" on="0"/>
        <pt x="106" y="223" on="1"/>
        <pt x="83" y="227" on="1"/>
        <pt x="106" y="223" on="1"/>
        <pt x="103" y="206" on="0"/>
        <pt x="103" y="191" on="1"/>
        <pt x="104" y="129" on="0"/>
        <pt x="185" y="49" on="0"/>
        <pt x="324" y="47" on="0"/>
      </contour>
    </TTGlyph>
    <TTGlyph name="ellipsis" xMin="88" yMin="0" xMax="684" yMax="115">
      <contour>
        <pt x="180" y="115" on="0"/>
        <pt x="206" y="82" on="0"/>
        <pt x="197" y="33" on="0"/>
        <pt x="158" y="0" on="0"/>
        <pt x="108" y="0" on="0"/>
        <pt x="84" y="33" on="0"/>
        <pt x="93" y="82" on="0"/>
        <pt x="130" y="115" on="0"/>
      </contour>
      <contour>
        <pt x="421" y="115" on="0"/>
        <pt x="447" y="82" on="0"/>
        <pt x="438" y="33" on="0"/>
        <pt x="399" y="0" on="0"/>
        <pt x="349" y="0" on="0"/>
        <pt x="325" y="33" on="0"/>
        <pt x="334" y="82" on="0"/>
        <pt x="371" y="115" on="0"/>
      </contour>
      <contour>
        <pt x="662" y="115" on="0"/>
        <pt x="688" y="82" on="0"/>
        <pt x="679" y="33" on="0"/>
        <pt x="640" y="0" on="0"/>
        <pt x="590" y="0" on="0"/>
        <pt x="566" y="33" on="0"/>
        <pt x="575" y="82" on="0"/>
        <pt x="612" y="115" on="0"/>
      </contour>
    </TTGlyph>
    <TTGlyph name="emdash" xMin="70" yMin="271" xMax="836" yMax="323">
      <contour>
        <pt x="89" y="271" on="1"/>
        <pt x="78" y="271" on="0"/>
        <pt x="67" y="287" on="0"/>
        <pt x="70" y="297" on="1"/>
        <pt x="72" y="307" on="0"/>
        <pt x="91" y="323" on="0"/>
        <pt x="102" y="323" on="1"/>
        <pt x="816" y="323" on="1"/>
        <pt x="826" y="323" on="0"/>
        <pt x="838" y="308" on="0"/>
        <pt x="833" y="286" on="0"/>
        <pt x="813" y="271" on="0"/>
        <pt x="803" y="271" on="1"/>
      </contour>
    </TTGlyph>
    <TTGlyph name="endash" xMin="69" yMin="271" xMax="465" yMax="323">
      <contour>
        <pt x="90" y="271" on="1"/>
        <pt x="79" y="271" on="0"/>
        <pt x="67" y="287" on="0"/>
        <pt x="69" y="297" on="1"/>
        <pt x="70" y="307" on="0"/>
        <pt x="88" y="323" on="0"/>
        <pt x="99" y="323" on="1"/>
        <pt x="443" y="323" on="1"/>
        <pt x="453" y="323" on="0"/>
        <pt x="467" y="308" on="0"/>
        <pt x="463" y="286" on="0"/>
        <pt x="444" y="271" on="0"/>
        <pt x="434" y="271" on="1"/>
      </contour>
    </TTGlyph>
    <TTGlyph name="equal" xMin="79" yMin="210" xMax="545" yMax="490">
      <contour>
        <pt x="477" y="267" on="1"/>
        <pt x="490" y="267" on="0"/>
        <pt x="506" y="250" on="0"/>
        <pt x="506" y="227" on="0"/>
        <pt x="490" y="210" on="0"/>
        <pt x="477" y="210" on="1"/>
        <pt x="107" y="210" on="1"/>
        <pt x="96" y="210" on="0"/>
        <pt x="79" y="227" on="0"/>
        <pt x="79" y="250" on="0"/>
        <pt x="96" y="267" on="0"/>
        <pt x="107" y="267" on="1"/>
      </contour>
      <contour>
        <pt x="517" y="490" on="1"/>
        <pt x="528" y="490" on="0"/>
        <pt x="545" y="473" on="0"/>
        <pt x="545" y="450" on="0"/>
        <pt x="528" y="433" on="0"/>
        <pt x="517" y="433" on="1"/>
        <pt x="147" y="433" on="1"/>
        <pt x="135" y="433" on="0"/>
        <pt x="118" y="449" on="0"/>
        <pt x="118" y="473" on="0"/>
        <pt x="135" y="490" on="0"/>
        <pt x="147" y="490" on="1"/>
      </contour>
    </TTGlyph>
    <TTGlyph name="eth" xMin="82" yMin="-2" xMax="593" yMax="746">
      <contour>
        <pt x="531" y="433" on="1"/>
        <pt x="420" y="641" on="1"/>
        <pt x="287" y="579" on="1"/>
        <pt x="281" y="576" on="0"/>
        <pt x="266" y="576" on="0"/>
        <pt x="255" y="590" on="0"/>
        <pt x="260" y="612" on="0"/>
        <pt x="275" y="619" on="1"/>
        <pt x="402" y="676" on="1"/>
        <pt x="388" y="702" on="1"/>
        <pt x="384" y="711" on="0"/>
        <pt x="385" y="720" on="1"/>
        <pt x="391" y="744" on="0"/>
        <pt x="415" y="744" on="1"/>
        <pt x="428" y="744" on="0"/>
        <pt x="435" y="731" on="1"/>
        <pt x="451" y="699" on="1"/>
        <pt x="544" y="743" on="1"/>
        <pt x="552" y="746" on="0"/>
        <pt x="566" y="746" on="0"/>
        <pt x="577" y="732" on="0"/>
        <pt x="572" y="710" on="0"/>
        <pt x="557" y="703" on="1"/>
        <pt x="469" y="663" on="1"/>
        <pt x="549" y="502" on="1"/>
        <pt x="581" y="437" on="0"/>
        <pt x="605" y="326" on="0"/>
        <pt x="593" y="258" on="1"/>
        <pt x="574" y="151" on="0"/>
        <pt x="402" y="-2" on="0"/>
        <pt x="182" y="-2" on="0"/>
        <pt x="64" y="149" on="0"/>
        <pt x="101" y="360" on="0"/>
        <pt x="267" y="496" on="0"/>
        <pt x="461" y="496" on="0"/>
      </contour>
      <contour>
        <pt x="389" y="44" on="0"/>
        <pt x="524" y="167" on="0"/>
        <pt x="553" y="335" on="0"/>
        <pt x="452" y="452" on="0"/>
        <pt x="276" y="452" on="0"/>
        <pt x="150" y="338" on="0"/>
        <pt x="120" y="168" on="0"/>
        <pt x="215" y="44" on="0"/>
      </contour>
    </TTGlyph>
    <TTGlyph name="exclam" xMin="96" yMin="-2" xMax="259" yMax="698">
      <contour>
        <pt x="229" y="700" on="0"/>
        <pt x="249" y="696" on="0"/>
        <pt x="260" y="679" on="0"/>
        <pt x="259" y="669" on="1"/>
        <pt x="170" y="167" on="1"/>
        <pt x="167" y="147" on="0"/>
        <pt x="146" y="147" on="1"/>
        <pt x="142" y="147" on="1"/>
        <pt x="119" y="152" on="0"/>
        <pt x="122" y="176" on="1"/>
        <pt x="211" y="678" on="1"/>
        <pt x="212" y="688" on="0"/>
      </contour>
      <contour>
        <pt x="128" y="70" on="1"/>
        <pt x="151" y="65" on="0"/>
        <pt x="148" y="41" on="1"/>
        <pt x="144" y="18" on="1"/>
        <pt x="143" y="9" on="0"/>
        <pt x="128" y="-2" on="0"/>
        <pt x="120" y="-2" on="1"/>
        <pt x="116" y="-2" on="1"/>
        <pt x="105" y="0" on="0"/>
        <pt x="94" y="17" on="0"/>
        <pt x="96" y="27" on="1"/>
        <pt x="100" y="50" on="1"/>
        <pt x="101" y="60" on="0"/>
        <pt x="118" y="72" on="0"/>
      </contour>
    </TTGlyph>
    <TTGlyph name="exclamdown" xMin="95" yMin="0" xMax="258" yMax="700">
      <contour>
        <pt x="125" y="-2" on="0"/>
        <pt x="105" y="2" on="0"/>
        <pt x="94" y="19" on="0"/>
        <pt x="95" y="29" on="1"/>
        <pt x="184" y="531" on="1"/>
        <pt x="187" y="551" on="0"/>
        <pt x="208" y="551" on="1"/>
        <pt x="212" y="551" on="1"/>
        <pt x="235" y="546" on="0"/>
        <pt x="232" y="522" on="1"/>
        <pt x="143" y="20" on="1"/>
        <pt x="142" y="10" on="0"/>
      </contour>
      <contour>
        <pt x="226" y="628" on="1"/>
        <pt x="203" y="633" on="0"/>
        <pt x="206" y="657" on="1"/>
        <pt x="210" y="680" on="1"/>
        <pt x="211" y="689" on="0"/>
        <pt x="226" y="700" on="0"/>
        <pt x="234" y="700" on="1"/>
        <pt x="238" y="700" on="1"/>
        <pt x="249" y="698" on="0"/>
        <pt x="260" y="681" on="0"/>
        <pt x="258" y="671" on="1"/>
        <pt x="254" y="648" on="1"/>
        <pt x="253" y="638" on="0"/>
        <pt x="236" y="626" on="0"/>
      </contour>
    </TTGlyph>
    <TTGlyph name="f" xMin="71" yMin="-1" xMax="347" yMax="699">
      <contour>
        <pt x="327" y="699" on="1"/>
        <pt x="337" y="699" on="0"/>
        <pt x="348" y="684" on="0"/>
        <pt x="345" y="664" on="0"/>
        <pt x="328" y="650" on="0"/>
        <pt x="318" y="650" on="1"/>
        <pt x="274" y="650" on="0"/>
        <pt x="230" y="609" on="0"/>
        <pt x="219" y="550" on="1"/>
        <pt x="210" y="498" on="1"/>
        <pt x="279" y="498" on="1"/>
        <pt x="289" y="498" on="0"/>
        <pt x="301" y="484" on="0"/>
        <pt x="298" y="464" on="0"/>
        <pt x="281" y="449" on="0"/>
        <pt x="271" y="449" on="1"/>
        <pt x="202" y="449" on="1"/>
        <pt x="126" y="23" on="1"/>
        <pt x="125" y="13" on="0"/>
        <pt x="108" y="-1" on="0"/>
        <pt x="88" y="-1" on="0"/>
        <pt x="76" y="13" on="0"/>
        <pt x="78" y="23" on="1"/>
        <pt x="153" y="449" on="1"/>
        <pt x="87" y="449" on="1"/>
        <pt x="77" y="449" on="0"/>
        <pt x="72" y="456" on="1"/>
        <pt x="58" y="475" on="0"/>
        <pt x="78" y="491" on="1"/>
        <pt x="86" y="498" on="0"/>
        <pt x="96" y="498" on="1"/>
        <pt x="161" y="498" on="1"/>
        <pt x="170" y="550" on="1"/>
        <pt x="184" y="627" on="0"/>
        <pt x="222" y="664" on="1"/>
        <pt x="261" y="699" on="0"/>
      </contour>
    </TTGlyph>
    <TTGlyph name="five" xMin="63" yMin="-1" xMax="580" yMax="699">
      <contour>
        <pt x="554" y="699" on="1"/>
        <pt x="565" y="699" on="0"/>
        <pt x="580" y="684" on="0"/>
        <pt x="580" y="664" on="0"/>
        <pt x="565" y="649" on="0"/>
        <pt x="554" y="649" on="1"/>
        <pt x="245" y="649" on="1"/>
        <pt x="184" y="445" on="1"/>
        <pt x="244" y="474" on="0"/>
        <pt x="303" y="474" on="1"/>
        <pt x="403" y="474" on="0"/>
        <pt x="461" y="403" on="1"/>
        <pt x="506" y="348" on="0"/>
        <pt x="506" y="283" on="1"/>
        <pt x="506" y="155" on="0"/>
        <pt x="405" y="67" on="1"/>
        <pt x="323" y="-1" on="0"/>
        <pt x="128" y="-1" on="0"/>
        <pt x="69" y="70" on="1"/>
        <pt x="62" y="78" on="0"/>
        <pt x="64" y="99" on="0"/>
        <pt x="72" y="106" on="1"/>
        <pt x="93" y="121" on="0"/>
        <pt x="108" y="102" on="1"/>
        <pt x="150" y="49" on="0"/>
        <pt x="306" y="49" on="0"/>
        <pt x="372" y="106" on="1"/>
        <pt x="412" y="140" on="0"/>
        <pt x="456" y="229" on="0"/>
        <pt x="456" y="331" on="0"/>
        <pt x="422" y="371" on="1"/>
        <pt x="380" y="424" on="0"/>
        <pt x="224" y="424" on="0"/>
        <pt x="158" y="367" on="1"/>
        <pt x="150" y="360" on="0"/>
        <pt x="129" y="362" on="0"/>
        <pt x="117" y="377" on="0"/>
        <pt x="117" y="384" on="1"/>
        <pt x="115" y="389" on="0"/>
        <pt x="117" y="395" on="1"/>
        <pt x="202" y="680" on="1"/>
        <pt x="205" y="690" on="0"/>
        <pt x="215" y="695" on="1"/>
        <pt x="220" y="699" on="0"/>
        <pt x="228" y="699" on="1"/>
      </contour>
    </TTGlyph>
    <TTGlyph name="florin" xMin="56" yMin="-5" xMax="474" yMax="705">
      <contour>
        <pt x="94" y="-5" on="1"/>
        <pt x="56" y="-5" on="0"/>
        <pt x="56" y="39" on="0"/>
        <pt x="87" y="39" on="1"/>
        <pt x="154" y="39" on="0"/>
        <pt x="169" y="121" on="1"/>
        <pt x="218" y="384" on="1"/>
        <pt x="128" y="384" on="1"/>
        <pt x="119" y="384" on="0"/>
        <pt x="105" y="397" on="0"/>
        <pt x="105" y="416" on="0"/>
        <pt x="119" y="429" on="0"/>
        <pt x="128" y="429" on="1"/>
        <pt x="226" y="429" on="1"/>
        <pt x="252" y="565" on="1"/>
        <pt x="266" y="639" on="0"/>
        <pt x="335" y="705" on="0"/>
        <pt x="395" y="705" on="1"/>
        <pt x="430" y="705" on="0"/>
        <pt x="474" y="694" on="0"/>
        <pt x="474" y="676" on="1"/>
        <pt x="474" y="667" on="0"/>
        <pt x="461" y="655" on="0"/>
        <pt x="451" y="655" on="0"/>
        <pt x="415" y="661" on="0"/>
        <pt x="400" y="661" on="1"/>
        <pt x="359" y="661" on="0"/>
        <pt x="315" y="615" on="0"/>
        <pt x="305" y="562" on="1"/>
        <pt x="280" y="429" on="1"/>
        <pt x="416" y="429" on="1"/>
        <pt x="425" y="429" on="0"/>
        <pt x="439" y="415" on="0"/>
        <pt x="439" y="397" on="0"/>
        <pt x="425" y="384" on="0"/>
        <pt x="416" y="384" on="1"/>
        <pt x="272" y="384" on="1"/>
        <pt x="222" y="118" on="1"/>
        <pt x="198" y="-5" on="0"/>
      </contour>
    </TTGlyph>
    <TTGlyph name="four" xMin="57" yMin="1" xMax="596" yMax="701">
      <contour>
        <pt x="554" y="694" on="1"/>
        <pt x="555" y="694" on="0"/>
        <pt x="562" y="699" on="0"/>
        <pt x="562" y="699" on="1"/>
        <pt x="564" y="700" on="1"/>
        <pt x="566" y="700" on="0"/>
        <pt x="567" y="701" on="1"/>
        <pt x="576" y="701" on="1"/>
        <pt x="589" y="694" on="1"/>
        <pt x="592" y="691" on="1"/>
        <pt x="594" y="686" on="1"/>
        <pt x="595" y="685" on="0"/>
        <pt x="595" y="683" on="0"/>
        <pt x="596" y="682" on="1"/>
        <pt x="596" y="672" on="1"/>
        <pt x="511" y="194" on="1"/>
        <pt x="554" y="194" on="1"/>
        <pt x="564" y="194" on="0"/>
        <pt x="579" y="180" on="0"/>
        <pt x="579" y="160" on="0"/>
        <pt x="564" y="145" on="0"/>
        <pt x="554" y="145" on="1"/>
        <pt x="503" y="145" on="1"/>
        <pt x="481" y="21" on="1"/>
        <pt x="477" y="1" on="0"/>
        <pt x="457" y="1" on="1"/>
        <pt x="444" y="1" on="0"/>
        <pt x="431" y="20" on="0"/>
        <pt x="433" y="30" on="1"/>
        <pt x="453" y="145" on="1"/>
        <pt x="74" y="145" on="1"/>
        <pt x="64" y="145" on="0"/>
        <pt x="57" y="152" on="1"/>
        <pt x="40" y="170" on="0"/>
        <pt x="57" y="187" on="1"/>
      </contour>
      <contour>
        <pt x="132" y="194" on="1"/>
        <pt x="462" y="194" on="1"/>
        <pt x="534" y="603" on="1"/>
      </contour>
    </TTGlyph>
    <TTGlyph name="g" xMin="60" yMin="-196" xMax="565" yMax="488">
      <contour>
        <pt x="257" y="-1" on="1"/>
        <pt x="171" y="-1" on="0"/>
        <pt x="60" y="115" on="0"/>
        <pt x="60" y="201" on="1"/>
        <pt x="60" y="220" on="0"/>
        <pt x="65" y="247" on="1"/>
        <pt x="83" y="346" on="0"/>
        <pt x="239" y="487" on="0"/>
        <pt x="419" y="488" on="0"/>
        <pt x="476" y="429" on="1"/>
        <pt x="494" y="409" on="0"/>
        <pt x="504" y="388" on="1"/>
        <pt x="518" y="468" on="1"/>
        <pt x="523" y="491" on="0"/>
        <pt x="545" y="488" on="1"/>
        <pt x="556" y="486" on="0"/>
        <pt x="567" y="469" on="0"/>
        <pt x="565" y="459" on="1"/>
        <pt x="490" y="32" on="1"/>
        <pt x="472" y="-63" on="0"/>
        <pt x="318" y="-195" on="0"/>
        <pt x="224" y="-196" on="1"/>
        <pt x="169" y="-196" on="0"/>
        <pt x="124" y="-171" on="1"/>
        <pt x="115" y="-167" on="0"/>
        <pt x="109" y="-148" on="0"/>
        <pt x="114" y="-139" on="1"/>
        <pt x="126" y="-120" on="0"/>
        <pt x="146" y="-130" on="1"/>
        <pt x="182" y="-148" on="0"/>
        <pt x="224" y="-148" on="1"/>
        <pt x="298" y="-149" on="0"/>
        <pt x="430" y="-36" on="0"/>
        <pt x="443" y="41" on="1"/>
        <pt x="451" y="89" on="1"/>
        <pt x="366" y="-1" on="0"/>
        <pt x="258" y="-1" on="1"/>
      </contour>
      <contour>
        <pt x="112" y="238" on="1"/>
        <pt x="108" y="221" on="0"/>
        <pt x="108" y="201" on="1"/>
        <pt x="109" y="132" on="0"/>
        <pt x="191" y="47" on="0"/>
        <pt x="333" y="46" on="0"/>
        <pt x="465" y="163" on="0"/>
        <pt x="479" y="247" on="1"/>
        <pt x="483" y="263" on="0"/>
        <pt x="483" y="282" on="1"/>
        <pt x="482" y="352" on="0"/>
        <pt x="400" y="439" on="0"/>
        <pt x="333" y="439" on="1"/>
        <pt x="332" y="439" on="1"/>
        <pt x="258" y="439" on="0"/>
        <pt x="125" y="320" on="0"/>
      </contour>
    </TTGlyph>
    <TTGlyph name="grave" xMin="164" yMin="592" xMax="285" yMax="723">
      <contour>
        <pt x="285" y="601" on="1"/>
        <pt x="285" y="592" on="0"/>
        <pt x="253" y="592" on="0"/>
        <pt x="241" y="605" on="1"/>
        <pt x="172" y="682" on="1"/>
        <pt x="163" y="693" on="0"/>
        <pt x="165" y="708" on="0"/>
        <pt x="195" y="723" on="0"/>
        <pt x="225" y="723" on="0"/>
        <pt x="234" y="705" on="1"/>
        <pt x="283" y="612" on="1"/>
        <pt x="286" y="607" on="0"/>
      </contour>
    </TTGlyph>
    <TTGlyph name="greater" xMin="92" yMin="1" xMax="525" yMax="701">
      <contour>
        <pt x="523" y="341" on="1"/>
        <pt x="521" y="336" on="1"/>
        <pt x="518" y="333" on="0"/>
        <pt x="518" y="332" on="0"/>
        <pt x="515" y="329" on="1"/>
        <pt x="139" y="8" on="1"/>
        <pt x="132" y="1" on="0"/>
        <pt x="108" y="1" on="0"/>
        <pt x="91" y="20" on="0"/>
        <pt x="93" y="44" on="0"/>
        <pt x="102" y="51" on="1"/>
        <pt x="456" y="354" on="1"/>
        <pt x="212" y="654" on="1"/>
        <pt x="205" y="663" on="0"/>
        <pt x="207" y="686" on="0"/>
        <pt x="225" y="702" on="0"/>
        <pt x="249" y="700" on="0"/>
        <pt x="256" y="690" on="1"/>
        <pt x="519" y="369" on="1"/>
        <pt x="520" y="368" on="0"/>
        <pt x="520" y="367" on="1"/>
        <pt x="523" y="360" on="1"/>
        <pt x="524" y="360" on="0"/>
        <pt x="524" y="357" on="0"/>
        <pt x="525" y="355" on="1"/>
        <pt x="525" y="348" on="1"/>
        <pt x="525" y="347" on="0"/>
        <pt x="524" y="346" on="1"/>
        <pt x="524" y="343" on="1"/>
        <pt x="524" y="342" on="0"/>
        <pt x="523" y="342" on="0"/>
      </contour>
    </TTGlyph>
    <TTGlyph name="guillemotleft" xMin="56" yMin="44" xMax="482" yMax="468">
      <contour>
        <pt x="185" y="44" on="1"/>
        <pt x="173" y="44" on="0"/>
        <pt x="168" y="55" on="1"/>
        <pt x="62" y="234" on="1"/>
        <pt x="55" y="247" on="0"/>
        <pt x="57" y="265" on="0"/>
        <pt x="70" y="278" on="1"/>
        <pt x="238" y="457" on="1"/>
        <pt x="249" y="468" on="0"/>
        <pt x="268" y="468" on="0"/>
        <pt x="279" y="456" on="0"/>
        <pt x="276" y="437" on="0"/>
        <pt x="269" y="430" on="1"/>
        <pt x="112" y="257" on="1"/>
        <pt x="207" y="82" on="1"/>
        <pt x="212" y="74" on="0"/>
        <pt x="210" y="65" on="1"/>
        <pt x="206" y="44" on="0"/>
      </contour>
      <contour>
        <pt x="389" y="44" on="1"/>
        <pt x="377" y="44" on="0"/>
        <pt x="372" y="55" on="1"/>
        <pt x="266" y="234" on="1"/>
        <pt x="259" y="247" on="0"/>
        <pt x="261" y="265" on="0"/>
        <pt x="274" y="278" on="1"/>
        <pt x="442" y="457" on="1"/>
        <pt x="453" y="468" on="0"/>
        <pt x="472" y="468" on="0"/>
        <pt x="483" y="456" on="0"/>
        <pt x="480" y="437" on="0"/>
        <pt x="473" y="430" on="1"/>
        <pt x="316" y="257" on="1"/>
        <pt x="411" y="82" on="1"/>
        <pt x="417" y="71" on="0"/>
        <pt x="414" y="65" on="1"/>
        <pt x="409" y="44" on="0"/>
      </contour>
    </TTGlyph>
    <TTGlyph name="guillemotright" xMin="69" yMin="44" xMax="495" yMax="468">
      <contour>
        <pt x="342" y="456" on="0"/>
        <pt x="357" y="468" on="0"/>
        <pt x="378" y="468" on="0"/>
        <pt x="383" y="457" on="1"/>
        <pt x="489" y="278" on="1"/>
        <pt x="496" y="265" on="0"/>
        <pt x="494" y="247" on="0"/>
        <pt x="481" y="234" on="1"/>
        <pt x="313" y="55" on="1"/>
        <pt x="302" y="44" on="0"/>
        <pt x="283" y="44" on="0"/>
        <pt x="272" y="56" on="0"/>
        <pt x="275" y="75" on="0"/>
        <pt x="282" y="82" on="1"/>
        <pt x="439" y="255" on="1"/>
        <pt x="344" y="430" on="1"/>
        <pt x="339" y="438" on="0"/>
        <pt x="341" y="447" on="1"/>
      </contour>
      <contour>
        <pt x="162" y="468" on="1"/>
        <pt x="174" y="468" on="0"/>
        <pt x="179" y="457" on="1"/>
        <pt x="285" y="278" on="1"/>
        <pt x="292" y="265" on="0"/>
        <pt x="290" y="247" on="0"/>
        <pt x="277" y="234" on="1"/>
        <pt x="109" y="55" on="1"/>
        <pt x="98" y="44" on="0"/>
        <pt x="79" y="44" on="0"/>
        <pt x="68" y="56" on="0"/>
        <pt x="71" y="75" on="0"/>
        <pt x="78" y="82" on="1"/>
        <pt x="235" y="255" on="1"/>
        <pt x="140" y="430" on="1"/>
        <pt x="134" y="441" on="0"/>
        <pt x="137" y="447" on="1"/>
        <pt x="142" y="468" on="0"/>
      </contour>
    </TTGlyph>
    <TTGlyph name="guilsinglleft" xMin="56" yMin="45" xMax="278" yMax="469">
      <contour>
        <pt x="185" y="45" on="1"/>
        <pt x="173" y="45" on="0"/>
        <pt x="168" y="56" on="1"/>
        <pt x="62" y="235" on="1"/>
        <pt x="55" y="248" on="0"/>
        <pt x="57" y="266" on="0"/>
        <pt x="70" y="279" on="1"/>
        <pt x="238" y="458" on="1"/>
        <pt x="249" y="469" on="0"/>
        <pt x="268" y="469" on="0"/>
        <pt x="279" y="457" on="0"/>
        <pt x="276" y="438" on="0"/>
        <pt x="269" y="431" on="1"/>
        <pt x="112" y="258" on="1"/>
        <pt x="207" y="83" on="1"/>
        <pt x="212" y="75" on="0"/>
        <pt x="210" y="66" on="1"/>
        <pt x="206" y="45" on="0"/>
      </contour>
    </TTGlyph>
    <TTGlyph name="guilsinglright" xMin="69" yMin="45" xMax="291" yMax="469">
      <contour>
        <pt x="138" y="457" on="0"/>
        <pt x="153" y="469" on="0"/>
        <pt x="174" y="469" on="0"/>
        <pt x="179" y="458" on="1"/>
        <pt x="285" y="279" on="1"/>
        <pt x="292" y="266" on="0"/>
        <pt x="290" y="248" on="0"/>
        <pt x="277" y="235" on="1"/>
        <pt x="109" y="56" on="1"/>
        <pt x="98" y="45" on="0"/>
        <pt x="79" y="45" on="0"/>
        <pt x="68" y="57" on="0"/>
        <pt x="71" y="76" on="0"/>
        <pt x="78" y="83" on="1"/>
        <pt x="235" y="256" on="1"/>
        <pt x="140" y="431" on="1"/>
        <pt x="135" y="439" on="0"/>
        <pt x="137" y="448" on="1"/>
      </contour>
    </TTGlyph>
    <TTGlyph name="h" xMin="93" yMin="-1" xMax="552" yMax="699">
      <contour>
        <pt x="113" y="-1" on="1"/>
        <pt x="93" y="4" on="0"/>
        <pt x="93" y="22" on="1"/>
        <pt x="93" y="26" on="0"/>
        <pt x="94" y="27" on="1"/>
        <pt x="208" y="678" on="1"/>
        <pt x="210" y="689" on="0"/>
        <pt x="227" y="700" on="0"/>
        <pt x="247" y="697" on="0"/>
        <pt x="259" y="680" on="0"/>
        <pt x="257" y="670" on="1"/>
        <pt x="215" y="422" on="1"/>
        <pt x="285" y="488" on="0"/>
        <pt x="377" y="490" on="1"/>
        <pt x="451" y="490" on="0"/>
        <pt x="552" y="391" on="0"/>
        <pt x="552" y="317" on="1"/>
        <pt x="552" y="300" on="0"/>
        <pt x="549" y="282" on="1"/>
        <pt x="501" y="19" on="1"/>
        <pt x="500" y="10" on="0"/>
        <pt x="486" y="-1" on="0"/>
        <pt x="477" y="-1" on="1"/>
        <pt x="472" y="-1" on="1"/>
        <pt x="462" y="1" on="0"/>
        <pt x="451" y="17" on="0"/>
        <pt x="453" y="27" on="1"/>
        <pt x="501" y="290" on="1"/>
        <pt x="503" y="310" on="0"/>
        <pt x="503" y="317" on="1"/>
        <pt x="502" y="372" on="0"/>
        <pt x="433" y="440" on="0"/>
        <pt x="313" y="442" on="0"/>
        <pt x="201" y="347" on="0"/>
        <pt x="190" y="282" on="1"/>
        <pt x="142" y="19" on="1"/>
        <pt x="142" y="18" on="1"/>
        <pt x="141" y="17" on="0"/>
        <pt x="141" y="14" on="1"/>
        <pt x="138" y="11" on="0"/>
        <pt x="138" y="9" on="0"/>
        <pt x="134" y="4" on="0"/>
        <pt x="132" y="4" on="1"/>
        <pt x="129" y="1" on="1"/>
        <pt x="128" y="1" on="0"/>
        <pt x="127" y="0" on="1"/>
        <pt x="125" y="0" on="1"/>
        <pt x="123" y="-1" on="1"/>
      </contour>
    </TTGlyph>
    <TTGlyph name="hyphen" xMin="66" yMin="328" xMax="317" yMax="366">
      <contour>
        <pt x="85" y="328" on="1"/>
        <pt x="66" y="328" on="0"/>
        <pt x="66" y="366" on="0"/>
        <pt x="85" y="366" on="1"/>
        <pt x="298" y="366" on="1"/>
        <pt x="317" y="366" on="0"/>
        <pt x="317" y="348" on="1"/>
        <pt x="317" y="339" on="0"/>
        <pt x="306" y="328" on="0"/>
        <pt x="298" y="328" on="1"/>
      </contour>
    </TTGlyph>
    <TTGlyph name="i" xMin="97" yMin="0" xMax="247" yMax="635">
      <contour>
        <pt x="116" y="0" on="1"/>
        <pt x="106" y="1" on="0"/>
        <pt x="95" y="18" on="0"/>
        <pt x="97" y="27" on="1"/>
        <pt x="174" y="470" on="1"/>
        <pt x="175" y="480" on="0"/>
        <pt x="192" y="491" on="0"/>
        <pt x="202" y="490" on="1"/>
        <pt x="226" y="484" on="0"/>
        <pt x="221" y="461" on="1"/>
        <pt x="143" y="19" on="1"/>
        <pt x="140" y="0" on="0"/>
        <pt x="120" y="0" on="1"/>
      </contour>
      <contour>
        <pt x="243" y="584" on="1"/>
        <pt x="240" y="564" on="0"/>
        <pt x="219" y="564" on="1"/>
        <pt x="215" y="564" on="1"/>
        <pt x="205" y="566" on="0"/>
        <pt x="194" y="582" on="0"/>
        <pt x="196" y="592" on="1"/>
        <pt x="200" y="615" on="1"/>
        <pt x="201" y="624" on="0"/>
        <pt x="218" y="636" on="0"/>
        <pt x="237" y="633" on="0"/>
        <pt x="249" y="616" on="0"/>
        <pt x="247" y="606" on="1"/>
      </contour>
    </TTGlyph>
    <TTGlyph name="iacute" xMin="103" yMin="0" xMax="298" yMax="723">
      <contour>
        <pt x="122" y="0" on="1"/>
        <pt x="112" y="1" on="0"/>
        <pt x="101" y="18" on="0"/>
        <pt x="103" y="27" on="1"/>
        <pt x="180" y="469" on="1"/>
        <pt x="181" y="479" on="0"/>
        <pt x="198" y="490" on="0"/>
        <pt x="208" y="489" on="1"/>
        <pt x="232" y="483" on="0"/>
        <pt x="227" y="460" on="1"/>
        <pt x="149" y="19" on="1"/>
        <pt x="146" y="0" on="0"/>
        <pt x="126" y="0" on="1"/>
      </contour>
      <contour>
        <pt x="221" y="605" on="1"/>
        <pt x="209" y="592" on="0"/>
        <pt x="177" y="592" on="0"/>
        <pt x="177" y="601" on="1"/>
        <pt x="176" y="607" on="0"/>
        <pt x="179" y="612" on="1"/>
        <pt x="228" y="705" on="1"/>
        <pt x="237" y="723" on="0"/>
        <pt x="267" y="723" on="0"/>
        <pt x="297" y="708" on="0"/>
        <pt x="299" y="693" on="0"/>
        <pt x="290" y="682" on="1"/>
      </contour>
    </TTGlyph>
    <TTGlyph name="icircumflex" xMin="18" yMin="0" xMax="246" yMax="720">
      <contour>
        <pt x="37" y="0" on="1"/>
        <pt x="27" y="1" on="0"/>
        <pt x="16" y="18" on="0"/>
        <pt x="18" y="27" on="1"/>
        <pt x="95" y="469" on="1"/>
        <pt x="96" y="479" on="0"/>
        <pt x="113" y="490" on="0"/>
        <pt x="123" y="489" on="1"/>
        <pt x="147" y="483" on="0"/>
        <pt x="142" y="460" on="1"/>
        <pt x="64" y="19" on="1"/>
        <pt x="61" y="0" on="0"/>
        <pt x="41" y="0" on="1"/>
      </contour>
      <contour>
        <pt x="144" y="663" on="1"/>
        <pt x="74" y="605" on="1"/>
        <pt x="57" y="592" on="0"/>
        <pt x="28" y="592" on="0"/>
        <pt x="28" y="602" on="1"/>
        <pt x="30" y="609" on="0"/>
        <pt x="35" y="614" on="1"/>
        <pt x="119" y="702" on="1"/>
        <pt x="135" y="720" on="0"/>
        <pt x="149" y="720" on="1"/>
        <pt x="157" y="720" on="1"/>
        <pt x="170" y="720" on="0"/>
        <pt x="183" y="702" on="1"/>
        <pt x="243" y="614" on="1"/>
        <pt x="247" y="607" on="0"/>
        <pt x="246" y="602" on="1"/>
        <pt x="246" y="592" on="0"/>
        <pt x="212" y="592" on="0"/>
        <pt x="200" y="605" on="1"/>
      </contour>
    </TTGlyph>
    <TTGlyph name="idieresis" xMin="97" yMin="0" xMax="349" yMax="680">
      <contour>
        <pt x="116" y="0" on="1"/>
        <pt x="106" y="1" on="0"/>
        <pt x="95" y="18" on="0"/>
        <pt x="97" y="27" on="1"/>
        <pt x="174" y="470" on="1"/>
        <pt x="175" y="480" on="0"/>
        <pt x="192" y="491" on="0"/>
        <pt x="202" y="490" on="1"/>
        <pt x="226" y="484" on="0"/>
        <pt x="221" y="461" on="1"/>
        <pt x="143" y="19" on="1"/>
        <pt x="140" y="0" on="0"/>
        <pt x="120" y="0" on="1"/>
      </contour>
      <contour>
        <pt x="98" y="637" on="1"/>
        <pt x="101" y="655" on="0"/>
        <pt x="130" y="680" on="0"/>
        <pt x="166" y="680" on="0"/>
        <pt x="187" y="655" on="0"/>
        <pt x="180" y="619" on="0"/>
        <pt x="151" y="594" on="0"/>
        <pt x="115" y="594" on="0"/>
        <pt x="94" y="619" on="0"/>
      </contour>
      <contour>
        <pt x="263" y="637" on="1"/>
        <pt x="266" y="655" on="0"/>
        <pt x="295" y="680" on="0"/>
        <pt x="331" y="680" on="0"/>
        <pt x="352" y="655" on="0"/>
        <pt x="345" y="619" on="0"/>
        <pt x="316" y="594" on="0"/>
        <pt x="280" y="594" on="0"/>
        <pt x="259" y="619" on="0"/>
      </contour>
    </TTGlyph>
    <TTGlyph name="igrave" xMin="5" yMin="0" xMax="183" yMax="723">
      <contour>
        <pt x="24" y="0" on="1"/>
        <pt x="14" y="1" on="0"/>
        <pt x="3" y="18" on="0"/>
        <pt x="5" y="27" on="1"/>
        <pt x="82" y="469" on="1"/>
        <pt x="83" y="479" on="0"/>
        <pt x="100" y="490" on="0"/>
        <pt x="110" y="489" on="1"/>
        <pt x="134" y="483" on="0"/>
        <pt x="129" y="460" on="1"/>
        <pt x="51" y="19" on="1"/>
        <pt x="48" y="0" on="0"/>
        <pt x="28" y="0" on="1"/>
      </contour>
      <contour>
        <pt x="183" y="601" on="1"/>
        <pt x="183" y="592" on="0"/>
        <pt x="151" y="592" on="0"/>
        <pt x="139" y="605" on="1"/>
        <pt x="70" y="682" on="1"/>
        <pt x="61" y="693" on="0"/>
        <pt x="63" y="708" on="0"/>
        <pt x="93" y="723" on="0"/>
        <pt x="123" y="723" on="0"/>
        <pt x="132" y="705" on="1"/>
        <pt x="181" y="612" on="1"/>
        <pt x="184" y="607" on="0"/>
      </contour>
    </TTGlyph>
    <TTGlyph name="j" xMin="-5" yMin="-190" xMax="242" yMax="635">
      <contour>
        <pt x="237" y="586" on="1"/>
        <pt x="236" y="577" on="0"/>
        <pt x="223" y="566" on="0"/>
        <pt x="215" y="566" on="1"/>
        <pt x="210" y="566" on="1"/>
        <pt x="201" y="568" on="0"/>
        <pt x="190" y="584" on="0"/>
        <pt x="192" y="594" on="1"/>
        <pt x="195" y="617" on="1"/>
        <pt x="197" y="626" on="0"/>
        <pt x="213" y="637" on="0"/>
        <pt x="221" y="635" on="1"/>
        <pt x="245" y="630" on="0"/>
        <pt x="242" y="608" on="1"/>
      </contour>
      <contour>
        <pt x="195" y="490" on="1"/>
        <pt x="218" y="486" on="0"/>
        <pt x="213" y="463" on="1"/>
        <pt x="111" y="-111" on="1"/>
        <pt x="105" y="-144" on="0"/>
        <pt x="53" y="-189" on="0"/>
        <pt x="19" y="-190" on="1"/>
        <pt x="9" y="-190" on="0"/>
        <pt x="-5" y="-176" on="0"/>
        <pt x="-5" y="-156" on="0"/>
        <pt x="9" y="-143" on="0"/>
        <pt x="33" y="-144" on="0"/>
        <pt x="63" y="-119" on="0"/>
        <pt x="65" y="-103" on="1"/>
        <pt x="168" y="472" on="1"/>
        <pt x="169" y="481" on="0"/>
        <pt x="185" y="492" on="0"/>
      </contour>
    </TTGlyph>
    <TTGlyph name="k" xMin="95" yMin="-2" xMax="549" yMax="697">
      <contour>
        <pt x="477" y="27" on="0"/>
        <pt x="473" y="7" on="0"/>
        <pt x="459" y="-2" on="0"/>
        <pt x="438" y="-2" on="0"/>
        <pt x="430" y="9" on="1"/>
        <pt x="285" y="233" on="1"/>
        <pt x="164" y="131" on="1"/>
        <pt x="164" y="130" on="0"/>
        <pt x="163" y="130" on="1"/>
        <pt x="144" y="18" on="1"/>
        <pt x="139" y="-2" on="0"/>
        <pt x="120" y="-2" on="1"/>
        <pt x="115" y="-2" on="1"/>
        <pt x="105" y="-1" on="0"/>
        <pt x="93" y="16" on="0"/>
        <pt x="95" y="26" on="1"/>
        <pt x="210" y="677" on="1"/>
        <pt x="212" y="688" on="0"/>
        <pt x="229" y="699" on="0"/>
        <pt x="249" y="695" on="0"/>
        <pt x="260" y="679" on="0"/>
        <pt x="258" y="669" on="1"/>
        <pt x="177" y="206" on="1"/>
        <pt x="515" y="493" on="1"/>
        <pt x="522" y="500" on="0"/>
        <pt x="543" y="498" on="0"/>
        <pt x="549" y="490" on="1"/>
        <pt x="565" y="472" on="0"/>
        <pt x="547" y="456" on="1"/>
        <pt x="322" y="265" on="1"/>
        <pt x="471" y="35" on="1"/>
      </contour>
    </TTGlyph>
    <TTGlyph name="l" xMin="102" yMin="0" xMax="265" yMax="700">
      <contour>
        <pt x="218" y="689" on="0"/>
        <pt x="235" y="701" on="0"/>
        <pt x="255" y="698" on="0"/>
        <pt x="267" y="681" on="0"/>
        <pt x="265" y="671" on="1"/>
        <pt x="150" y="20" on="1"/>
        <pt x="147" y="0" on="0"/>
        <pt x="126" y="0" on="1"/>
        <pt x="122" y="0" on="1"/>
        <pt x="112" y="1" on="0"/>
        <pt x="100" y="18" on="0"/>
        <pt x="102" y="28" on="1"/>
        <pt x="217" y="679" on="1"/>
      </contour>
    </TTGlyph>
    <TTGlyph name="less" xMin="60" yMin="-1" xMax="493" yMax="699">
      <contour>
        <pt x="62" y="359" on="1"/>
        <pt x="64" y="364" on="1"/>
        <pt x="66" y="366" on="0"/>
        <pt x="66" y="367" on="1"/>
        <pt x="446" y="692" on="1"/>
        <pt x="455" y="700" on="0"/>
        <pt x="479" y="698" on="0"/>
        <pt x="494" y="680" on="0"/>
        <pt x="492" y="656" on="0"/>
        <pt x="483" y="648" on="1"/>
        <pt x="129" y="345" on="1"/>
        <pt x="373" y="46" on="1"/>
        <pt x="380" y="36" on="0"/>
        <pt x="378" y="13" on="0"/>
        <pt x="361" y="-1" on="0"/>
        <pt x="336" y="-1" on="0"/>
        <pt x="329" y="9" on="1"/>
        <pt x="66" y="331" on="1"/>
        <pt x="66" y="332" on="0"/>
        <pt x="64" y="334" on="1"/>
        <pt x="64" y="335" on="1"/>
        <pt x="62" y="337" on="0"/>
        <pt x="62" y="339" on="1"/>
        <pt x="61" y="340" on="1"/>
        <pt x="61" y="344" on="1"/>
        <pt x="60" y="345" on="0"/>
        <pt x="60" y="346" on="1"/>
        <pt x="60" y="351" on="1"/>
        <pt x="60" y="353" on="0"/>
        <pt x="61" y="354" on="1"/>
        <pt x="61" y="357" on="1"/>
        <pt x="61" y="358" on="0"/>
        <pt x="62" y="358" on="0"/>
      </contour>
    </TTGlyph>
    <TTGlyph name="m" xMin="95" yMin="-2" xMax="894" yMax="488">
      <contour>
        <pt x="493" y="292" on="1"/>
        <pt x="496" y="319" on="1"/>
        <pt x="495" y="372" on="0"/>
        <pt x="428" y="439" on="0"/>
        <pt x="309" y="441" on="0"/>
        <pt x="200" y="348" on="0"/>
        <pt x="189" y="284" on="1"/>
        <pt x="142" y="17" on="1"/>
        <pt x="142" y="14" on="0"/>
        <pt x="141" y="13" on="1"/>
        <pt x="141" y="12" on="1"/>
        <pt x="140" y="12" on="0"/>
        <pt x="140" y="11" on="1"/>
        <pt x="140" y="8" on="0"/>
        <pt x="138" y="8" on="1"/>
        <pt x="138" y="7" on="0"/>
        <pt x="132" y="2" on="0"/>
        <pt x="131" y="2" on="1"/>
        <pt x="128" y="0" on="0"/>
        <pt x="128" y="-1" on="1"/>
        <pt x="125" y="-1" on="1"/>
        <pt x="124" y="-2" on="1"/>
        <pt x="115" y="-2" on="1"/>
        <pt x="105" y="-1" on="0"/>
        <pt x="93" y="16" on="0"/>
        <pt x="95" y="26" on="1"/>
        <pt x="142" y="292" on="1"/>
        <pt x="142" y="293" on="1"/>
        <pt x="173" y="468" on="1"/>
        <pt x="179" y="492" on="0"/>
        <pt x="201" y="487" on="1"/>
        <pt x="211" y="485" on="0"/>
        <pt x="222" y="470" on="0"/>
        <pt x="220" y="460" on="1"/>
        <pt x="214" y="421" on="1"/>
        <pt x="281" y="486" on="0"/>
        <pt x="372" y="488" on="1"/>
        <pt x="448" y="488" on="0"/>
        <pt x="495" y="439" on="1"/>
        <pt x="519" y="415" on="0"/>
        <pt x="531" y="383" on="1"/>
        <pt x="565" y="430" on="0"/>
        <pt x="666" y="487" on="0"/>
        <pt x="797" y="488" on="0"/>
        <pt x="894" y="391" on="0"/>
        <pt x="894" y="319" on="1"/>
        <pt x="894" y="302" on="0"/>
        <pt x="891" y="284" on="1"/>
        <pt x="844" y="17" on="1"/>
        <pt x="841" y="-2" on="0"/>
        <pt x="820" y="-2" on="1"/>
        <pt x="816" y="-2" on="1"/>
        <pt x="806" y="0" on="0"/>
        <pt x="795" y="16" on="0"/>
        <pt x="797" y="26" on="1"/>
        <pt x="844" y="292" on="1"/>
        <pt x="846" y="312" on="0"/>
        <pt x="846" y="319" on="1"/>
        <pt x="845" y="372" on="0"/>
        <pt x="778" y="439" on="0"/>
        <pt x="660" y="440" on="0"/>
        <pt x="552" y="350" on="0"/>
        <pt x="541" y="287" on="1"/>
        <pt x="541" y="286" on="0"/>
        <pt x="540" y="284" on="1"/>
        <pt x="493" y="17" on="1"/>
        <pt x="490" y="1" on="0"/>
        <pt x="475" y="-2" on="1"/>
        <pt x="465" y="-2" on="1"/>
        <pt x="455" y="-1" on="0"/>
        <pt x="444" y="16" on="0"/>
        <pt x="446" y="26" on="1"/>
      </contour>
    </TTGlyph>
    <TTGlyph name="multiply" xMin="102" yMin="142" xMax="584" yMax="562">
      <contour>
        <pt x="577" y="520" on="1"/>
        <pt x="378" y="353" on="1"/>
        <pt x="517" y="187" on="1"/>
        <pt x="525" y="177" on="0"/>
        <pt x="522" y="167" on="1"/>
        <pt x="521" y="157" on="0"/>
        <pt x="504" y="142" on="0"/>
        <pt x="482" y="142" on="0"/>
        <pt x="475" y="151" on="1"/>
        <pt x="338" y="319" on="1"/>
        <pt x="141" y="150" on="1"/>
        <pt x="131" y="142" on="0"/>
        <pt x="112" y="142" on="0"/>
        <pt x="100" y="156" on="0"/>
        <pt x="102" y="166" on="1"/>
        <pt x="103" y="176" on="0"/>
        <pt x="113" y="184" on="1"/>
        <pt x="312" y="351" on="1"/>
        <pt x="173" y="517" on="1"/>
        <pt x="165" y="527" on="0"/>
        <pt x="168" y="537" on="1"/>
        <pt x="169" y="547" on="0"/>
        <pt x="186" y="562" on="0"/>
        <pt x="208" y="562" on="0"/>
        <pt x="215" y="553" on="1"/>
        <pt x="352" y="385" on="1"/>
        <pt x="549" y="554" on="1"/>
        <pt x="557" y="562" on="0"/>
        <pt x="578" y="562" on="0"/>
        <pt x="584" y="555" on="1"/>
        <pt x="597" y="540" on="0"/>
      </contour>
    </TTGlyph>
    <TTGlyph name="n" xMin="95" yMin="0" xMax="541" yMax="488">
      <contour>
        <pt x="123" y="0" on="1"/>
        <pt x="114" y="0" on="1"/>
        <pt x="104" y="1" on="0"/>
        <pt x="93" y="18" on="0"/>
        <pt x="95" y="28" on="1"/>
        <pt x="142" y="292" on="1"/>
        <pt x="142" y="293" on="1"/>
        <pt x="172" y="468" on="1"/>
        <pt x="174" y="478" on="0"/>
        <pt x="190" y="489" on="0"/>
        <pt x="210" y="486" on="0"/>
        <pt x="222" y="470" on="0"/>
        <pt x="220" y="460" on="1"/>
        <pt x="213" y="421" on="1"/>
        <pt x="282" y="486" on="0"/>
        <pt x="370" y="488" on="1"/>
        <pt x="446" y="488" on="0"/>
        <pt x="541" y="391" on="0"/>
        <pt x="541" y="319" on="1"/>
        <pt x="541" y="302" on="0"/>
        <pt x="538" y="284" on="1"/>
        <pt x="491" y="19" on="1"/>
        <pt x="488" y="0" on="0"/>
        <pt x="467" y="0" on="1"/>
        <pt x="464" y="0" on="1"/>
        <pt x="454" y="2" on="0"/>
        <pt x="443" y="18" on="0"/>
        <pt x="445" y="28" on="1"/>
        <pt x="491" y="292" on="1"/>
        <pt x="493" y="312" on="0"/>
        <pt x="493" y="319" on="1"/>
        <pt x="492" y="372" on="0"/>
        <pt x="426" y="439" on="0"/>
        <pt x="308" y="441" on="0"/>
        <pt x="199" y="348" on="0"/>
        <pt x="188" y="285" on="1"/>
        <pt x="142" y="19" on="1"/>
        <pt x="139" y="11" on="1"/>
        <pt x="135" y="7" on="0"/>
        <pt x="135" y="6" on="1"/>
        <pt x="133" y="4" on="1"/>
        <pt x="128" y="4" on="0"/>
        <pt x="128" y="1" on="1"/>
        <pt x="125" y="1" on="1"/>
        <pt x="124" y="0" on="0"/>
      </contour>
    </TTGlyph>
    <TTGlyph name="nine" xMin="66" yMin="0" xMax="535" yMax="700">
      <contour>
        <pt x="479" y="644" on="1"/>
        <pt x="535" y="590" on="0"/>
        <pt x="535" y="505" on="1"/>
        <pt x="535" y="487" on="1"/>
        <pt x="521" y="315" on="0"/>
        <pt x="431" y="178" on="1"/>
        <pt x="319" y="7" on="0"/>
        <pt x="144" y="0" on="1"/>
        <pt x="143" y="0" on="1"/>
        <pt x="133" y="0" on="0"/>
        <pt x="119" y="14" on="0"/>
        <pt x="118" y="24" on="1"/>
        <pt x="118" y="34" on="0"/>
        <pt x="132" y="49" on="0"/>
        <pt x="142" y="49" on="1"/>
        <pt x="292" y="56" on="0"/>
        <pt x="390" y="205" on="1"/>
        <pt x="422" y="253" on="0"/>
        <pt x="444" y="311" on="1"/>
        <pt x="366" y="240" on="0"/>
        <pt x="264" y="238" on="1"/>
        <pt x="178" y="238" on="0"/>
        <pt x="122" y="294" on="1"/>
        <pt x="66" y="348" on="0"/>
        <pt x="66" y="433" on="1"/>
        <pt x="66" y="551" on="0"/>
        <pt x="164" y="634" on="1"/>
        <pt x="242" y="699" on="0"/>
        <pt x="423" y="700" on="0"/>
      </contour>
      <contour>
        <pt x="116" y="369" on="0"/>
        <pt x="197" y="288" on="0"/>
        <pt x="340" y="286" on="0"/>
        <pt x="405" y="342" on="1"/>
        <pt x="486" y="411" on="0"/>
        <pt x="486" y="505" on="1"/>
        <pt x="485" y="569" on="0"/>
        <pt x="404" y="650" on="0"/>
        <pt x="261" y="652" on="0"/>
        <pt x="131" y="541" on="0"/>
        <pt x="118" y="465" on="1"/>
        <pt x="94" y="469" on="1"/>
        <pt x="118" y="465" on="1"/>
        <pt x="115" y="448" on="0"/>
        <pt x="115" y="433" on="1"/>
      </contour>
    </TTGlyph>
    <TTGlyph name="ntilde" xMin="95" yMin="0" xMax="568" yMax="699">
      <component glyphName="n" x="0" y="0" flags="0x1004"/>
      <component glyphName="tilde" x="164" y="0" flags="0x1004"/>
    </TTGlyph>
    <TTGlyph name="numbersign" xMin="47" yMin="-4" xMax="704" yMax="704">
      <contour>
        <pt x="113" y="25" on="1"/>
        <pt x="168" y="187" on="1"/>
        <pt x="67" y="187" on="1"/>
        <pt x="57" y="187" on="0"/>
        <pt x="46" y="200" on="0"/>
        <pt x="48" y="220" on="0"/>
        <pt x="65" y="234" on="0"/>
        <pt x="75" y="234" on="1"/>
        <pt x="184" y="234" on="1"/>
        <pt x="265" y="470" on="1"/>
        <pt x="155" y="470" on="1"/>
        <pt x="145" y="470" on="0"/>
        <pt x="133" y="483" on="0"/>
        <pt x="135" y="493" on="1"/>
        <pt x="136" y="503" on="0"/>
        <pt x="153" y="517" on="0"/>
        <pt x="163" y="517" on="1"/>
        <pt x="281" y="517" on="1"/>
        <pt x="336" y="682" on="1"/>
        <pt x="343" y="704" on="0"/>
        <pt x="365" y="704" on="1"/>
        <pt x="377" y="704" on="0"/>
        <pt x="385" y="687" on="0"/>
        <pt x="382" y="675" on="1"/>
        <pt x="329" y="517" on="1"/>
        <pt x="536" y="517" on="1"/>
        <pt x="591" y="682" on="1"/>
        <pt x="598" y="704" on="0"/>
        <pt x="620" y="704" on="1"/>
        <pt x="632" y="704" on="0"/>
        <pt x="640" y="687" on="0"/>
        <pt x="637" y="675" on="1"/>
        <pt x="584" y="517" on="1"/>
        <pt x="684" y="517" on="1"/>
        <pt x="694" y="517" on="0"/>
        <pt x="705" y="504" on="0"/>
        <pt x="703" y="484" on="0"/>
        <pt x="686" y="470" on="0"/>
        <pt x="676" y="470" on="1"/>
        <pt x="568" y="470" on="1"/>
        <pt x="487" y="234" on="1"/>
        <pt x="596" y="234" on="1"/>
        <pt x="606" y="234" on="0"/>
        <pt x="617" y="221" on="0"/>
        <pt x="615" y="201" on="0"/>
        <pt x="598" y="187" on="0"/>
        <pt x="588" y="187" on="1"/>
        <pt x="471" y="187" on="1"/>
        <pt x="414" y="18" on="1"/>
        <pt x="407" y="-4" on="0"/>
        <pt x="385" y="-4" on="1"/>
        <pt x="373" y="-4" on="0"/>
        <pt x="365" y="13" on="0"/>
        <pt x="368" y="25" on="1"/>
        <pt x="423" y="187" on="1"/>
        <pt x="216" y="187" on="1"/>
        <pt x="159" y="18" on="1"/>
        <pt x="152" y="-4" on="0"/>
        <pt x="130" y="-4" on="1"/>
        <pt x="118" y="-4" on="0"/>
        <pt x="110" y="13" on="0"/>
      </contour>
      <contour>
        <pt x="232" y="234" on="1"/>
        <pt x="439" y="234" on="1"/>
        <pt x="520" y="470" on="1"/>
        <pt x="313" y="470" on="1"/>
      </contour>
    </TTGlyph>
    <TTGlyph name="o" xMin="70" yMin="0" xMax="541" yMax="490">
      <contour>
        <pt x="541" y="286" on="1"/>
        <pt x="541" y="261" on="0"/>
        <pt x="537" y="240" on="1"/>
        <pt x="514" y="245" on="1"/>
        <pt x="537" y="240" on="1"/>
        <pt x="519" y="140" on="0"/>
        <pt x="363" y="0" on="0"/>
        <pt x="267" y="0" on="1"/>
        <pt x="266" y="0" on="1"/>
        <pt x="181" y="0" on="0"/>
        <pt x="70" y="117" on="0"/>
        <pt x="70" y="204" on="1"/>
        <pt x="70" y="228" on="0"/>
        <pt x="74" y="249" on="1"/>
        <pt x="92" y="349" on="0"/>
        <pt x="249" y="489" on="0"/>
        <pt x="430" y="490" on="0"/>
        <pt x="541" y="374" on="0"/>
      </contour>
      <contour>
        <pt x="490" y="249" on="1"/>
        <pt x="494" y="273" on="0"/>
        <pt x="494" y="286" on="1"/>
        <pt x="493" y="354" on="0"/>
        <pt x="411" y="441" on="0"/>
        <pt x="345" y="442" on="1"/>
        <pt x="343" y="442" on="1"/>
        <pt x="267" y="442" on="0"/>
        <pt x="201" y="382" on="1"/>
        <pt x="118" y="308" on="0"/>
        <pt x="118" y="204" on="1"/>
        <pt x="119" y="135" on="0"/>
        <pt x="201" y="48" on="0"/>
        <pt x="343" y="46" on="0"/>
        <pt x="476" y="166" on="0"/>
      </contour>
    </TTGlyph>
    <TTGlyph name="oacute" xMin="58" yMin="0" xMax="529" yMax="723">
      <contour>
        <pt x="529" y="286" on="1"/>
        <pt x="529" y="261" on="0"/>
        <pt x="525" y="240" on="1"/>
        <pt x="502" y="245" on="1"/>
        <pt x="525" y="240" on="1"/>
        <pt x="507" y="140" on="0"/>
        <pt x="351" y="0" on="0"/>
        <pt x="255" y="0" on="1"/>
        <pt x="254" y="0" on="1"/>
        <pt x="169" y="0" on="0"/>
        <pt x="58" y="117" on="0"/>
        <pt x="58" y="204" on="1"/>
        <pt x="58" y="228" on="0"/>
        <pt x="62" y="249" on="1"/>
        <pt x="80" y="349" on="0"/>
        <pt x="237" y="489" on="0"/>
        <pt x="418" y="490" on="0"/>
        <pt x="529" y="374" on="0"/>
      </contour>
      <contour>
        <pt x="478" y="249" on="1"/>
        <pt x="482" y="273" on="0"/>
        <pt x="482" y="286" on="1"/>
        <pt x="481" y="354" on="0"/>
        <pt x="399" y="441" on="0"/>
        <pt x="333" y="442" on="1"/>
        <pt x="331" y="442" on="1"/>
        <pt x="255" y="442" on="0"/>
        <pt x="189" y="382" on="1"/>
        <pt x="106" y="308" on="0"/>
        <pt x="106" y="204" on="1"/>
        <pt x="107" y="135" on="0"/>
        <pt x="189" y="48" on="0"/>
        <pt x="331" y="46" on="0"/>
        <pt x="464" y="166" on="0"/>
      </contour>
      <contour>
        <pt x="308" y="605" on="1"/>
        <pt x="296" y="592" on="0"/>
        <pt x="264" y="592" on="0"/>
        <pt x="264" y="601" on="1"/>
        <pt x="263" y="607" on="0"/>
        <pt x="266" y="612" on="1"/>
        <pt x="315" y="705" on="1"/>
        <pt x="324" y="723" on="0"/>
        <pt x="354" y="723" on="0"/>
        <pt x="384" y="708" on="0"/>
        <pt x="386" y="693" on="0"/>
        <pt x="377" y="682" on="1"/>
      </contour>
    </TTGlyph>
    <TTGlyph name="ocircumflex" xMin="58" yMin="0" xMax="529" yMax="720">
      <contour>
        <pt x="529" y="286" on="1"/>
        <pt x="529" y="261" on="0"/>
        <pt x="525" y="240" on="1"/>
        <pt x="502" y="245" on="1"/>
        <pt x="525" y="240" on="1"/>
        <pt x="507" y="140" on="0"/>
        <pt x="351" y="0" on="0"/>
        <pt x="255" y="0" on="1"/>
        <pt x="254" y="0" on="1"/>
        <pt x="169" y="0" on="0"/>
        <pt x="58" y="117" on="0"/>
        <pt x="58" y="204" on="1"/>
        <pt x="58" y="228" on="0"/>
        <pt x="62" y="249" on="1"/>
        <pt x="80" y="349" on="0"/>
        <pt x="237" y="489" on="0"/>
        <pt x="418" y="490" on="0"/>
        <pt x="529" y="374" on="0"/>
      </contour>
      <contour>
        <pt x="478" y="249" on="1"/>
        <pt x="482" y="273" on="0"/>
        <pt x="482" y="286" on="1"/>
        <pt x="481" y="354" on="0"/>
        <pt x="399" y="441" on="0"/>
        <pt x="333" y="442" on="1"/>
        <pt x="331" y="442" on="1"/>
        <pt x="255" y="442" on="0"/>
        <pt x="189" y="382" on="1"/>
        <pt x="106" y="308" on="0"/>
        <pt x="106" y="204" on="1"/>
        <pt x="107" y="135" on="0"/>
        <pt x="189" y="48" on="0"/>
        <pt x="331" y="46" on="0"/>
        <pt x="464" y="166" on="0"/>
      </contour>
      <contour>
        <pt x="409" y="663" on="1"/>
        <pt x="339" y="605" on="1"/>
        <pt x="322" y="592" on="0"/>
        <pt x="293" y="592" on="0"/>
        <pt x="293" y="602" on="1"/>
        <pt x="295" y="609" on="0"/>
        <pt x="300" y="614" on="1"/>
        <pt x="384" y="702" on="1"/>
        <pt x="400" y="720" on="0"/>
        <pt x="414" y="720" on="1"/>
        <pt x="422" y="720" on="1"/>
        <pt x="435" y="720" on="0"/>
        <pt x="448" y="702" on="1"/>
        <pt x="508" y="614" on="1"/>
        <pt x="512" y="607" on="0"/>
        <pt x="511" y="602" on="1"/>
        <pt x="511" y="592" on="0"/>
        <pt x="477" y="592" on="0"/>
        <pt x="465" y="605" on="1"/>
      </contour>
    </TTGlyph>
    <TTGlyph name="odieresis" xMin="70" yMin="0" xMax="541" yMax="680">
      <component glyphName="o" x="0" y="0" flags="0x1004"/>
      <component glyphName="dieresis" x="143" y="0" flags="0x1004"/>
    </TTGlyph>
</ttFont>
